<?xml version="1.0" encoding="UTF-8"?> <svg xmlns="http://www.w3.org/2000/svg" width="153" height="93" viewBox="0 0 153 93" fill="none"> <path d="M151 2H2V67H82L122.5 89V67H151V2Z" fill="#FFFDFD"></path> <path fill-rule="evenodd" clip-rule="evenodd" d="M4.56089 64.8001H83.2468L120.013 85.1798V64.8001H148.475V4.59428H4.56089V64.8001ZM0 0H153V69.4396H124.537V93L82.0324 69.4396H0V0Z" fill="#231F20"></path> <path d="M33.5533 26.3125H46.8199V29.6006H37.438V33.9043H45.6519V37.1543H37.438V45H33.5533V26.3125ZM53.9221 37.9287H58.6702L56.3343 30.5654L53.9221 37.9287ZM54.1634 26.2871H58.5813L65.2083 45H60.968L59.762 41.1533H52.8684L51.5735 45H47.4856L54.1634 26.2871ZM67.5625 35.7959C67.5625 32.529 68.4385 30.0111 70.1904 28.2422C71.7139 26.7018 73.652 25.9316 76.0049 25.9316C79.1533 25.9316 81.4554 26.9642 82.9111 29.0293C83.7152 30.1888 84.1468 31.3525 84.2061 32.5205H80.2959C80.042 31.6234 79.7161 30.9463 79.3184 30.4893C78.6074 29.6768 77.5537 29.2705 76.1572 29.2705C74.7354 29.2705 73.6139 29.846 72.793 30.9971C71.972 32.1396 71.5615 33.7604 71.5615 35.8594C71.5615 37.9583 71.9932 39.5326 72.8564 40.582C73.7282 41.623 74.8327 42.1436 76.1699 42.1436C77.541 42.1436 78.5863 41.695 79.3057 40.7979C79.7035 40.3154 80.0335 39.5918 80.2959 38.627H84.168C83.8294 40.6667 82.9619 42.3255 81.5654 43.6035C80.1774 44.8815 78.3958 45.5205 76.2207 45.5205C73.5293 45.5205 71.4134 44.6572 69.873 42.9307C68.3327 41.1956 67.5625 38.8174 67.5625 35.7959ZM101.782 29.6006H91.8796V33.5742H100.969V36.8242H91.8796V41.6357H102.239V45H88.0583V26.2871H101.782V29.6006ZM108.897 39.2236C109.015 40.0785 109.248 40.7174 109.595 41.1406C110.23 41.9108 111.317 42.2959 112.858 42.2959C113.78 42.2959 114.529 42.1943 115.105 41.9912C116.197 41.6019 116.743 40.8783 116.743 39.8203C116.743 39.2025 116.472 38.7243 115.93 38.3857C115.388 38.0557 114.538 37.7637 113.378 37.5098L111.398 37.0654C109.451 36.6253 108.106 36.1471 107.361 35.6309C106.1 34.7676 105.469 33.4176 105.469 31.5811C105.469 29.9053 106.079 28.513 107.297 27.4043C108.516 26.2956 110.306 25.7412 112.667 25.7412C114.639 25.7412 116.319 26.266 117.707 27.3154C119.104 28.3564 119.836 29.8714 119.904 31.8604H116.146C116.078 30.7347 115.587 29.9349 114.673 29.4609C114.064 29.1478 113.306 28.9912 112.401 28.9912C111.394 28.9912 110.59 29.1943 109.989 29.6006C109.388 30.0068 109.087 30.5739 109.087 31.3018C109.087 31.9704 109.384 32.4697 109.976 32.7998C110.357 33.0199 111.169 33.278 112.414 33.5742L115.638 34.3486C117.052 34.6872 118.118 35.14 118.837 35.707C119.955 36.5872 120.513 37.861 120.513 39.5283C120.513 41.238 119.857 42.6598 118.545 43.7939C117.242 44.9196 115.397 45.4824 113.01 45.4824C110.573 45.4824 108.656 44.9281 107.259 43.8193C105.863 42.7021 105.164 41.1702 105.164 39.2236H108.897Z" fill="#292929"></path> </svg> 