<?xml version="1.0" encoding="UTF-8"?> <svg xmlns="http://www.w3.org/2000/svg" width="63" height="63" viewBox="0 0 63 63" fill="none"> <rect width="63" height="63" fill="#E16844"></rect> <path d="M42.5156 42.5156C40.0856 42.5156 38.1094 44.4918 38.1094 46.9219C38.1094 49.3519 40.0856 51.3281 42.5156 51.3281C44.9457 51.3281 46.9219 49.3519 46.9219 46.9219C46.9219 44.4918 44.9457 42.5156 42.5156 42.5156ZM42.5156 49.8594C40.8956 49.8594 39.5781 48.5419 39.5781 46.9219C39.5781 45.3018 40.8956 43.9844 42.5156 43.9844C44.1357 43.9844 45.4531 45.3018 45.4531 46.9219C45.4531 48.5419 44.1357 49.8594 42.5156 49.8594Z" fill="#EF9C83"></path> <path d="M20.4844 42.5156C18.0543 42.5156 16.0781 44.4918 16.0781 46.9219C16.0781 49.3519 18.0543 51.3281 20.4844 51.3281C22.9144 51.3281 24.8906 49.3519 24.8906 46.9219C24.8906 44.4918 22.9144 42.5156 20.4844 42.5156ZM20.4844 49.8594C18.8643 49.8594 17.5469 48.5419 17.5469 46.9219C17.5469 45.3018 18.8643 43.9844 20.4844 43.9844C22.1044 43.9844 23.4219 45.3018 23.4219 46.9219C23.4219 48.5419 22.1044 49.8594 20.4844 49.8594Z" fill="#EF9C83"></path> <path d="M31.5 30.7656C30.2853 30.7656 29.2969 31.7541 29.2969 32.9688C29.2969 34.1834 30.2853 35.1719 31.5 35.1719C32.7147 35.1719 33.7031 34.1834 33.7031 32.9688C33.7031 31.7541 32.7147 30.7656 31.5 30.7656ZM31.5 33.7031C31.0954 33.7031 30.7656 33.3741 30.7656 32.9688C30.7656 32.5634 31.0954 32.2344 31.5 32.2344C31.9046 32.2344 32.2344 32.5634 32.2344 32.9688C32.2344 33.3741 31.9046 33.7031 31.5 33.7031Z" fill="#EF9C83"></path> <path d="M53.2537 51.1599L49.9982 49.8579C49.6486 49.7184 49.4672 49.3269 49.5759 48.9487C49.855 47.9735 49.9284 46.96 49.7948 45.9349C49.36 42.6096 46.5327 39.9431 43.073 39.5957C42.028 39.4907 41.0535 38.9605 40.3977 38.1417L40.2214 37.9214C39.8065 37.4029 39.5781 36.7515 39.5781 36.0869V35.0059C39.5781 34.4551 39.374 33.9286 39.0031 33.5217L37.867 32.2755L48.1439 16.3469C48.7857 15.3525 49.125 14.1988 49.125 13.0143C49.125 11.478 48.5272 10.0342 47.4411 8.94953L46.8661 8.37451L32.3431 26.2176L17.2076 9.61781C16.3352 8.66018 14.7856 8.46998 13.7054 9.18893L12.819 9.77937C12.1007 10.2589 11.6719 11.0609 11.6719 11.9237C11.6719 12.3658 11.7864 12.8021 12.0031 13.1876L24.295 35.0397C24.4111 35.2453 24.5477 35.434 24.6967 35.6103L22.5964 38.1901C21.9546 38.9781 21.0058 39.4885 19.9945 39.5891C16.5327 39.9343 13.6819 42.5677 13.2163 45.8511C12.8814 48.2144 13.6591 50.5174 15.3482 52.1704C16.7405 53.532 18.561 54.2656 20.4792 54.2656C20.8905 54.2656 21.3061 54.2318 21.7225 54.1628C22.9174 53.966 24.0593 53.4593 25.0235 52.6977C25.3202 52.4627 25.7418 52.4825 26.0032 52.7447L26.8521 53.5929C27.2854 54.0277 27.8612 54.2656 28.4736 54.2656C29.7375 54.2656 30.7656 53.2375 30.7656 51.9736C30.7656 51.381 30.5527 50.8082 30.1664 50.3595L28.4494 48.3686C27.9647 47.8053 27.8413 47.1165 27.823 46.6377C27.7752 45.3922 27.4088 44.1724 26.7625 43.1105C26.2705 42.3019 26.3351 41.1027 26.9065 40.4351L27.5814 39.6479C28.4193 38.6704 29.6384 38.1094 30.9272 38.1094H32.9027C32.9247 38.1094 32.9453 38.1057 32.9673 38.105C34.1136 38.5889 35.1454 39.3292 35.9643 40.2853L36.0913 40.4322C36.648 41.0821 36.7596 42.2909 36.3256 42.9687C35.39 44.4316 35.0044 46.1992 35.2416 47.9456C35.6727 51.1225 38.1821 53.6833 41.3443 54.1738C41.7313 54.2348 42.1257 54.2656 42.5156 54.2656H52.6559C53.5437 54.2656 54.2656 53.5437 54.2656 52.6559C54.2656 51.9927 53.8683 51.4052 53.2537 51.1599ZM46.9285 10.6239C47.4014 11.3245 47.6562 12.1499 47.6562 13.0143C47.6562 13.9168 47.3977 14.7937 46.9087 15.5516L36.8433 31.1534L33.3433 27.3148L46.9285 10.6239ZM17.104 11.6843L17.8649 12.5186L16.988 13.3954L16.3102 12.4782L17.104 11.6843ZM18.8555 13.6047L19.6163 14.439L18.5486 15.5068L17.8707 14.5895L18.8555 13.6047ZM20.6063 15.5259L21.3671 16.3601L20.1091 17.6188L19.4313 16.7016L20.6063 15.5259ZM22.3578 17.4462L23.1186 18.2805L21.6697 19.7294L20.9918 18.8122L22.3578 17.4462ZM24.1093 19.3674L24.8701 20.2016L23.2302 21.8407L22.5524 20.9235L24.1093 19.3674ZM25.86 21.2878L26.6208 22.122L24.7908 23.9521L24.1129 23.0348L25.86 21.2878ZM27.6115 23.2082L28.3723 24.0424L26.5173 25.8982C26.2008 25.6955 25.9136 25.4458 25.6786 25.141L27.6115 23.2082ZM29.363 25.1293L30.0731 25.9077C29.4841 26.2881 28.785 26.471 28.0697 26.4225L29.363 25.1293ZM26.4666 38.6925L25.7917 39.4797C24.8062 40.629 24.6835 42.5185 25.5075 43.8727C26.0245 44.7217 26.3175 45.6962 26.355 46.6927C26.3939 47.7165 26.7339 48.6271 27.3368 49.3269L29.0531 51.3178C29.2102 51.5 29.2969 51.7335 29.2969 51.9736C29.2969 52.4275 28.9275 52.7969 28.4736 52.7969C28.2533 52.7969 28.047 52.7117 27.8913 52.556L27.0431 51.7078C26.2558 50.9205 24.9964 50.8493 24.1144 51.5462C23.3448 52.1543 22.4356 52.5589 21.4853 52.7153C19.5928 53.0238 17.729 52.4451 16.3763 51.1218C15.0236 49.7984 14.4023 47.9537 14.6711 46.0582C15.0427 43.4358 17.3435 41.3296 20.1407 41.0513C21.5389 40.9117 22.8498 40.2067 23.7362 39.1169L25.8512 36.5187C26.1758 36.681 26.5239 36.8 26.8925 36.8617L28.5654 37.1407C27.7672 37.491 27.0468 38.0146 26.4666 38.6925ZM52.6559 52.7969H42.5156C42.2013 52.7969 41.8833 52.7719 41.5698 52.7227C39.045 52.3313 37.0409 50.286 36.6964 47.748C36.5033 46.3263 36.8037 44.9479 37.5623 43.7604C38.3436 42.5398 38.1843 40.618 37.2054 39.4753L37.0783 39.3284C35.6228 37.6298 33.6055 36.4915 31.3994 36.1243L27.1319 35.4127C26.471 35.3033 25.9033 34.9053 25.5743 34.32L13.2831 12.4672C13.1898 12.3012 13.1406 12.1139 13.1406 11.9237C13.1406 11.5522 13.325 11.207 13.6341 11.0014L14.5198 10.4109C14.7239 10.2751 14.9611 10.2031 15.2064 10.2031C15.5494 10.2031 15.8784 10.3485 16.1126 10.5989L14.3773 12.3335L24.4537 25.9672C25.2798 27.0842 26.5474 27.7848 27.9331 27.8876C28.0521 27.8964 28.1711 27.9008 28.2893 27.9008C29.2917 27.9008 30.2611 27.5806 31.0689 26.9997L37.9184 34.5117C38.0411 34.6475 38.1094 34.8223 38.1094 35.0059V36.0869C38.1094 37.0842 38.4523 38.0616 39.0743 38.8386L39.2499 39.0589C40.1509 40.1847 41.4904 40.9132 42.9254 41.0579C45.7146 41.3377 47.9904 43.4688 48.3377 46.1258C48.4457 46.9498 48.387 47.7627 48.1637 48.5441C47.8465 49.6501 48.4002 50.8008 49.4518 51.2216L52.708 52.5237C52.7616 52.545 52.7961 52.5971 52.7961 52.6551C52.7969 52.7337 52.7337 52.7969 52.6559 52.7969Z" fill="#EF9C83"></path> </svg> 