<?xml version="1.0" encoding="UTF-8"?> <svg xmlns="http://www.w3.org/2000/svg" width="1126" height="40" viewBox="0 0 1126 40" fill="none"> <path d="M20.3 10.4H20.8V9.9H20.3V10.4ZM20.3 30V30.5H20.8V30H20.3ZM15.792 30H15.292V30.5H15.792V30ZM15.792 14.096H16.292V13.596H15.792V14.096ZM6.944 14.096V13.596H6.444V14.096H6.944ZM6.944 30V30.5H7.444V30H6.944ZM2.436 30H1.936V30.5H2.436V30ZM2.436 10.4V9.9H1.936V10.4H2.436ZM19.8 10.4V30H20.8V10.4H19.8ZM20.3 29.5H15.792V30.5H20.3V29.5ZM16.292 30V14.096H15.292V30H16.292ZM15.792 13.596H6.944V14.596H15.792V13.596ZM6.444 14.096V30H7.444V14.096H6.444ZM6.944 29.5H2.436V30.5H6.944V29.5ZM2.936 30V10.4H1.936V30H2.936ZM2.436 10.9H20.3V9.9H2.436V10.9ZM40.1107 11.268L39.9032 11.723L39.9057 11.7241L40.1107 11.268ZM43.0787 21.292L43.4981 21.5642L43.5002 21.5609L43.0787 21.292ZM40.1107 23.756L40.3125 24.2135L40.3156 24.2121L40.1107 23.756ZM31.6547 24.596V24.096H31.1547V24.596H31.6547ZM31.6547 30V30.5H32.1547V30H31.6547ZM27.1187 30H26.6187V30.5H27.1187V30ZM27.1187 10.4V9.9H26.6187V10.4H27.1187ZM38.4587 20.032L38.7748 20.4195L38.7807 20.4145L38.4587 20.032ZM38.4587 14.992L38.1365 15.3745L38.1426 15.3794L38.4587 14.992ZM31.6547 14.096V13.596H31.1547V14.096H31.6547ZM31.6547 20.9H31.1547V21.4H31.6547V20.9ZM35.6027 10.9C37.2841 10.9 38.7129 11.1803 39.9032 11.723L40.3181 10.813C38.9697 10.1984 37.3932 9.9 35.6027 9.9V10.9ZM39.9057 11.7241C41.1163 12.268 42.0267 13.0298 42.6593 14.0042L43.498 13.4598C42.7492 12.3062 41.681 11.4254 40.3156 10.8119L39.9057 11.7241ZM42.6593 14.0042C43.2899 14.9757 43.6147 16.138 43.6147 17.512H44.6147C44.6147 15.974 44.2488 14.6163 43.498 13.4598L42.6593 14.0042ZM43.6147 17.512C43.6147 18.8658 43.2906 20.0301 42.6571 21.0231L43.5002 21.5609C44.2481 20.3886 44.6147 19.0329 44.6147 17.512H43.6147ZM42.6593 21.0198C42.0267 21.9942 41.1163 22.756 39.9057 23.2999L40.3156 24.2121C41.681 23.5986 42.7492 22.7178 43.498 21.5642L42.6593 21.0198ZM39.9088 23.2985C38.7169 23.8244 37.2861 24.096 35.6027 24.096V25.096C37.3912 25.096 38.9657 24.8076 40.3125 24.2135L39.9088 23.2985ZM35.6027 24.096H31.6547V25.096H35.6027V24.096ZM31.1547 24.596V30H32.1547V24.596H31.1547ZM31.6547 29.5H27.1187V30.5H31.6547V29.5ZM27.6187 30V10.4H26.6187V30H27.6187ZM27.1187 10.9H35.6027V9.9H27.1187V10.9ZM35.3507 21.4C36.7743 21.4 37.9416 21.099 38.7747 20.4194L38.1426 19.6446C37.557 20.1223 36.6523 20.4 35.3507 20.4V21.4ZM38.7807 20.4145C39.6223 19.7058 40.0227 18.7147 40.0227 17.512H39.0227C39.0227 18.4746 38.7137 19.1636 38.1366 19.6495L38.7807 20.4145ZM40.0227 17.512C40.0227 16.2942 39.6243 15.2976 38.7747 14.6046L38.1426 15.3794C38.7117 15.8437 39.0227 16.5271 39.0227 17.512H40.0227ZM38.7807 14.6095C37.9472 13.9077 36.7774 13.596 35.3507 13.596V14.596C36.6493 14.596 37.5514 14.8817 38.1366 15.3745L38.7807 14.6095ZM35.3507 13.596H31.6547V14.596H35.3507V13.596ZM31.1547 14.096V20.9H32.1547V14.096H31.1547ZM31.6547 21.4H35.3507V20.4H31.6547V21.4ZM53.1764 29.02L52.9387 29.4599L52.9408 29.461L53.1764 29.02ZM49.3404 25.408L48.9098 25.6622L48.9135 25.6683L49.3404 25.408ZM49.3404 15.02L48.9121 14.762L48.9112 14.7635L49.3404 15.02ZM53.1764 11.38L52.9408 10.939L52.9387 10.9401L53.1764 11.38ZM68.0164 15.02L67.5881 15.278L67.5895 15.2803L68.0164 15.02ZM68.0164 25.408L68.4433 25.6683L68.4447 25.666L68.0164 25.408ZM64.1804 29.02L64.418 29.4599L64.1804 29.02ZM61.8284 25.688L62.0727 26.1243L62.0792 26.1205L61.8284 25.688ZM64.0124 23.448L63.5777 23.2008L63.5741 23.2074L64.0124 23.448ZM64.0124 16.952L63.574 17.1927L63.5777 17.1992L64.0124 16.952ZM61.8284 14.74L61.5775 15.1726L61.5841 15.1763L61.8284 14.74ZM55.5564 14.74L55.8007 15.1763L55.8072 15.1725L55.5564 14.74ZM53.3444 16.952L52.9097 16.7048L52.9061 16.7114L53.3444 16.952ZM53.3444 23.448L52.906 23.6887L52.9097 23.6952L53.3444 23.448ZM55.5564 25.688L55.3055 26.1206L55.3121 26.1243L55.5564 25.688ZM58.6924 29.836C56.7321 29.836 54.9756 29.4141 53.4119 28.579L52.9408 29.461C54.6625 30.3806 56.5833 30.836 58.6924 30.836V29.836ZM53.414 28.5801C51.8655 27.7435 50.6531 26.6005 49.7673 25.1477L48.9135 25.6683C49.8943 27.2768 51.2393 28.5418 52.9387 29.4599L53.414 28.5801ZM49.7709 25.1538C48.9049 23.6868 48.4684 22.0396 48.4684 20.2H47.4684C47.4684 22.2057 47.9466 24.0306 48.9098 25.6622L49.7709 25.1538ZM48.4684 20.2C48.4684 18.3603 48.9049 16.7236 49.7696 15.2765L48.9112 14.7635C47.9466 16.3778 47.4684 18.1943 47.4684 20.2H48.4684ZM49.7687 15.278C50.6549 13.8069 51.867 12.6557 53.414 11.8199L52.9387 10.9401C51.2377 11.859 49.8925 13.1344 48.9121 14.762L49.7687 15.278ZM53.4119 11.821C54.9756 10.9859 56.7321 10.564 58.6924 10.564V9.564C56.5833 9.564 54.6625 10.0194 52.9408 10.939L53.4119 11.821ZM58.6924 10.564C60.6527 10.564 62.399 10.9859 63.9427 11.8199L64.418 10.9401C62.7138 10.0194 60.8014 9.564 58.6924 9.564V10.564ZM63.9427 11.8199C65.4897 12.6557 66.7019 13.8069 67.5881 15.278L68.4447 14.762C67.4642 13.1344 66.119 11.859 64.418 10.9401L63.9427 11.8199ZM67.5895 15.2803C68.4715 16.7269 68.9164 18.3623 68.9164 20.2H69.9164C69.9164 18.1924 69.4279 16.3745 68.4433 14.7597L67.5895 15.2803ZM68.9164 20.2C68.9164 22.0377 68.4715 23.6835 67.5881 25.15L68.4447 25.666C69.4279 24.0338 69.9164 22.2076 69.9164 20.2H68.9164ZM67.5895 25.1477C66.7036 26.6005 65.4913 27.7435 63.9427 28.5801L64.418 29.4599C66.1175 28.5418 67.4625 27.2768 68.4433 25.6683L67.5895 25.1477ZM63.9427 28.5801C62.399 29.4141 60.6527 29.836 58.6924 29.836V30.836C60.8014 30.836 62.7138 30.3806 64.418 29.4599L63.9427 28.5801ZM58.6924 26.972C59.928 26.972 61.0587 26.6921 62.0727 26.1243L61.5841 25.2517C60.7314 25.7292 59.7714 25.972 58.6924 25.972V26.972ZM62.0792 26.1205C63.0919 25.5332 63.8845 24.7199 64.4507 23.6886L63.5741 23.2074C63.0949 24.0801 62.4315 24.7602 61.5775 25.2555L62.0792 26.1205ZM64.447 23.6952C65.0357 22.6599 65.3244 21.4904 65.3244 20.2H64.3244C64.3244 21.3363 64.0717 22.3321 63.5777 23.2008L64.447 23.6952ZM65.3244 20.2C65.3244 18.9096 65.0357 17.7401 64.447 16.7048L63.5777 17.1992C64.0717 18.0679 64.3244 19.0637 64.3244 20.2H65.3244ZM64.4507 16.7114C63.8837 15.6786 63.089 14.8729 62.0727 14.3037L61.5841 15.1763C62.4344 15.6524 63.0958 16.3214 63.5741 17.1926L64.4507 16.7114ZM62.0792 14.3075C61.0642 13.7187 59.9312 13.428 58.6924 13.428V14.428C59.7682 14.428 60.7259 14.6786 61.5775 15.1725L62.0792 14.3075ZM58.6924 13.428C57.4536 13.428 56.3206 13.7187 55.3055 14.3075L55.8072 15.1725C56.6588 14.6786 57.6165 14.428 58.6924 14.428V13.428ZM55.3121 14.3037C54.2973 14.872 53.495 15.6756 52.9097 16.7048L53.779 17.1992C54.2764 16.3244 54.9488 15.6533 55.8007 15.1763L55.3121 14.3037ZM52.9061 16.7114C52.3384 17.7454 52.0604 18.9126 52.0604 20.2H53.0604C53.0604 19.0607 53.3051 18.0626 53.7827 17.1926L52.9061 16.7114ZM52.0604 20.2C52.0604 21.4874 52.3384 22.6546 52.9061 23.6886L53.7827 23.2074C53.3051 22.3374 53.0604 21.3392 53.0604 20.2H52.0604ZM52.9097 23.6952C53.4941 24.7229 54.2944 25.5341 55.3055 26.1205L55.8072 25.2555C54.9517 24.7593 54.2773 24.0771 53.779 23.2008L52.9097 23.6952ZM55.3121 26.1243C56.3261 26.6921 57.4567 26.972 58.6924 26.972V25.972C57.6134 25.972 56.6533 25.7292 55.8007 25.2517L55.3121 26.1243ZM78.7067 29.048L78.4669 29.4868L78.473 29.49L78.7067 29.048ZM74.8987 25.436L74.4681 25.6902L74.4718 25.6963L74.8987 25.436ZM74.8987 14.992L74.4704 14.734L74.4695 14.7355L74.8987 14.992ZM78.7067 11.38L78.9425 11.8209L78.9443 11.8199L78.7067 11.38ZM88.7587 10.96L88.5579 11.4179L88.5602 11.4189L88.7587 10.96ZM92.2307 13.536L92.5698 13.9034L92.9191 13.581L92.6148 13.2159L92.2307 13.536ZM89.3187 16.224L88.9407 16.5513L89.2786 16.9415L89.6578 16.5914L89.3187 16.224ZM81.1427 14.74L81.3833 15.1783L81.3898 15.1746L81.1427 14.74ZM78.9027 16.952L78.468 16.7048L78.4644 16.7114L78.9027 16.952ZM78.9027 23.448L78.4643 23.6887L78.468 23.6952L78.9027 23.448ZM81.1427 25.688L80.8955 26.1227L80.9021 26.1263L81.1427 25.688ZM89.3187 24.148L89.6578 23.7806L89.2763 23.4284L88.9387 23.823L89.3187 24.148ZM92.2307 26.836L92.6174 27.153L92.9162 26.7884L92.5698 26.4686L92.2307 26.836ZM88.7587 29.44L88.5602 28.9811L88.7587 29.44ZM84.1387 29.836C82.2155 29.836 80.4862 29.4233 78.9404 28.606L78.473 29.49C80.1752 30.39 82.0672 30.836 84.1387 30.836V29.836ZM78.9465 28.6092C77.4164 27.7731 76.2123 26.6299 75.3256 25.1757L74.4718 25.6963C75.4517 27.3034 76.7863 28.5683 78.4669 29.4868L78.9465 28.6092ZM75.3293 25.1818C74.4636 23.7155 74.0267 22.0592 74.0267 20.2H73.0267C73.0267 22.2234 73.5044 24.0578 74.4681 25.6902L75.3293 25.1818ZM74.0267 20.2C74.0267 18.3407 74.4636 16.6948 75.3279 15.2485L74.4695 14.7355C73.5044 16.3505 73.0267 18.1766 73.0267 20.2H74.0267ZM75.327 15.25C76.2135 13.7784 77.4161 12.6373 78.9425 11.8209L78.4709 10.9391C76.7866 11.84 75.4505 13.1069 74.4704 14.734L75.327 15.25ZM78.9443 11.8199C80.4887 10.9856 82.2258 10.564 84.1667 10.564V9.564C82.0755 9.564 80.1726 10.0198 78.469 10.9401L78.9443 11.8199ZM84.1667 10.564C85.806 10.564 87.2669 10.852 88.5579 11.4179L88.9594 10.5021C87.5251 9.87332 85.9247 9.564 84.1667 9.564V10.564ZM88.5602 11.4189C89.8721 11.9862 90.965 12.7983 91.8466 13.8561L92.6148 13.2159C91.6297 12.0337 90.408 11.1285 88.9571 10.5011L88.5602 11.4189ZM91.8915 13.1686L88.9795 15.8566L89.6578 16.5914L92.5698 13.9034L91.8915 13.1686ZM89.6967 15.8967C88.28 14.2605 86.5012 13.428 84.3907 13.428V14.428C86.2002 14.428 87.7067 15.1262 88.9407 16.5513L89.6967 15.8967ZM84.3907 13.428C83.1003 13.428 81.9308 13.7167 80.8955 14.3054L81.3898 15.1746C82.2586 14.6806 83.2544 14.428 84.3907 14.428V13.428ZM80.9021 14.3017C79.8682 14.8693 79.0547 15.6731 78.468 16.7048L79.3373 17.1992C79.8333 16.3269 80.5131 15.656 81.3833 15.1783L80.9021 14.3017ZM78.4644 16.7114C77.8967 17.7454 77.6187 18.9126 77.6187 20.2H78.6187C78.6187 19.0607 78.8634 18.0626 79.341 17.1926L78.4644 16.7114ZM77.6187 20.2C77.6187 21.4874 77.8967 22.6546 78.4644 23.6886L79.341 23.2074C78.8634 22.3374 78.6187 21.3392 78.6187 20.2H77.6187ZM78.468 23.6952C79.0539 24.7254 79.8653 25.5368 80.8955 26.1226L81.3898 25.2534C80.5161 24.7565 79.8342 24.0746 79.3373 23.2008L78.468 23.6952ZM80.9021 26.1263C81.9361 26.694 83.1033 26.972 84.3907 26.972V25.972C83.2514 25.972 82.2532 25.7273 81.3833 25.2497L80.9021 26.1263ZM84.3907 26.972C86.5034 26.972 88.2827 26.1283 89.6986 24.473L88.9387 23.823C87.704 25.2664 86.1979 25.972 84.3907 25.972V26.972ZM88.9795 24.5154L91.8915 27.2034L92.5698 26.4686L89.6578 23.7806L88.9795 24.5154ZM91.844 26.519C90.9623 27.5946 89.8701 28.4146 88.5602 28.9811L88.9571 29.8989C90.41 29.2707 91.6324 28.3547 92.6174 27.153L91.844 26.519ZM88.5602 28.9811C87.2491 29.548 85.7779 29.836 84.1387 29.836V30.836C85.8968 30.836 87.5056 30.5266 88.9571 29.8989L88.5602 28.9811ZM111.936 14.096V14.596H112.436V14.096H111.936ZM105.664 14.096V13.596H105.164V14.096H105.664ZM105.664 30V30.5H106.164V30H105.664ZM101.184 30H100.684V30.5H101.184V30ZM101.184 14.096H101.684V13.596H101.184V14.096ZM94.9397 14.096H94.4397V14.596H94.9397V14.096ZM94.9397 10.4V9.9H94.4397V10.4H94.9397ZM111.936 10.4H112.436V9.9H111.936V10.4ZM111.936 13.596H105.664V14.596H111.936V13.596ZM105.164 14.096V30H106.164V14.096H105.164ZM105.664 29.5H101.184V30.5H105.664V29.5ZM101.684 30V14.096H100.684V30H101.684ZM101.184 13.596H94.9397V14.596H101.184V13.596ZM95.4397 14.096V10.4H94.4397V14.096H95.4397ZM94.9397 10.9H111.936V9.9H94.9397V10.9ZM111.436 10.4V14.096H112.436V10.4H111.436ZM129.736 11.268L129.528 11.723L129.531 11.7241L129.736 11.268ZM132.704 21.292L133.123 21.5642L133.125 21.5609L132.704 21.292ZM129.736 23.756L129.938 24.2135L129.941 24.2121L129.736 23.756ZM121.28 24.596V24.096H120.78V24.596H121.28ZM121.28 30V30.5H121.78V30H121.28ZM116.744 30H116.244V30.5H116.744V30ZM116.744 10.4V9.9H116.244V10.4H116.744ZM128.084 20.032L128.4 20.4195L128.406 20.4145L128.084 20.032ZM128.084 14.992L127.762 15.3745L127.768 15.3794L128.084 14.992ZM121.28 14.096V13.596H120.78V14.096H121.28ZM121.28 20.9H120.78V21.4H121.28V20.9ZM125.228 10.9C126.909 10.9 128.338 11.1803 129.528 11.723L129.943 10.813C128.595 10.1984 127.018 9.9 125.228 9.9V10.9ZM129.531 11.7241C130.741 12.268 131.652 13.0298 132.284 14.0042L133.123 13.4598C132.374 12.3062 131.306 11.4254 129.941 10.8119L129.531 11.7241ZM132.284 14.0042C132.915 14.9757 133.24 16.138 133.24 17.512H134.24C134.24 15.974 133.874 14.6163 133.123 13.4598L132.284 14.0042ZM133.24 17.512C133.24 18.8658 132.916 20.0301 132.282 21.0231L133.125 21.5609C133.873 20.3886 134.24 19.0329 134.24 17.512H133.24ZM132.284 21.0198C131.652 21.9942 130.741 22.756 129.531 23.2999L129.941 24.2121C131.306 23.5986 132.374 22.7178 133.123 21.5642L132.284 21.0198ZM129.534 23.2985C128.342 23.8244 126.911 24.096 125.228 24.096V25.096C127.016 25.096 128.591 24.8076 129.938 24.2135L129.534 23.2985ZM125.228 24.096H121.28V25.096H125.228V24.096ZM120.78 24.596V30H121.78V24.596H120.78ZM121.28 29.5H116.744V30.5H121.28V29.5ZM117.244 30V10.4H116.244V30H117.244ZM116.744 10.9H125.228V9.9H116.744V10.9ZM124.976 21.4C126.399 21.4 127.567 21.099 128.4 20.4194L127.768 19.6446C127.182 20.1223 126.278 20.4 124.976 20.4V21.4ZM128.406 20.4145C129.247 19.7058 129.648 18.7147 129.648 17.512H128.648C128.648 18.4746 128.339 19.1636 127.762 19.6495L128.406 20.4145ZM129.648 17.512C129.648 16.2942 129.249 15.2976 128.4 14.6046L127.768 15.3794C128.337 15.8437 128.648 16.5271 128.648 17.512H129.648ZM128.406 14.6095C127.572 13.9077 126.403 13.596 124.976 13.596V14.596C126.274 14.596 127.177 14.8817 127.762 15.3745L128.406 14.6095ZM124.976 13.596H121.28V14.596H124.976V13.596ZM120.78 14.096V20.9H121.78V14.096H120.78ZM121.28 21.4H124.976V20.4H121.28V21.4ZM150.98 25.8L151.442 25.609L151.314 25.3H150.98V25.8ZM141.88 25.8V25.3H141.545L141.418 25.609L141.88 25.8ZM140.144 30V30.5H140.478L140.606 30.191L140.144 30ZM135.496 30L135.039 29.7964L134.725 30.5H135.496V30ZM144.232 10.4V9.9H143.907L143.775 10.1964L144.232 10.4ZM148.712 10.4L149.168 10.1959L149.036 9.9H148.712V10.4ZM157.476 30V30.5H158.247L157.932 29.7959L157.476 30ZM152.716 30L152.254 30.191L152.381 30.5H152.716V30ZM149.552 22.356V22.856H150.3L150.014 22.1647L149.552 22.356ZM146.444 14.852L146.906 14.6607L146.444 13.5453L145.982 14.6607L146.444 14.852ZM143.336 22.356L142.874 22.1647L142.587 22.856H143.336V22.356ZM150.98 25.3H141.88V26.3H150.98V25.3ZM141.418 25.609L139.682 29.809L140.606 30.191L142.342 25.991L141.418 25.609ZM140.144 29.5H135.496V30.5H140.144V29.5ZM135.952 30.2036L144.688 10.6036L143.775 10.1964L135.039 29.7964L135.952 30.2036ZM144.232 10.9H148.712V9.9H144.232V10.9ZM148.255 10.6041L157.019 30.2041L157.932 29.7959L149.168 10.1959L148.255 10.6041ZM157.476 29.5H152.716V30.5H157.476V29.5ZM153.178 29.809L151.442 25.609L150.518 25.991L152.254 30.191L153.178 29.809ZM150.014 22.1647L146.906 14.6607L145.982 15.0433L149.09 22.5473L150.014 22.1647ZM145.982 14.6607L142.874 22.1647L143.798 22.5473L146.906 15.0433L145.982 14.6607ZM143.336 22.856H149.552V21.856H143.336V22.856ZM180.011 10.4H180.511V9.9H180.011V10.4ZM180.011 30V30.5H180.511V30H180.011ZM175.475 30H174.975V30.5H175.475V30ZM175.475 21.964H175.975V21.464H175.475V21.964ZM166.571 21.964V21.464H166.071V21.964H166.571ZM166.571 30V30.5H167.071V30H166.571ZM162.035 30H161.535V30.5H162.035V30ZM162.035 10.4V9.9H161.535V10.4H162.035ZM166.571 10.4H167.071V9.9H166.571V10.4ZM166.571 18.128H166.071V18.628H166.571V18.128ZM175.475 18.128V18.628H175.975V18.128H175.475ZM175.475 10.4V9.9H174.975V10.4H175.475ZM179.511 10.4V30H180.511V10.4H179.511ZM180.011 29.5H175.475V30.5H180.011V29.5ZM175.975 30V21.964H174.975V30H175.975ZM175.475 21.464H166.571V22.464H175.475V21.464ZM166.071 21.964V30H167.071V21.964H166.071ZM166.571 29.5H162.035V30.5H166.571V29.5ZM162.535 30V10.4H161.535V30H162.535ZM162.035 10.9H166.571V9.9H162.035V10.9ZM166.071 10.4V18.128H167.071V10.4H166.071ZM166.571 18.628H175.475V17.628H166.571V18.628ZM175.975 18.128V10.4H174.975V18.128H175.975ZM175.475 10.9H180.011V9.9H175.475V10.9ZM190.718 29.048L190.478 29.4868L190.484 29.49L190.718 29.048ZM186.91 25.436L186.479 25.6902L186.483 25.6963L186.91 25.436ZM186.91 14.992L186.481 14.734L186.48 14.7355L186.91 14.992ZM190.718 11.38L190.953 11.8209L190.955 11.8199L190.718 11.38ZM200.77 10.96L200.569 11.4179L200.571 11.4189L200.77 10.96ZM204.242 13.536L204.581 13.9034L204.93 13.581L204.626 13.2159L204.242 13.536ZM201.33 16.224L200.952 16.5513L201.289 16.9415L201.669 16.5914L201.33 16.224ZM193.154 14.74L193.394 15.1783L193.401 15.1746L193.154 14.74ZM190.914 16.952L190.479 16.7048L190.475 16.7114L190.914 16.952ZM190.914 23.448L190.475 23.6887L190.479 23.6952L190.914 23.448ZM193.154 25.688L192.906 26.1227L192.913 26.1263L193.154 25.688ZM201.33 24.148L201.669 23.7806L201.287 23.4284L200.95 23.823L201.33 24.148ZM204.242 26.836L204.628 27.153L204.927 26.7884L204.581 26.4686L204.242 26.836ZM200.77 29.44L200.571 28.9811L200.77 29.44ZM196.15 29.836C194.226 29.836 192.497 29.4233 190.951 28.606L190.484 29.49C192.186 30.39 194.078 30.836 196.15 30.836V29.836ZM190.957 28.6092C189.427 27.7731 188.223 26.6299 187.337 25.1757L186.483 25.6963C187.463 27.3034 188.797 28.5683 190.478 29.4868L190.957 28.6092ZM187.34 25.1818C186.475 23.7155 186.038 22.0592 186.038 20.2H185.038C185.038 22.2234 185.515 24.0578 186.479 25.6902L187.34 25.1818ZM186.038 20.2C186.038 18.3407 186.475 16.6948 187.339 15.2485L186.48 14.7355C185.515 16.3505 185.038 18.1766 185.038 20.2H186.038ZM187.338 15.25C188.224 13.7784 189.427 12.6373 190.953 11.8209L190.482 10.9391C188.798 11.84 187.461 13.1069 186.481 14.734L187.338 15.25ZM190.955 11.8199C192.5 10.9856 194.237 10.564 196.178 10.564V9.564C194.086 9.564 192.184 10.0198 190.48 10.9401L190.955 11.8199ZM196.178 10.564C197.817 10.564 199.278 10.852 200.569 11.4179L200.97 10.5021C199.536 9.87332 197.936 9.564 196.178 9.564V10.564ZM200.571 11.4189C201.883 11.9862 202.976 12.7983 203.858 13.8561L204.626 13.2159C203.641 12.0337 202.419 11.1285 200.968 10.5011L200.571 11.4189ZM203.902 13.1686L200.99 15.8566L201.669 16.5914L204.581 13.9034L203.902 13.1686ZM201.708 15.8967C200.291 14.2605 198.512 13.428 196.402 13.428V14.428C198.211 14.428 199.718 15.1262 200.952 16.5513L201.708 15.8967ZM196.402 13.428C195.111 13.428 193.942 13.7167 192.906 14.3054L193.401 15.1746C194.27 14.6806 195.265 14.428 196.402 14.428V13.428ZM192.913 14.3017C191.879 14.8693 191.066 15.6731 190.479 16.7048L191.348 17.1992C191.844 16.3269 192.524 15.656 193.394 15.1783L192.913 14.3017ZM190.475 16.7114C189.908 17.7454 189.63 18.9126 189.63 20.2H190.63C190.63 19.0607 190.874 18.0626 191.352 17.1926L190.475 16.7114ZM189.63 20.2C189.63 21.4874 189.908 22.6546 190.475 23.6886L191.352 23.2074C190.874 22.3374 190.63 21.3392 190.63 20.2H189.63ZM190.479 23.6952C191.065 24.7254 191.876 25.5368 192.906 26.1226L193.401 25.2534C192.527 24.7565 191.845 24.0746 191.348 23.2008L190.479 23.6952ZM192.913 26.1263C193.947 26.694 195.114 26.972 196.402 26.972V25.972C195.262 25.972 194.264 25.7273 193.394 25.2497L192.913 26.1263ZM196.402 26.972C198.514 26.972 200.294 26.1283 201.71 24.473L200.95 23.823C199.715 25.2664 198.209 25.972 196.402 25.972V26.972ZM200.99 24.5154L203.902 27.2034L204.581 26.4686L201.669 23.7806L200.99 24.5154ZM203.855 26.519C202.973 27.5946 201.881 28.4146 200.571 28.9811L200.968 29.8989C202.421 29.2707 203.643 28.3547 204.628 27.153L203.855 26.519ZM200.571 28.9811C199.26 29.548 197.789 29.836 196.15 29.836V30.836C197.908 30.836 199.517 30.5266 200.968 29.8989L200.571 28.9811ZM223.947 14.096V14.596H224.447V14.096H223.947ZM217.675 14.096V13.596H217.175V14.096H217.675ZM217.675 30V30.5H218.175V30H217.675ZM213.195 30H212.695V30.5H213.195V30ZM213.195 14.096H213.695V13.596H213.195V14.096ZM206.951 14.096H206.451V14.596H206.951V14.096ZM206.951 10.4V9.9H206.451V10.4H206.951ZM223.947 10.4H224.447V9.9H223.947V10.4ZM223.947 13.596H217.675V14.596H223.947V13.596ZM217.175 14.096V30H218.175V14.096H217.175ZM217.675 29.5H213.195V30.5H217.675V29.5ZM213.695 30V14.096H212.695V30H213.695ZM213.195 13.596H206.951V14.596H213.195V13.596ZM207.451 14.096V10.4H206.451V14.096H207.451ZM206.951 10.9H223.947V9.9H206.951V10.9ZM223.447 10.4V14.096H224.447V10.4H223.447ZM242.335 19.78L242.115 19.3309L240.963 19.8944L242.192 20.2593L242.335 19.78ZM245.079 21.516L244.687 21.8261L244.687 21.8261L245.079 21.516ZM244.043 28.544L243.747 28.1406L243.745 28.1426L244.043 28.544ZM228.755 30H228.255V30.5H228.755V30ZM228.755 10.4V9.9H228.255V10.4H228.755ZM243.203 11.716L243.487 11.3047L243.487 11.3047L243.203 11.716ZM244.379 18.044L244.795 18.3214L244.798 18.3165L244.379 18.044ZM233.263 18.52H232.763V19.02H233.263V18.52ZM239.731 17.932L240.038 18.3268L240.047 18.3196L239.731 17.932ZM239.703 14.376L239.387 14.7637L239.394 14.7692L239.703 14.376ZM233.263 13.76V13.26H232.763V13.76H233.263ZM233.263 21.684V21.184H232.763V21.684H233.263ZM233.263 26.64H232.763V27.14H233.263V26.64ZM242.192 20.2593C243.31 20.5912 244.129 21.1205 244.687 21.8261L245.471 21.2059C244.76 20.3062 243.749 19.6782 242.477 19.3007L242.192 20.2593ZM244.687 21.8261C245.241 22.5276 245.531 23.4029 245.531 24.484H246.531C246.531 23.2131 246.186 22.1097 245.471 21.2059L244.687 21.8261ZM245.531 24.484C245.531 26.0712 244.936 27.2702 243.747 28.1406L244.338 28.9474C245.8 27.8764 246.531 26.3688 246.531 24.484H245.531ZM243.745 28.1426C242.558 29.0243 240.804 29.5 238.415 29.5V30.5C240.916 30.5 242.914 30.005 244.341 28.9454L243.745 28.1426ZM238.415 29.5H228.755V30.5H238.415V29.5ZM229.255 30V10.4H228.255V30H229.255ZM228.755 10.9H237.883V9.9H228.755V10.9ZM237.883 10.9C240.104 10.9 241.764 11.3292 242.918 12.1273L243.487 11.3047C242.103 10.3481 240.216 9.9 237.883 9.9V10.9ZM242.918 12.1273C244.045 12.9056 244.607 13.998 244.607 15.468H245.607C245.607 13.69 244.9 12.2811 243.487 11.3047L242.918 12.1273ZM244.607 15.468C244.607 16.351 244.387 17.1132 243.96 17.7715L244.798 18.3165C245.341 17.4814 245.607 16.5263 245.607 15.468H244.607ZM243.963 17.7666C243.532 18.4127 242.922 18.9358 242.115 19.3309L242.555 20.2291C243.502 19.7655 244.255 19.1313 244.795 18.3213L243.963 17.7666ZM233.263 19.02H237.491V18.02H233.263V19.02ZM237.491 19.02C238.534 19.02 239.409 18.8154 240.038 18.3267L239.424 17.5373C239.044 17.8326 238.426 18.02 237.491 18.02V19.02ZM240.047 18.3196C240.691 17.7943 240.987 17.0401 240.987 16.14H239.987C239.987 16.8079 239.778 17.2484 239.415 17.5444L240.047 18.3196ZM240.987 16.14C240.987 15.2475 240.674 14.5034 240.012 13.9828L239.394 14.7692C239.777 15.0699 239.987 15.5019 239.987 16.14H240.987ZM240.019 13.9884C239.391 13.4767 238.522 13.26 237.491 13.26V14.26C238.401 14.26 239.007 14.4539 239.387 14.7636L240.019 13.9884ZM237.491 13.26H233.263V14.26H237.491V13.26ZM232.763 13.76V18.52H233.763V13.76H232.763ZM238.247 27.14C239.363 27.14 240.293 26.922 240.951 26.4024C241.631 25.8651 241.939 25.0727 241.939 24.12H240.939C240.939 24.8473 240.714 25.3149 240.331 25.6176C239.925 25.938 239.258 26.14 238.247 26.14V27.14ZM241.939 24.12C241.939 23.1892 241.627 22.4166 240.944 21.8955C240.287 21.394 239.36 21.184 238.247 21.184V22.184C239.261 22.184 239.931 22.38 240.337 22.6905C240.719 22.9814 240.939 23.4268 240.939 24.12H241.939ZM238.247 21.184H233.263V22.184H238.247V21.184ZM232.763 21.684V26.64H233.763V21.684H232.763ZM233.263 27.14H238.247V26.14H233.263V27.14ZM255.414 29.02L255.176 29.4599L255.178 29.461L255.414 29.02ZM251.578 25.408L251.147 25.6622L251.151 25.6683L251.578 25.408ZM251.578 15.02L251.15 14.762L251.149 14.7635L251.578 15.02ZM255.414 11.38L255.178 10.939L255.176 10.9401L255.414 11.38ZM270.254 15.02L269.826 15.278L269.827 15.2803L270.254 15.02ZM270.254 25.408L270.681 25.6683L270.682 25.666L270.254 25.408ZM266.418 29.02L266.656 29.4599L266.418 29.02ZM264.066 25.688L264.31 26.1243L264.317 26.1205L264.066 25.688ZM266.25 23.448L265.815 23.2008L265.812 23.2074L266.25 23.448ZM266.25 16.952L265.812 17.1927L265.815 17.1992L266.25 16.952ZM264.066 14.74L263.815 15.1726L263.822 15.1763L264.066 14.74ZM257.794 14.74L258.038 15.1763L258.045 15.1725L257.794 14.74ZM255.582 16.952L255.147 16.7048L255.144 16.7114L255.582 16.952ZM255.582 23.448L255.144 23.6887L255.147 23.6952L255.582 23.448ZM257.794 25.688L257.543 26.1206L257.55 26.1243L257.794 25.688ZM260.93 29.836C258.97 29.836 257.213 29.4141 255.65 28.579L255.178 29.461C256.9 30.3806 258.821 30.836 260.93 30.836V29.836ZM255.652 28.5801C254.103 27.7435 252.891 26.6005 252.005 25.1477L251.151 25.6683C252.132 27.2768 253.477 28.5418 255.176 29.4599L255.652 28.5801ZM252.009 25.1538C251.143 23.6868 250.706 22.0396 250.706 20.2H249.706C249.706 22.2057 250.184 24.0306 251.147 25.6622L252.009 25.1538ZM250.706 20.2C250.706 18.3603 251.143 16.7236 252.007 15.2765L251.149 14.7635C250.184 16.3778 249.706 18.1943 249.706 20.2H250.706ZM252.006 15.278C252.893 13.8069 254.105 12.6557 255.652 11.8199L255.176 10.9401C253.475 11.859 252.13 13.1344 251.15 14.762L252.006 15.278ZM255.65 11.821C257.213 10.9859 258.97 10.564 260.93 10.564V9.564C258.821 9.564 256.9 10.0194 255.178 10.939L255.65 11.821ZM260.93 10.564C262.89 10.564 264.637 10.9859 266.18 11.8199L266.656 10.9401C264.951 10.0194 263.039 9.564 260.93 9.564V10.564ZM266.18 11.8199C267.727 12.6557 268.94 13.8069 269.826 15.278L270.682 14.762C269.702 13.1344 268.357 11.859 266.656 10.9401L266.18 11.8199ZM269.827 15.2803C270.709 16.7269 271.154 18.3623 271.154 20.2H272.154C272.154 18.1924 271.666 16.3745 270.681 14.7597L269.827 15.2803ZM271.154 20.2C271.154 22.0377 270.709 23.6835 269.826 25.15L270.682 25.666C271.666 24.0338 272.154 22.2076 272.154 20.2H271.154ZM269.827 25.1477C268.941 26.6005 267.729 27.7435 266.18 28.5801L266.656 29.4599C268.355 28.5418 269.7 27.2768 270.681 25.6683L269.827 25.1477ZM266.18 28.5801C264.637 29.4141 262.89 29.836 260.93 29.836V30.836C263.039 30.836 264.951 30.3806 266.656 29.4599L266.18 28.5801ZM260.93 26.972C262.166 26.972 263.296 26.6921 264.31 26.1243L263.822 25.2517C262.969 25.7292 262.009 25.972 260.93 25.972V26.972ZM264.317 26.1205C265.33 25.5332 266.122 24.7199 266.688 23.6886L265.812 23.2074C265.333 24.0801 264.669 24.7602 263.815 25.2555L264.317 26.1205ZM266.685 23.6952C267.273 22.6599 267.562 21.4904 267.562 20.2H266.562C266.562 21.3363 266.309 22.3321 265.815 23.2008L266.685 23.6952ZM267.562 20.2C267.562 18.9096 267.273 17.7401 266.685 16.7048L265.815 17.1992C266.309 18.0679 266.562 19.0637 266.562 20.2H267.562ZM266.688 16.7114C266.121 15.6786 265.327 14.8729 264.31 14.3037L263.822 15.1763C264.672 15.6524 265.333 16.3214 265.812 17.1926L266.688 16.7114ZM264.317 14.3075C263.302 13.7187 262.169 13.428 260.93 13.428V14.428C262.006 14.428 262.964 14.6786 263.815 15.1725L264.317 14.3075ZM260.93 13.428C259.691 13.428 258.558 13.7187 257.543 14.3075L258.045 15.1725C258.896 14.6786 259.854 14.428 260.93 14.428V13.428ZM257.55 14.3037C256.535 14.872 255.733 15.6756 255.147 16.7048L256.017 17.1992C256.514 16.3244 257.186 15.6533 258.038 15.1763L257.55 14.3037ZM255.144 16.7114C254.576 17.7454 254.298 18.9126 254.298 20.2H255.298C255.298 19.0607 255.543 18.0626 256.02 17.1926L255.144 16.7114ZM254.298 20.2C254.298 21.4874 254.576 22.6546 255.144 23.6886L256.02 23.2074C255.543 22.3374 255.298 21.3392 255.298 20.2H254.298ZM255.147 23.6952C255.732 24.7229 256.532 25.5341 257.543 26.1205L258.045 25.2555C257.189 24.7593 256.515 24.0771 256.017 23.2008L255.147 23.6952ZM257.55 26.1243C258.564 26.6921 259.694 26.972 260.93 26.972V25.972C259.851 25.972 258.891 25.7292 258.038 25.2517L257.55 26.1243ZM307.214 26.304H307.714V25.804H307.214V26.304ZM307.214 34.06V34.56H307.714V34.06H307.214ZM303.014 34.06H302.514V34.56H303.014V34.06ZM303.014 30H303.514V29.5H303.014V30ZM289.182 30V29.5H288.682V30H289.182ZM289.182 34.06V34.56H289.682V34.06H289.182ZM284.982 34.06L284.482 34.0582L284.48 34.56H284.982V34.06ZM285.01 26.304V25.804H284.512L284.51 26.3022L285.01 26.304ZM285.794 26.304V26.804H285.802L285.81 26.8037L285.794 26.304ZM288.286 23.728L287.806 23.5892L287.806 23.5892L288.286 23.728ZM289.182 16.532L288.682 16.5137L288.682 16.514L289.182 16.532ZM289.406 10.4V9.9H288.924L288.906 10.3817L289.406 10.4ZM304.47 10.4H304.97V9.9H304.47V10.4ZM304.47 26.304H303.97V26.804H304.47V26.304ZM293.186 16.952L293.686 16.972L293.686 16.9667L293.186 16.952ZM292.598 22.832L293.089 22.9256L293.089 22.9245L292.598 22.832ZM291.226 26.304L290.84 25.9858L290.165 26.804H291.226V26.304ZM299.99 26.304V26.804H300.49V26.304H299.99ZM299.99 14.096H300.49V13.596H299.99V14.096ZM293.27 14.096V13.596H292.785L292.77 14.0813L293.27 14.096ZM306.714 26.304V34.06H307.714V26.304H306.714ZM307.214 33.56H303.014V34.56H307.214V33.56ZM303.514 34.06V30H302.514V34.06H303.514ZM303.014 29.5H289.182V30.5H303.014V29.5ZM288.682 30V34.06H289.682V30H288.682ZM289.182 33.56H284.982V34.56H289.182V33.56ZM285.482 34.0618L285.51 26.3058L284.51 26.3022L284.482 34.0582L285.482 34.0618ZM285.01 26.804H285.794V25.804H285.01V26.804ZM285.81 26.8037C286.53 26.7809 287.154 26.5008 287.658 25.9796C288.151 25.4707 288.511 24.7515 288.766 23.8668L287.806 23.5892C287.576 24.3845 287.278 24.9346 286.94 25.2844C286.613 25.6219 286.234 25.7898 285.778 25.8043L285.81 26.8037ZM288.766 23.8668C289.269 22.1282 289.569 19.6816 289.682 16.55L288.682 16.514C288.571 19.617 288.274 21.9678 287.806 23.5892L288.766 23.8668ZM289.682 16.5503L289.906 10.4183L288.906 10.3817L288.682 16.5137L289.682 16.5503ZM289.406 10.9H304.47V9.9H289.406V10.9ZM303.97 10.4V26.304H304.97V10.4H303.97ZM304.47 26.804H307.214V25.804H304.47V26.804ZM292.686 16.932C292.594 19.2507 292.399 21.1847 292.107 22.7395L293.089 22.9245C293.394 21.3059 293.592 19.3199 293.686 16.972L292.686 16.932ZM292.107 22.7384C291.815 24.2714 291.379 25.3331 290.84 25.9858L291.612 26.6222C292.305 25.7815 292.784 24.5286 293.089 22.9256L292.107 22.7384ZM291.226 26.804H299.99V25.804H291.226V26.804ZM300.49 26.304V14.096H299.49V26.304H300.49ZM299.99 13.596H293.27V14.596H299.99V13.596ZM292.77 14.0813L292.686 16.9373L293.686 16.9667L293.77 14.1107L292.77 14.0813ZM329.7 10.4H330.2V9.9H329.7V10.4ZM329.7 30V30.5H330.2V30H329.7ZM325.22 30H324.72V30.5H325.22V30ZM325.22 14.096H325.72V13.596H325.22V14.096ZM318.5 14.096V13.596H318.016L318 14.0789L318.5 14.096ZM318.36 18.184L317.86 18.1669L317.86 18.1672L318.36 18.184ZM317.688 24.96L318.177 25.0611L318.177 25.0601L317.688 24.96ZM315.896 28.936L315.524 28.6015L315.524 28.6019L315.896 28.936ZM310.184 30L309.685 29.9636L309.654 30.3895L310.07 30.4868L310.184 30ZM310.464 26.164L310.611 25.6861L310.011 25.5015L309.965 26.1276L310.464 26.164ZM313.544 24.372L314.017 24.5322L314.018 24.5301L313.544 24.372ZM314.356 18.352L314.855 18.3725L314.855 18.3696L314.356 18.352ZM314.636 10.4V9.9H314.153L314.136 10.3824L314.636 10.4ZM329.2 10.4V30H330.2V10.4H329.2ZM329.7 29.5H325.22V30.5H329.7V29.5ZM325.72 30V14.096H324.72V30H325.72ZM325.22 13.596H318.5V14.596H325.22V13.596ZM318 14.0789L317.86 18.1669L318.859 18.2011L318.999 14.1131L318 14.0789ZM317.86 18.1672C317.767 20.9344 317.545 23.1623 317.198 24.8599L318.177 25.0601C318.54 23.2857 318.765 20.9962 318.859 18.2008L317.86 18.1672ZM317.198 24.8589C316.854 26.5221 316.286 27.7552 315.524 28.6015L316.267 29.2705C317.186 28.2501 317.811 26.8325 318.177 25.0611L317.198 24.8589ZM315.524 28.6019C314.817 29.3887 313.808 29.808 312.424 29.808V30.808C314.026 30.808 315.331 30.3127 316.268 29.2701L315.524 28.6019ZM312.424 29.808C311.859 29.808 311.153 29.7134 310.298 29.5132L310.07 30.4868C310.969 30.6973 311.756 30.808 312.424 30.808V29.808ZM310.682 30.0364L310.962 26.2004L309.965 26.1276L309.685 29.9636L310.682 30.0364ZM310.317 26.6419C310.614 26.7335 310.936 26.776 311.276 26.776V25.776C311.018 25.776 310.798 25.7438 310.611 25.6861L310.317 26.6419ZM311.276 26.776C311.922 26.776 312.499 26.5834 312.976 26.1829C313.445 25.7892 313.783 25.2237 314.017 24.5322L313.07 24.2118C312.874 24.7896 312.62 25.1761 312.333 25.4171C312.054 25.6513 311.712 25.776 311.276 25.776V26.776ZM314.018 24.5301C314.47 23.1725 314.743 21.1075 314.855 18.3725L313.856 18.3315C313.744 21.0472 313.475 22.9955 313.069 24.2139L314.018 24.5301ZM314.855 18.3696L315.135 10.4176L314.136 10.3824L313.856 18.3344L314.855 18.3696ZM314.636 10.9H329.7V9.9H314.636V10.9ZM352.207 10.4H352.707V9.9H352.207V10.4ZM352.207 30V30.5H352.707V30H352.207ZM347.727 30H347.227V30.5H347.727V30ZM347.727 24.792H348.227V24.292H347.727V24.792ZM343.583 24.792V24.292H343.315L343.167 24.5146L343.583 24.792ZM340.111 30V30.5H340.378L340.527 30.2774L340.111 30ZM335.323 30L334.912 29.7155L334.369 30.5H335.323V30ZM339.411 24.092L339.822 24.3765L340.176 23.8645L339.6 23.6291L339.411 24.092ZM336.359 21.656L335.938 21.9267L335.941 21.93L336.359 21.656ZM336.331 13.816L336.752 14.0849L336.754 14.0816L336.331 13.816ZM339.271 11.296L339.478 11.751L339.484 11.7484L339.271 11.296ZM340.895 14.992L340.568 14.6138L340.563 14.6183L340.895 14.992ZM340.867 20.284L340.524 20.6478L340.524 20.6478L340.867 20.284ZM347.727 21.208V21.708H348.227V21.208H347.727ZM347.727 14.096H348.227V13.596H347.727V14.096ZM351.707 10.4V30H352.707V10.4H351.707ZM352.207 29.5H347.727V30.5H352.207V29.5ZM348.227 30V24.792H347.227V30H348.227ZM347.727 24.292H343.583V25.292H347.727V24.292ZM343.167 24.5146L339.695 29.7226L340.527 30.2774L343.999 25.0693L343.167 24.5146ZM340.111 29.5H335.323V30.5H340.111V29.5ZM335.734 30.2845L339.822 24.3765L339 23.8075L334.912 29.7155L335.734 30.2845ZM339.6 23.6291C338.358 23.1218 337.425 22.371 336.777 21.382L335.941 21.93C336.711 23.1063 337.813 23.9795 339.222 24.5549L339.6 23.6291ZM336.779 21.3853C336.13 20.3775 335.795 19.1591 335.795 17.708H334.795C334.795 19.3182 335.169 20.7318 335.938 21.9267L336.779 21.3853ZM335.795 17.708C335.795 16.2741 336.121 15.0739 336.752 14.0849L335.909 13.5471C335.159 14.7234 334.795 16.1179 334.795 17.708H335.795ZM336.754 14.0816C337.389 13.0693 338.291 12.2921 339.478 11.751L339.063 10.841C337.712 11.4572 336.654 12.36 335.907 13.5504L336.754 14.0816ZM339.484 11.7484C340.673 11.1886 342.091 10.9 343.751 10.9V9.9C341.976 9.9 340.407 10.2087 339.058 10.8436L339.484 11.7484ZM343.751 10.9H352.207V9.9H343.751V10.9ZM343.863 13.596C342.503 13.596 341.38 13.911 340.568 14.6138L341.222 15.3702C341.79 14.8784 342.646 14.596 343.863 14.596V13.596ZM340.563 14.6183C339.753 15.3376 339.387 16.3798 339.387 17.652H340.387C340.387 16.5722 340.692 15.841 341.227 15.3657L340.563 14.6183ZM339.387 17.652C339.387 18.8892 339.745 19.9134 340.524 20.6478L341.21 19.9202C340.682 19.4226 340.387 18.6921 340.387 17.652H339.387ZM340.524 20.6478C341.302 21.3818 342.407 21.708 343.751 21.708V20.708C342.556 20.708 341.738 20.4182 341.21 19.9202L340.524 20.6478ZM343.751 21.708H347.727V20.708H343.751V21.708ZM348.227 21.208V14.096H347.227V21.208H348.227ZM347.727 13.596H343.863V14.596H347.727V13.596Z" fill="#B9C7EB"></path> <path d="M399.3 10.4V30H394.792V14.096H385.944V30H381.436V10.4H399.3ZM419.391 25.8H410.291L408.555 30H403.907L412.643 10.4H417.123L425.887 30H421.127L419.391 25.8ZM417.963 22.356L414.855 14.852L411.747 22.356H417.963ZM438.93 10.4C440.666 10.4 442.169 10.6893 443.438 11.268C444.726 11.8467 445.715 12.668 446.406 13.732C447.097 14.796 447.442 16.056 447.442 17.512C447.442 18.9493 447.097 20.2093 446.406 21.292C445.715 22.356 444.726 23.1773 443.438 23.756C442.169 24.316 440.666 24.596 438.93 24.596H434.982V30H430.446V10.4H438.93ZM438.678 20.9C440.041 20.9 441.077 20.6107 441.786 20.032C442.495 19.4347 442.85 18.5947 442.85 17.512C442.85 16.4107 442.495 15.5707 441.786 14.992C441.077 14.3947 440.041 14.096 438.678 14.096H434.982V20.9H438.678ZM452.394 10.4H456.902V23.168L466.254 10.4H470.51V30H466.03V17.26L456.678 30H452.394V10.4ZM484.938 22.104H481.802V30H477.294V10.4H481.802V18.324H485.05L490.202 10.4H494.99L488.578 19.864L495.186 30H490.034L484.938 22.104ZM517.107 30L517.079 18.268L511.311 27.928H509.295L503.527 18.492V30H499.271V10.4H503.023L510.359 22.58L517.583 10.4H521.335L521.363 30H517.107ZM541.464 25.8H532.364L530.628 30H525.98L534.716 10.4H539.196L547.96 30H543.2L541.464 25.8ZM540.036 22.356L536.928 14.852L533.82 22.356H540.036ZM555.036 10.4L559.096 16.336L563.156 10.4H568.476L561.952 19.78L569.008 30H563.66L559.096 23.504L554.588 30H549.352L556.352 19.976L549.8 10.4H555.036ZM588.222 26.36V30H573.046V10.4H587.858V14.04H577.554V18.296H586.654V21.824H577.554V26.36H588.222ZM602.33 10.4C604.066 10.4 605.568 10.6893 606.838 11.268C608.126 11.8467 609.115 12.668 609.806 13.732C610.496 14.796 610.842 16.056 610.842 17.512C610.842 18.9493 610.496 20.2093 609.806 21.292C609.115 22.356 608.126 23.1773 606.838 23.756C605.568 24.316 604.066 24.596 602.33 24.596H598.382V30H593.846V10.4H602.33ZM602.078 20.9C603.44 20.9 604.476 20.6107 605.186 20.032C605.895 19.4347 606.25 18.5947 606.25 17.512C606.25 16.4107 605.895 15.5707 605.186 14.992C604.476 14.3947 603.44 14.096 602.078 14.096H598.382V20.9H602.078ZM625.419 30.336C623.385 30.336 621.546 29.8973 619.903 29.02C618.279 28.1427 617.001 26.9387 616.067 25.408C615.153 23.8587 614.695 22.1227 614.695 20.2C614.695 18.2773 615.153 16.5507 616.067 15.02C617.001 13.4707 618.279 12.2573 619.903 11.38C621.546 10.5027 623.385 10.064 625.419 10.064C627.454 10.064 629.283 10.5027 630.907 11.38C632.531 12.2573 633.81 13.4707 634.743 15.02C635.677 16.5507 636.143 18.2773 636.143 20.2C636.143 22.1227 635.677 23.8587 634.743 25.408C633.81 26.9387 632.531 28.1427 630.907 29.02C629.283 29.8973 627.454 30.336 625.419 30.336ZM625.419 26.472C626.577 26.472 627.622 26.2107 628.555 25.688C629.489 25.1467 630.217 24.4 630.739 23.448C631.281 22.496 631.551 21.4133 631.551 20.2C631.551 18.9867 631.281 17.904 630.739 16.952C630.217 16 629.489 15.2627 628.555 14.74C627.622 14.1987 626.577 13.928 625.419 13.928C624.262 13.928 623.217 14.1987 622.283 14.74C621.35 15.2627 620.613 16 620.071 16.952C619.549 17.904 619.287 18.9867 619.287 20.2C619.287 21.4133 619.549 22.496 620.071 23.448C620.613 24.4 621.35 25.1467 622.283 25.688C623.217 26.2107 624.262 26.472 625.419 26.472ZM655.178 19.78C656.372 20.1347 657.287 20.7133 657.922 21.516C658.556 22.3187 658.874 23.308 658.874 24.484C658.874 26.22 658.211 27.5733 656.886 28.544C655.579 29.5147 653.703 30 651.258 30H641.598V10.4H650.726C653.003 10.4 654.776 10.8387 656.046 11.716C657.315 12.5933 657.95 13.844 657.95 15.468C657.95 16.4387 657.707 17.2973 657.222 18.044C656.736 18.772 656.055 19.3507 655.178 19.78ZM646.106 18.52H650.334C651.323 18.52 652.07 18.324 652.574 17.932C653.078 17.5213 653.33 16.924 653.33 16.14C653.33 15.3747 653.068 14.7867 652.546 14.376C652.042 13.9653 651.304 13.76 650.334 13.76H646.106V18.52ZM651.09 26.64C653.218 26.64 654.282 25.8 654.282 24.12C654.282 22.496 653.218 21.684 651.09 21.684H646.106V26.64H651.09Z" fill="#B9C7EB"></path> <path d="M687.436 10.4V9.9H686.936V10.4H687.436ZM703.256 10.4H703.756V9.9H703.256V10.4ZM703.256 14.012V14.512H703.756V14.012H703.256ZM691.944 14.012V13.512H691.444V14.012H691.944ZM691.944 18.044H691.444V18.544H691.944V18.044ZM702.78 19.528L702.467 19.9179L702.47 19.9201L702.78 19.528ZM687.436 30H686.936V30.5H687.436V30ZM699.14 25.968L699.434 26.3724L699.442 26.3665L699.14 25.968ZM691.944 21.376V20.876H691.444V21.376H691.944ZM691.944 26.64H691.444V27.14H691.944V26.64ZM687.436 10.9H703.256V9.9H687.436V10.9ZM702.756 10.4V14.012H703.756V10.4H702.756ZM703.256 13.512H691.944V14.512H703.256V13.512ZM691.444 14.012V18.044H692.444V14.012H691.444ZM691.944 18.544H697.376V17.544H691.944V18.544ZM697.376 18.544C699.687 18.544 701.359 19.0278 702.467 19.9179L703.093 19.1381C701.737 18.0496 699.806 17.544 697.376 17.544V18.544ZM702.47 19.9201C703.579 20.7979 704.156 22.0689 704.156 23.812H705.156C705.156 21.8217 704.482 20.2368 703.09 19.1359L702.47 19.9201ZM704.156 23.812C704.156 25.6388 703.521 27.0065 702.276 27.9825L702.892 28.7695C704.41 27.5801 705.156 25.9052 705.156 23.812H704.156ZM702.276 27.9825C701.013 28.9717 699.188 29.5 696.732 29.5V30.5C699.316 30.5 701.392 29.9456 702.892 28.7695L702.276 27.9825ZM696.732 29.5H687.436V30.5H696.732V29.5ZM687.936 30V10.4H686.936V30H687.936ZM696.48 27.14C697.691 27.14 698.699 26.9073 699.434 26.3724L698.846 25.5636C698.349 25.9247 697.583 26.14 696.48 26.14V27.14ZM699.442 26.3665C700.201 25.7917 700.564 24.9617 700.564 23.952H699.564C699.564 24.697 699.311 25.211 698.838 25.5695L699.442 26.3665ZM700.564 23.952C700.564 22.9631 700.211 22.1539 699.46 21.614C698.739 21.096 697.72 20.876 696.48 20.876V21.876C697.63 21.876 698.402 22.0853 698.876 22.426C699.32 22.7448 699.564 23.2235 699.564 23.952H700.564ZM696.48 20.876H691.944V21.876H696.48V20.876ZM691.444 21.376V26.64H692.444V21.376H691.444ZM691.944 27.14H696.48V26.14H691.944V27.14ZM723.176 25.8L723.638 25.609L723.51 25.3H723.176V25.8ZM714.076 25.8V25.3H713.741L713.614 25.609L714.076 25.8ZM712.34 30V30.5H712.674L712.802 30.191L712.34 30ZM707.692 30L707.235 29.7964L706.922 30.5H707.692V30ZM716.428 10.4V9.9H716.103L715.971 10.1964L716.428 10.4ZM720.908 10.4L721.364 10.1959L721.232 9.9H720.908V10.4ZM729.672 30V30.5H730.443L730.128 29.7959L729.672 30ZM724.912 30L724.45 30.191L724.577 30.5H724.912V30ZM721.748 22.356V22.856H722.496L722.21 22.1647L721.748 22.356ZM718.64 14.852L719.102 14.6607L718.64 13.5453L718.178 14.6607L718.64 14.852ZM715.532 22.356L715.07 22.1647L714.784 22.856H715.532V22.356ZM723.176 25.3H714.076V26.3H723.176V25.3ZM713.614 25.609L711.878 29.809L712.802 30.191L714.538 25.991L713.614 25.609ZM712.34 29.5H707.692V30.5H712.34V29.5ZM708.149 30.2036L716.885 10.6036L715.971 10.1964L707.235 29.7964L708.149 30.2036ZM716.428 10.9H720.908V9.9H716.428V10.9ZM720.451 10.6041L729.215 30.2041L730.128 29.7959L721.364 10.1959L720.451 10.6041ZM729.672 29.5H724.912V30.5H729.672V29.5ZM725.374 29.809L723.638 25.609L722.714 25.991L724.45 30.191L725.374 29.809ZM722.21 22.1647L719.102 14.6607L718.178 15.0433L721.286 22.5473L722.21 22.1647ZM718.178 14.6607L715.07 22.1647L715.994 22.5473L719.102 15.0433L718.178 14.6607ZM715.532 22.856H721.748V21.856H715.532V22.856ZM747.223 11.268L747.016 11.723L747.018 11.7241L747.223 11.268ZM750.191 21.292L750.61 21.5642L750.613 21.5609L750.191 21.292ZM747.223 23.756L747.425 24.2135L747.428 24.2121L747.223 23.756ZM738.767 24.596V24.096H738.267V24.596H738.767ZM738.767 30V30.5H739.267V30H738.767ZM734.231 30H733.731V30.5H734.231V30ZM734.231 10.4V9.9H733.731V10.4H734.231ZM745.571 20.032L745.887 20.4195L745.893 20.4145L745.571 20.032ZM745.571 14.992L745.249 15.3745L745.255 15.3794L745.571 14.992ZM738.767 14.096V13.596H738.267V14.096H738.767ZM738.767 20.9H738.267V21.4H738.767V20.9ZM742.715 10.9C744.396 10.9 745.825 11.1803 747.016 11.723L747.43 10.813C746.082 10.1984 744.506 9.9 742.715 9.9V10.9ZM747.018 11.7241C748.229 12.268 749.139 13.0298 749.772 14.0042L750.61 13.4598C749.862 12.3062 748.793 11.4254 747.428 10.8119L747.018 11.7241ZM749.772 14.0042C750.402 14.9757 750.727 16.138 750.727 17.512H751.727C751.727 15.974 751.361 14.6163 750.61 13.4598L749.772 14.0042ZM750.727 17.512C750.727 18.8658 750.403 20.0301 749.769 21.0231L750.613 21.5609C751.36 20.3886 751.727 19.0329 751.727 17.512H750.727ZM749.772 21.0198C749.139 21.9942 748.229 22.756 747.018 23.2999L747.428 24.2121C748.793 23.5986 749.862 22.7178 750.61 21.5642L749.772 21.0198ZM747.021 23.2985C745.829 23.8244 744.398 24.096 742.715 24.096V25.096C744.504 25.096 746.078 24.8076 747.425 24.2135L747.021 23.2985ZM742.715 24.096H738.767V25.096H742.715V24.096ZM738.267 24.596V30H739.267V24.596H738.267ZM738.767 29.5H734.231V30.5H738.767V29.5ZM734.731 30V10.4H733.731V30H734.731ZM734.231 10.9H742.715V9.9H734.231V10.9ZM742.463 21.4C743.887 21.4 745.054 21.099 745.887 20.4194L745.255 19.6446C744.669 20.1223 743.765 20.4 742.463 20.4V21.4ZM745.893 20.4145C746.735 19.7058 747.135 18.7147 747.135 17.512H746.135C746.135 18.4746 745.826 19.1636 745.249 19.6495L745.893 20.4145ZM747.135 17.512C747.135 16.2942 746.737 15.2976 745.887 14.6046L745.255 15.3794C745.824 15.8437 746.135 16.5271 746.135 17.512H747.135ZM745.893 14.6095C745.06 13.9077 743.89 13.596 742.463 13.596V14.596C743.762 14.596 744.664 14.8817 745.249 15.3745L745.893 14.6095ZM742.463 13.596H738.767V14.596H742.463V13.596ZM738.267 14.096V20.9H739.267V14.096H738.267ZM738.767 21.4H742.463V20.4H738.767V21.4ZM756.179 10.4V9.9H755.679V10.4H756.179ZM771.999 10.4H772.499V9.9H771.999V10.4ZM771.999 14.012V14.512H772.499V14.012H771.999ZM760.687 14.012V13.512H760.187V14.012H760.687ZM760.687 18.044H760.187V18.544H760.687V18.044ZM771.523 19.528L771.21 19.9179L771.213 19.9201L771.523 19.528ZM756.179 30H755.679V30.5H756.179V30ZM767.883 25.968L768.177 26.3724L768.185 26.3665L767.883 25.968ZM760.687 21.376V20.876H760.187V21.376H760.687ZM760.687 26.64H760.187V27.14H760.687V26.64ZM756.179 10.9H771.999V9.9H756.179V10.9ZM771.499 10.4V14.012H772.499V10.4H771.499ZM771.999 13.512H760.687V14.512H771.999V13.512ZM760.187 14.012V18.044H761.187V14.012H760.187ZM760.687 18.544H766.119V17.544H760.687V18.544ZM766.119 18.544C768.431 18.544 770.102 19.0278 771.21 19.9179L771.836 19.1381C770.481 18.0496 768.549 17.544 766.119 17.544V18.544ZM771.213 19.9201C772.323 20.7979 772.899 22.0689 772.899 23.812H773.899C773.899 21.8217 773.225 20.2368 771.833 19.1359L771.213 19.9201ZM772.899 23.812C772.899 25.6388 772.264 27.0065 771.019 27.9825L771.636 28.7695C773.153 27.5801 773.899 25.9052 773.899 23.812H772.899ZM771.019 27.9825C769.757 28.9717 767.931 29.5 765.475 29.5V30.5C768.06 30.5 770.135 29.9456 771.636 28.7695L771.019 27.9825ZM765.475 29.5H756.179V30.5H765.475V29.5ZM756.679 30V10.4H755.679V30H756.679ZM765.223 27.14C766.435 27.14 767.442 26.9073 768.177 26.3724L767.589 25.5636C767.093 25.9247 766.327 26.14 765.223 26.14V27.14ZM768.185 26.3665C768.944 25.7917 769.307 24.9617 769.307 23.952H768.307C768.307 24.697 768.055 25.211 767.581 25.5695L768.185 26.3665ZM769.307 23.952C769.307 22.9631 768.954 22.1539 768.203 21.614C767.482 21.096 766.463 20.876 765.223 20.876V21.876C766.373 21.876 767.145 22.0853 767.619 22.426C768.063 22.7448 768.307 23.2235 768.307 23.952H769.307ZM765.223 20.876H760.687V21.876H765.223V20.876ZM760.187 21.376V26.64H761.187V21.376H760.187ZM760.687 27.14H765.223V26.14H760.687V27.14ZM793.987 26.36H794.487V25.86H793.987V26.36ZM793.987 30V30.5H794.487V30H793.987ZM778.811 30H778.311V30.5H778.811V30ZM778.811 10.4V9.9H778.311V10.4H778.811ZM793.623 10.4H794.123V9.9H793.623V10.4ZM793.623 14.04V14.54H794.123V14.04H793.623ZM783.319 14.04V13.54H782.819V14.04H783.319ZM783.319 18.296H782.819V18.796H783.319V18.296ZM792.419 18.296H792.919V17.796H792.419V18.296ZM792.419 21.824V22.324H792.919V21.824H792.419ZM783.319 21.824V21.324H782.819V21.824H783.319ZM783.319 26.36H782.819V26.86H783.319V26.36ZM793.487 26.36V30H794.487V26.36H793.487ZM793.987 29.5H778.811V30.5H793.987V29.5ZM779.311 30V10.4H778.311V30H779.311ZM778.811 10.9H793.623V9.9H778.811V10.9ZM793.123 10.4V14.04H794.123V10.4H793.123ZM793.623 13.54H783.319V14.54H793.623V13.54ZM782.819 14.04V18.296H783.819V14.04H782.819ZM783.319 18.796H792.419V17.796H783.319V18.796ZM791.919 18.296V21.824H792.919V18.296H791.919ZM792.419 21.324H783.319V22.324H792.419V21.324ZM782.819 21.824V26.36H783.819V21.824H782.819ZM783.319 26.86H793.987V25.86H783.319V26.86ZM812.603 11.268L812.396 11.723L812.398 11.7241L812.603 11.268ZM815.571 21.292L815.99 21.5642L815.993 21.5609L815.571 21.292ZM812.603 23.756L812.805 24.2135L812.808 24.2121L812.603 23.756ZM804.147 24.596V24.096H803.647V24.596H804.147ZM804.147 30V30.5H804.647V30H804.147ZM799.611 30H799.111V30.5H799.611V30ZM799.611 10.4V9.9H799.111V10.4H799.611ZM810.951 20.032L811.267 20.4195L811.273 20.4145L810.951 20.032ZM810.951 14.992L810.629 15.3745L810.635 15.3794L810.951 14.992ZM804.147 14.096V13.596H803.647V14.096H804.147ZM804.147 20.9H803.647V21.4H804.147V20.9ZM808.095 10.9C809.776 10.9 811.205 11.1803 812.396 11.723L812.81 10.813C811.462 10.1984 809.886 9.9 808.095 9.9V10.9ZM812.398 11.7241C813.609 12.268 814.519 13.0298 815.152 14.0042L815.99 13.4598C815.242 12.3062 814.173 11.4254 812.808 10.8119L812.398 11.7241ZM815.152 14.0042C815.782 14.9757 816.107 16.138 816.107 17.512H817.107C817.107 15.974 816.741 14.6163 815.99 13.4598L815.152 14.0042ZM816.107 17.512C816.107 18.8658 815.783 20.0301 815.149 21.0231L815.993 21.5609C816.74 20.3886 817.107 19.0329 817.107 17.512H816.107ZM815.152 21.0198C814.519 21.9942 813.609 22.756 812.398 23.2999L812.808 24.2121C814.173 23.5986 815.242 22.7178 815.99 21.5642L815.152 21.0198ZM812.401 23.2985C811.209 23.8244 809.778 24.096 808.095 24.096V25.096C809.884 25.096 811.458 24.8076 812.805 24.2135L812.401 23.2985ZM808.095 24.096H804.147V25.096H808.095V24.096ZM803.647 24.596V30H804.647V24.596H803.647ZM804.147 29.5H799.611V30.5H804.147V29.5ZM800.111 30V10.4H799.111V30H800.111ZM799.611 10.9H808.095V9.9H799.611V10.9ZM807.843 21.4C809.267 21.4 810.434 21.099 811.267 20.4194L810.635 19.6446C810.049 20.1223 809.145 20.4 807.843 20.4V21.4ZM811.273 20.4145C812.115 19.7058 812.515 18.7147 812.515 17.512H811.515C811.515 18.4746 811.206 19.1636 810.629 19.6495L811.273 20.4145ZM812.515 17.512C812.515 16.2942 812.117 15.2976 811.267 14.6046L810.635 15.3794C811.204 15.8437 811.515 16.5271 811.515 17.512H812.515ZM811.273 14.6095C810.44 13.9077 809.27 13.596 807.843 13.596V14.596C809.142 14.596 810.044 14.8817 810.629 15.3745L811.273 14.6095ZM807.843 13.596H804.147V14.596H807.843V13.596ZM803.647 14.096V20.9H804.647V14.096H803.647ZM804.147 21.4H807.843V20.4H804.147V21.4ZM825.669 29.02L825.431 29.4599L825.433 29.461L825.669 29.02ZM821.833 25.408L821.402 25.6622L821.406 25.6683L821.833 25.408ZM821.833 15.02L821.404 14.762L821.404 14.7635L821.833 15.02ZM825.669 11.38L825.433 10.939L825.431 10.9401L825.669 11.38ZM840.509 15.02L840.08 15.278L840.082 15.2803L840.509 15.02ZM840.509 25.408L840.936 25.6683L840.937 25.666L840.509 25.408ZM836.673 29.02L836.91 29.4599L836.673 29.02ZM834.321 25.688L834.565 26.1243L834.572 26.1205L834.321 25.688ZM836.505 23.448L836.07 23.2008L836.066 23.2074L836.505 23.448ZM836.505 16.952L836.066 17.1927L836.07 17.1992L836.505 16.952ZM834.321 14.74L834.07 15.1726L834.076 15.1763L834.321 14.74ZM828.049 14.74L828.293 15.1763L828.3 15.1725L828.049 14.74ZM825.837 16.952L825.402 16.7048L825.398 16.7114L825.837 16.952ZM825.837 23.448L825.398 23.6887L825.402 23.6952L825.837 23.448ZM828.049 25.688L827.798 26.1206L827.804 26.1243L828.049 25.688ZM831.185 29.836C829.224 29.836 827.468 29.4141 825.904 28.579L825.433 29.461C827.155 30.3806 829.076 30.836 831.185 30.836V29.836ZM825.906 28.5801C824.358 27.7435 823.145 26.6005 822.26 25.1477L821.406 25.6683C822.387 27.2768 823.732 28.5418 825.431 29.4599L825.906 28.5801ZM822.263 25.1538C821.397 23.6868 820.961 22.0396 820.961 20.2H819.961C819.961 22.2057 820.439 24.0306 821.402 25.6622L822.263 25.1538ZM820.961 20.2C820.961 18.3603 821.397 16.7236 822.262 15.2765L821.404 14.7635C820.439 16.3778 819.961 18.1943 819.961 20.2H820.961ZM822.261 15.278C823.147 13.8069 824.359 12.6557 825.906 11.8199L825.431 10.9401C823.73 11.859 822.385 13.1344 821.404 14.762L822.261 15.278ZM825.904 11.821C827.468 10.9859 829.224 10.564 831.185 10.564V9.564C829.076 9.564 827.155 10.0194 825.433 10.939L825.904 11.821ZM831.185 10.564C833.145 10.564 834.891 10.9859 836.435 11.8199L836.91 10.9401C835.206 10.0194 833.294 9.564 831.185 9.564V10.564ZM836.435 11.8199C837.982 12.6557 839.194 13.8069 840.08 15.278L840.937 14.762C839.957 13.1344 838.611 11.859 836.91 10.9401L836.435 11.8199ZM840.082 15.2803C840.964 16.7269 841.409 18.3623 841.409 20.2H842.409C842.409 18.1924 841.92 16.3745 840.936 14.7597L840.082 15.2803ZM841.409 20.2C841.409 22.0377 840.964 23.6835 840.08 25.15L840.937 25.666C841.92 24.0338 842.409 22.2076 842.409 20.2H841.409ZM840.082 25.1477C839.196 26.6005 837.984 27.7435 836.435 28.5801L836.91 29.4599C838.61 28.5418 839.955 27.2768 840.936 25.6683L840.082 25.1477ZM836.435 28.5801C834.891 29.4141 833.145 29.836 831.185 29.836V30.836C833.294 30.836 835.206 30.3806 836.91 29.4599L836.435 28.5801ZM831.185 26.972C832.42 26.972 833.551 26.6921 834.565 26.1243L834.076 25.2517C833.224 25.7292 832.264 25.972 831.185 25.972V26.972ZM834.572 26.1205C835.584 25.5332 836.377 24.7199 836.943 23.6886L836.066 23.2074C835.587 24.0801 834.924 24.7602 834.07 25.2555L834.572 26.1205ZM836.939 23.6952C837.528 22.6599 837.817 21.4904 837.817 20.2H836.817C836.817 21.3363 836.564 22.3321 836.07 23.2008L836.939 23.6952ZM837.817 20.2C837.817 18.9096 837.528 17.7401 836.939 16.7048L836.07 17.1992C836.564 18.0679 836.817 19.0637 836.817 20.2H837.817ZM836.943 16.7114C836.376 15.6786 835.581 14.8729 834.565 14.3037L834.076 15.1763C834.927 15.6524 835.588 16.3214 836.066 17.1926L836.943 16.7114ZM834.572 14.3075C833.556 13.7187 832.424 13.428 831.185 13.428V14.428C832.261 14.428 833.218 14.6786 834.07 15.1725L834.572 14.3075ZM831.185 13.428C829.946 13.428 828.813 13.7187 827.798 14.3075L828.3 15.1725C829.151 14.6786 830.109 14.428 831.185 14.428V13.428ZM827.804 14.3037C826.79 14.872 825.987 15.6756 825.402 16.7048L826.271 17.1992C826.769 16.3244 827.441 15.6533 828.293 15.1763L827.804 14.3037ZM825.398 16.7114C824.831 17.7454 824.553 18.9126 824.553 20.2H825.553C825.553 19.0607 825.797 18.0626 826.275 17.1926L825.398 16.7114ZM824.553 20.2C824.553 21.4874 824.831 22.6546 825.398 23.6886L826.275 23.2074C825.797 22.3374 825.553 21.3392 825.553 20.2H824.553ZM825.402 23.6952C825.986 24.7229 826.787 25.5341 827.798 26.1205L828.3 25.2555C827.444 24.7593 826.77 24.0771 826.271 23.2008L825.402 23.6952ZM827.804 26.1243C828.818 26.6921 829.949 26.972 831.185 26.972V25.972C830.106 25.972 829.146 25.7292 828.293 25.2517L827.804 26.1243ZM860.943 19.78L860.723 19.3309L859.572 19.8944L860.801 20.2593L860.943 19.78ZM863.687 21.516L863.295 21.8261L863.295 21.8261L863.687 21.516ZM862.651 28.544L862.356 28.1406L862.353 28.1426L862.651 28.544ZM847.363 30H846.863V30.5H847.363V30ZM847.363 10.4V9.9H846.863V10.4H847.363ZM861.811 11.716L862.095 11.3047L862.095 11.3047L861.811 11.716ZM862.987 18.044L863.403 18.3214L863.406 18.3165L862.987 18.044ZM851.871 18.52H851.371V19.02H851.871V18.52ZM858.339 17.932L858.646 18.3268L858.655 18.3196L858.339 17.932ZM858.311 14.376L857.995 14.7637L858.002 14.7692L858.311 14.376ZM851.871 13.76V13.26H851.371V13.76H851.871ZM851.871 21.684V21.184H851.371V21.684H851.871ZM851.871 26.64H851.371V27.14H851.871V26.64ZM860.801 20.2593C861.919 20.5912 862.737 21.1205 863.295 21.8261L864.079 21.2059C863.368 20.3062 862.357 19.6782 861.085 19.3007L860.801 20.2593ZM863.295 21.8261C863.849 22.5276 864.139 23.4029 864.139 24.484H865.139C865.139 23.2131 864.794 22.1097 864.079 21.2059L863.295 21.8261ZM864.139 24.484C864.139 26.0712 863.544 27.2702 862.356 28.1406L862.946 28.9474C864.409 27.8764 865.139 26.3688 865.139 24.484H864.139ZM862.353 28.1426C861.166 29.0243 859.412 29.5 857.023 29.5V30.5C859.525 30.5 861.523 30.005 862.949 28.9454L862.353 28.1426ZM857.023 29.5H847.363V30.5H857.023V29.5ZM847.863 30V10.4H846.863V30H847.863ZM847.363 10.9H856.491V9.9H847.363V10.9ZM856.491 10.9C858.713 10.9 860.372 11.3292 861.527 12.1273L862.095 11.3047C860.711 10.3481 858.824 9.9 856.491 9.9V10.9ZM861.527 12.1273C862.653 12.9056 863.215 13.998 863.215 15.468H864.215C864.215 13.69 863.508 12.2811 862.095 11.3047L861.527 12.1273ZM863.215 15.468C863.215 16.351 862.996 17.1132 862.568 17.7715L863.406 18.3165C863.949 17.4814 864.215 16.5263 864.215 15.468H863.215ZM862.571 17.7666C862.14 18.4127 861.531 18.9358 860.723 19.3309L861.163 20.2291C862.11 19.7655 862.863 19.1313 863.403 18.3213L862.571 17.7666ZM851.871 19.02H856.099V18.02H851.871V19.02ZM856.099 19.02C857.142 19.02 858.018 18.8154 858.646 18.3267L858.032 17.5373C857.652 17.8326 857.035 18.02 856.099 18.02V19.02ZM858.655 18.3196C859.3 17.7943 859.595 17.0401 859.595 16.14H858.595C858.595 16.8079 858.386 17.2484 858.023 17.5444L858.655 18.3196ZM859.595 16.14C859.595 15.2475 859.282 14.5034 858.62 13.9828L858.002 14.7692C858.385 15.0699 858.595 15.5019 858.595 16.14H859.595ZM858.627 13.9884C857.999 13.4767 857.13 13.26 856.099 13.26V14.26C857.009 14.26 857.615 14.4539 857.995 14.7636L858.627 13.9884ZM856.099 13.26H851.871V14.26H856.099V13.26ZM851.371 13.76V18.52H852.371V13.76H851.371ZM856.855 27.14C857.971 27.14 858.901 26.922 859.559 26.4024C860.239 25.8651 860.547 25.0727 860.547 24.12H859.547C859.547 24.8473 859.323 25.3149 858.939 25.6176C858.533 25.938 857.867 26.14 856.855 26.14V27.14ZM860.547 24.12C860.547 23.1892 860.235 22.4166 859.552 21.8955C858.895 21.394 857.968 21.184 856.855 21.184V22.184C857.87 22.184 858.539 22.38 858.946 22.6905C859.327 22.9814 859.547 23.4268 859.547 24.12H860.547ZM856.855 21.184H851.871V22.184H856.855V21.184ZM851.371 21.684V26.64H852.371V21.684H851.371ZM851.871 27.14H856.855V26.14H851.871V27.14Z" fill="#B9C7EB"></path> <path d="M906.016 19.78C907.211 20.1347 908.125 20.7133 908.76 21.516C909.395 22.3187 909.712 23.308 909.712 24.484C909.712 26.22 909.049 27.5733 907.724 28.544C906.417 29.5147 904.541 30 902.096 30H892.436V10.4H901.564C903.841 10.4 905.615 10.8387 906.884 11.716C908.153 12.5933 908.788 13.844 908.788 15.468C908.788 16.4387 908.545 17.2973 908.06 18.044C907.575 18.772 906.893 19.3507 906.016 19.78ZM896.944 18.52H901.172C902.161 18.52 902.908 18.324 903.412 17.932C903.916 17.5213 904.168 16.924 904.168 16.14C904.168 15.3747 903.907 14.7867 903.384 14.376C902.88 13.9653 902.143 13.76 901.172 13.76H896.944V18.52ZM901.928 26.64C904.056 26.64 905.12 25.8 905.12 24.12C905.12 22.496 904.056 21.684 901.928 21.684H896.944V26.64H901.928ZM915.259 10.4H919.767V23.168L929.119 10.4H933.375V30H928.895V17.26L919.543 30H915.259V10.4ZM951.359 19.78C952.498 20.172 953.385 20.788 954.019 21.628C954.673 22.4493 954.999 23.4107 954.999 24.512C954.999 25.7067 954.607 26.7427 953.823 27.62C953.039 28.4973 951.975 29.1693 950.631 29.636C949.306 30.1027 947.85 30.336 946.263 30.336C944.919 30.336 943.575 30.168 942.231 29.832C940.906 29.496 939.646 28.9827 938.451 28.292L939.851 25.044C940.71 25.5667 941.653 25.968 942.679 26.248C943.725 26.5093 944.742 26.64 945.731 26.64C947.075 26.64 948.186 26.3973 949.063 25.912C949.959 25.4267 950.407 24.7453 950.407 23.868C950.407 23.14 950.099 22.5893 949.483 22.216C948.886 21.8427 948.065 21.656 947.019 21.656H942.231V18.24H946.683C947.598 18.24 948.307 18.0533 948.811 17.68C949.334 17.3067 949.595 16.7933 949.595 16.14C949.595 15.3747 949.222 14.7773 948.475 14.348C947.747 13.9187 946.805 13.704 945.647 13.704C944.789 13.704 943.902 13.8253 942.987 14.068C942.073 14.292 941.205 14.6373 940.383 15.104L939.011 11.576C941.083 10.512 943.323 9.98 945.731 9.98C947.262 9.98 948.671 10.204 949.959 10.652C951.247 11.1 952.274 11.7533 953.039 12.612C953.805 13.4707 954.187 14.4693 954.187 15.608C954.187 16.5413 953.935 17.372 953.431 18.1C952.927 18.828 952.237 19.388 951.359 19.78ZM973.822 25.8H964.722L962.986 30H958.338L967.074 10.4H971.554L980.318 30H975.558L973.822 25.8ZM972.394 22.356L969.286 14.852L966.178 22.356H972.394ZM1001.65 22.104H998.79V30H994.338V22.104H991.426L987.03 30H981.794L987.674 19.752L982.158 10.4H986.946L991.342 18.324H994.338V10.4H998.79V18.324H1001.7L1006.13 10.4H1010.91L1005.43 19.752L1011.28 30H1006.04L1001.65 22.104ZM1015.41 10.4H1019.92V23.168L1029.27 10.4H1033.53V30H1029.05V17.26L1019.7 30H1015.41V10.4ZM1049.64 30.336C1047.64 30.336 1045.83 29.9067 1044.2 29.048C1042.6 28.1707 1041.33 26.9667 1040.4 25.436C1039.48 23.8867 1039.02 22.1413 1039.02 20.2C1039.02 18.2587 1039.48 16.5227 1040.4 14.992C1041.33 13.4427 1042.6 12.2387 1044.2 11.38C1045.83 10.5027 1047.65 10.064 1049.66 10.064C1051.36 10.064 1052.89 10.3627 1054.26 10.96C1055.64 11.5573 1056.79 12.416 1057.73 13.536L1054.82 16.224C1053.49 14.6933 1051.85 13.928 1049.89 13.928C1048.67 13.928 1047.59 14.1987 1046.64 14.74C1045.69 15.2627 1044.94 16 1044.4 16.952C1043.88 17.904 1043.62 18.9867 1043.62 20.2C1043.62 21.4133 1043.88 22.496 1044.4 23.448C1044.94 24.4 1045.69 25.1467 1046.64 25.688C1047.59 26.2107 1048.67 26.472 1049.89 26.472C1051.85 26.472 1053.49 25.6973 1054.82 24.148L1057.73 26.836C1056.79 27.9747 1055.64 28.8427 1054.26 29.44C1052.87 30.0373 1051.33 30.336 1049.64 30.336ZM1077.43 14.096H1071.16V30H1066.68V14.096H1060.44V10.4H1077.43V14.096ZM1091.32 30.336C1089.28 30.336 1087.45 29.8973 1085.8 29.02C1084.18 28.1427 1082.9 26.9387 1081.97 25.408C1081.05 23.8587 1080.6 22.1227 1080.6 20.2C1080.6 18.2773 1081.05 16.5507 1081.97 15.02C1082.9 13.4707 1084.18 12.2573 1085.8 11.38C1087.45 10.5027 1089.28 10.064 1091.32 10.064C1093.35 10.064 1095.18 10.5027 1096.81 11.38C1098.43 12.2573 1099.71 13.4707 1100.64 15.02C1101.58 16.5507 1102.04 18.2773 1102.04 20.2C1102.04 22.1227 1101.58 23.8587 1100.64 25.408C1099.71 26.9387 1098.43 28.1427 1096.81 29.02C1095.18 29.8973 1093.35 30.336 1091.32 30.336ZM1091.32 26.472C1092.48 26.472 1093.52 26.2107 1094.46 25.688C1095.39 25.1467 1096.12 24.4 1096.64 23.448C1097.18 22.496 1097.45 21.4133 1097.45 20.2C1097.45 18.9867 1097.18 17.904 1096.64 16.952C1096.12 16 1095.39 15.2627 1094.46 14.74C1093.52 14.1987 1092.48 13.928 1091.32 13.928C1090.16 13.928 1089.12 14.1987 1088.18 14.74C1087.25 15.2627 1086.51 16 1085.97 16.952C1085.45 17.904 1085.19 18.9867 1085.19 20.2C1085.19 21.4133 1085.45 22.496 1085.97 23.448C1086.51 24.4 1087.25 25.1467 1088.18 25.688C1089.12 26.2107 1090.16 26.472 1091.32 26.472ZM1121.08 19.78C1122.27 20.1347 1123.19 20.7133 1123.82 21.516C1124.46 22.3187 1124.77 23.308 1124.77 24.484C1124.77 26.22 1124.11 27.5733 1122.79 28.544C1121.48 29.5147 1119.6 30 1117.16 30H1107.5V10.4H1116.63C1118.9 10.4 1120.68 10.8387 1121.95 11.716C1123.22 12.5933 1123.85 13.844 1123.85 15.468C1123.85 16.4387 1123.61 17.2973 1123.12 18.044C1122.64 18.772 1121.96 19.3507 1121.08 19.78ZM1112.01 18.52H1116.23C1117.22 18.52 1117.97 18.324 1118.47 17.932C1118.98 17.5213 1119.23 16.924 1119.23 16.14C1119.23 15.3747 1118.97 14.7867 1118.45 14.376C1117.94 13.9653 1117.2 13.76 1116.23 13.76H1112.01V18.52ZM1116.99 26.64C1119.12 26.64 1120.18 25.8 1120.18 24.12C1120.18 22.496 1119.12 21.684 1116.99 21.684H1112.01V26.64H1116.99Z" fill="#B9C7EB"></path> </svg> 