<?xml version="1.0" encoding="UTF-8"?> <svg xmlns="http://www.w3.org/2000/svg" width="1107" height="40" viewBox="0 0 1107 40" fill="none"> <path d="M20.412 10.4V30H15.876V21.964H6.972V30H2.436V10.4H6.972V18.128H15.876V10.4H20.412ZM42.4587 26.36V30H27.2827V10.4H42.0947V14.04H31.7907V18.296H40.8907V21.824H31.7907V26.36H42.4587ZM48.0826 10.4H52.5906V23.168L61.9426 10.4H66.1986V30H61.7186V17.26L52.3666 30H48.0826V10.4ZM57.1266 9.14C53.5426 9.14 51.7319 7.712 51.6946 4.856H54.8026C54.8399 6.21867 55.6146 6.9 57.1266 6.9C57.8732 6.9 58.4426 6.732 58.8346 6.396C59.2266 6.04133 59.4319 5.528 59.4506 4.856H62.5586C62.5399 6.256 62.0826 7.32 61.1866 8.048C60.2906 8.776 58.9372 9.14 57.1266 9.14ZM90.3739 10.4V30H85.8939V14.096H79.1739L79.0339 18.184C78.9406 20.9653 78.7166 23.224 78.3619 24.96C78.0073 26.6773 77.4099 28.0027 76.5699 28.936C75.7486 29.8507 74.5913 30.308 73.0979 30.308C72.4819 30.308 71.7353 30.2053 70.8579 30L71.1379 26.164C71.3806 26.2387 71.6513 26.276 71.9499 26.276C73.0326 26.276 73.7886 25.6413 74.2179 24.372C74.6473 23.084 74.9179 21.0773 75.0299 18.352L75.3099 10.4H90.3739ZM96.2491 20.368H104.173V23.868H96.2491V20.368ZM122.606 25.8H113.506L111.77 30H107.122L115.858 10.4H120.338L129.102 30H124.342L122.606 25.8ZM121.178 22.356L118.07 14.852L114.962 22.356H121.178ZM142.145 10.4C143.881 10.4 145.384 10.6893 146.653 11.268C147.941 11.8467 148.93 12.668 149.621 13.732C150.312 14.796 150.657 16.056 150.657 17.512C150.657 18.9493 150.312 20.2093 149.621 21.292C148.93 22.356 147.941 23.1773 146.653 23.756C145.384 24.316 143.881 24.596 142.145 24.596H138.197V30H133.661V10.4H142.145ZM141.893 20.9C143.256 20.9 144.292 20.6107 145.001 20.032C145.71 19.4347 146.065 18.5947 146.065 17.512C146.065 16.4107 145.71 15.5707 145.001 14.992C144.292 14.3947 143.256 14.096 141.893 14.096H138.197V20.9H141.893ZM170.042 14.096H163.77V30H159.29V14.096H153.046V10.4H170.042V14.096ZM174.85 10.4H179.358V23.168L188.71 10.4H192.966V30H188.486V17.26L179.134 30H174.85V10.4ZM209.074 30.336C207.077 30.336 205.266 29.9067 203.642 29.048C202.037 28.1707 200.768 26.9667 199.834 25.436C198.92 23.8867 198.462 22.1413 198.462 20.2C198.462 18.2587 198.92 16.5227 199.834 14.992C200.768 13.4427 202.037 12.2387 203.642 11.38C205.266 10.5027 207.086 10.064 209.102 10.064C210.801 10.064 212.332 10.3627 213.694 10.96C215.076 11.5573 216.233 12.416 217.166 13.536L214.254 16.224C212.929 14.6933 211.286 13.928 209.326 13.928C208.113 13.928 207.03 14.1987 206.078 14.74C205.126 15.2627 204.38 16 203.838 16.952C203.316 17.904 203.054 18.9867 203.054 20.2C203.054 21.4133 203.316 22.496 203.838 23.448C204.38 24.4 205.126 25.1467 206.078 25.688C207.03 26.2107 208.113 26.472 209.326 26.472C211.286 26.472 212.929 25.6973 214.254 24.148L217.166 26.836C216.233 27.9747 215.076 28.8427 213.694 29.44C212.313 30.0373 210.773 30.336 209.074 30.336ZM236.871 14.096H230.599V30H226.119V14.096H219.875V10.4H236.871V14.096ZM250.758 30.336C248.723 30.336 246.885 29.8973 245.242 29.02C243.618 28.1427 242.339 26.9387 241.406 25.408C240.491 23.8587 240.034 22.1227 240.034 20.2C240.034 18.2773 240.491 16.5507 241.406 15.02C242.339 13.4707 243.618 12.2573 245.242 11.38C246.885 10.5027 248.723 10.064 250.758 10.064C252.793 10.064 254.622 10.5027 256.246 11.38C257.87 12.2573 259.149 13.4707 260.082 15.02C261.015 16.5507 261.482 18.2773 261.482 20.2C261.482 22.1227 261.015 23.8587 260.082 25.408C259.149 26.9387 257.87 28.1427 256.246 29.02C254.622 29.8973 252.793 30.336 250.758 30.336ZM250.758 26.472C251.915 26.472 252.961 26.2107 253.894 25.688C254.827 25.1467 255.555 24.4 256.078 23.448C256.619 22.496 256.89 21.4133 256.89 20.2C256.89 18.9867 256.619 17.904 256.078 16.952C255.555 16 254.827 15.2627 253.894 14.74C252.961 14.1987 251.915 13.928 250.758 13.928C249.601 13.928 248.555 14.1987 247.622 14.74C246.689 15.2627 245.951 16 245.41 16.952C244.887 17.904 244.626 18.9867 244.626 20.2C244.626 21.4133 244.887 22.496 245.41 23.448C245.951 24.4 246.689 25.1467 247.622 25.688C248.555 26.2107 249.601 26.472 250.758 26.472ZM280.516 19.78C281.711 20.1347 282.626 20.7133 283.26 21.516C283.895 22.3187 284.212 23.308 284.212 24.484C284.212 26.22 283.55 27.5733 282.224 28.544C280.918 29.5147 279.042 30 276.596 30H266.936V10.4H276.064C278.342 10.4 280.115 10.8387 281.384 11.716C282.654 12.5933 283.288 13.844 283.288 15.468C283.288 16.4387 283.046 17.2973 282.56 18.044C282.075 18.772 281.394 19.3507 280.516 19.78ZM271.444 18.52H275.672C276.662 18.52 277.408 18.324 277.912 17.932C278.416 17.5213 278.668 16.924 278.668 16.14C278.668 15.3747 278.407 14.7867 277.884 14.376C277.38 13.9653 276.643 13.76 275.672 13.76H271.444V18.52ZM276.428 26.64C278.556 26.64 279.62 25.8 279.62 24.12C279.62 22.496 278.556 21.684 276.428 21.684H271.444V26.64H276.428Z" fill="#B9C7EB"></path> <path d="M320.024 22.104L320.444 21.8329L320.296 21.604H320.024V22.104ZM316.888 22.104V21.604H316.388V22.104H316.888ZM316.888 30V30.5H317.388V30H316.888ZM312.38 30H311.88V30.5H312.38V30ZM312.38 10.4V9.9H311.88V10.4H312.38ZM316.888 10.4H317.388V9.9H316.888V10.4ZM316.888 18.324H316.388V18.824H316.888V18.324ZM320.136 18.324V18.824H320.407L320.555 18.5965L320.136 18.324ZM325.288 10.4V9.9H325.017L324.869 10.1275L325.288 10.4ZM330.076 10.4L330.49 10.6804L331.019 9.9H330.076V10.4ZM323.664 19.864L323.25 19.5835L323.064 19.8587L323.245 20.1371L323.664 19.864ZM330.272 30V30.5H331.195L330.691 29.7269L330.272 30ZM325.12 30L324.7 30.2711L324.848 30.5H325.12V30ZM320.024 21.604H316.888V22.604H320.024V21.604ZM316.388 22.104V30H317.388V22.104H316.388ZM316.888 29.5H312.38V30.5H316.888V29.5ZM312.88 30V10.4H311.88V30H312.88ZM312.38 10.9H316.888V9.9H312.38V10.9ZM316.388 10.4V18.324H317.388V10.4H316.388ZM316.888 18.824H320.136V17.824H316.888V18.824ZM320.555 18.5965L325.707 10.6725L324.869 10.1275L319.717 18.0515L320.555 18.5965ZM325.288 10.9H330.076V9.9H325.288V10.9ZM329.662 10.1195L323.25 19.5835L324.078 20.1445L330.49 10.6804L329.662 10.1195ZM323.245 20.1371L329.853 30.2731L330.691 29.7269L324.083 19.5909L323.245 20.1371ZM330.272 29.5H325.12V30.5H330.272V29.5ZM325.54 29.7289L320.444 21.8329L319.604 22.3751L324.7 30.2711L325.54 29.7289ZM338.111 29.02L337.873 29.4599L337.875 29.461L338.111 29.02ZM334.275 25.408L333.844 25.6622L333.848 25.6683L334.275 25.408ZM334.275 15.02L333.847 14.762L333.846 14.7635L334.275 15.02ZM338.111 11.38L337.875 10.939L337.873 10.9401L338.111 11.38ZM352.951 15.02L352.523 15.278L352.524 15.2803L352.951 15.02ZM352.951 25.408L353.378 25.6683L353.379 25.666L352.951 25.408ZM349.115 29.02L349.353 29.4599L349.115 29.02ZM346.763 25.688L347.007 26.1243L347.014 26.1205L346.763 25.688ZM348.947 23.448L348.512 23.2008L348.509 23.2074L348.947 23.448ZM348.947 16.952L348.509 17.1927L348.512 17.1992L348.947 16.952ZM346.763 14.74L346.512 15.1726L346.519 15.1763L346.763 14.74ZM340.491 14.74L340.735 15.1763L340.742 15.1725L340.491 14.74ZM338.279 16.952L337.844 16.7048L337.841 16.7114L338.279 16.952ZM338.279 23.448L337.841 23.6887L337.844 23.6952L338.279 23.448ZM340.491 25.688L340.24 26.1206L340.247 26.1243L340.491 25.688ZM343.627 29.836C341.667 29.836 339.91 29.4141 338.346 28.579L337.875 29.461C339.597 30.3806 341.518 30.836 343.627 30.836V29.836ZM338.349 28.5801C336.8 27.7435 335.588 26.6005 334.702 25.1477L333.848 25.6683C334.829 27.2768 336.174 28.5418 337.873 29.4599L338.349 28.5801ZM334.705 25.1538C333.839 23.6868 333.403 22.0396 333.403 20.2H332.403C332.403 22.2057 332.881 24.0306 333.844 25.6622L334.705 25.1538ZM333.403 20.2C333.403 18.3603 333.839 16.7236 334.704 15.2765L333.846 14.7635C332.881 16.3778 332.403 18.1943 332.403 20.2H333.403ZM334.703 15.278C335.589 13.8069 336.802 12.6557 338.349 11.8199L337.873 10.9401C336.172 11.859 334.827 13.1344 333.847 14.762L334.703 15.278ZM338.346 11.821C339.91 10.9859 341.667 10.564 343.627 10.564V9.564C341.518 9.564 339.597 10.0194 337.875 10.939L338.346 11.821ZM343.627 10.564C345.587 10.564 347.334 10.9859 348.877 11.8199L349.353 10.9401C347.648 10.0194 345.736 9.564 343.627 9.564V10.564ZM348.877 11.8199C350.424 12.6557 351.636 13.8069 352.523 15.278L353.379 14.762C352.399 13.1344 351.054 11.859 349.353 10.9401L348.877 11.8199ZM352.524 15.2803C353.406 16.7269 353.851 18.3623 353.851 20.2H354.851C354.851 18.1924 354.362 16.3745 353.378 14.7597L352.524 15.2803ZM353.851 20.2C353.851 22.0377 353.406 23.6835 352.523 25.15L353.379 25.666C354.362 24.0338 354.851 22.2076 354.851 20.2H353.851ZM352.524 25.1477C351.638 26.6005 350.426 27.7435 348.877 28.5801L349.353 29.4599C351.052 28.5418 352.397 27.2768 353.378 25.6683L352.524 25.1477ZM348.877 28.5801C347.334 29.4141 345.587 29.836 343.627 29.836V30.836C345.736 30.836 347.648 30.3806 349.353 29.4599L348.877 28.5801ZM343.627 26.972C344.863 26.972 345.993 26.6921 347.007 26.1243L346.519 25.2517C345.666 25.7292 344.706 25.972 343.627 25.972V26.972ZM347.014 26.1205C348.026 25.5332 348.819 24.7199 349.385 23.6886L348.509 23.2074C348.029 24.0801 347.366 24.7602 346.512 25.2555L347.014 26.1205ZM349.382 23.6952C349.97 22.6599 350.259 21.4904 350.259 20.2H349.259C349.259 21.3363 349.006 22.3321 348.512 23.2008L349.382 23.6952ZM350.259 20.2C350.259 18.9096 349.97 17.7401 349.382 16.7048L348.512 17.1992C349.006 18.0679 349.259 19.0637 349.259 20.2H350.259ZM349.385 16.7114C348.818 15.6786 348.024 14.8729 347.007 14.3037L346.519 15.1763C347.369 15.6524 348.03 16.3214 348.509 17.1926L349.385 16.7114ZM347.014 14.3075C345.999 13.7187 344.866 13.428 343.627 13.428V14.428C344.703 14.428 345.66 14.6786 346.512 15.1725L347.014 14.3075ZM343.627 13.428C342.388 13.428 341.255 13.7187 340.24 14.3075L340.742 15.1725C341.593 14.6786 342.551 14.428 343.627 14.428V13.428ZM340.247 14.3037C339.232 14.872 338.43 15.6756 337.844 16.7048L338.714 17.1992C339.211 16.3244 339.883 15.6533 340.735 15.1763L340.247 14.3037ZM337.841 16.7114C337.273 17.7454 336.995 18.9126 336.995 20.2H337.995C337.995 19.0607 338.24 18.0626 338.717 17.1926L337.841 16.7114ZM336.995 20.2C336.995 21.4874 337.273 22.6546 337.841 23.6886L338.717 23.2074C338.24 22.3374 337.995 21.3392 337.995 20.2H336.995ZM337.844 23.6952C338.429 24.7229 339.229 25.5341 340.24 26.1205L340.742 25.2555C339.886 24.7593 339.212 24.0771 338.714 23.2008L337.844 23.6952ZM340.247 26.1243C341.261 26.6921 342.391 26.972 343.627 26.972V25.972C342.548 25.972 341.588 25.7292 340.735 25.2517L340.247 26.1243ZM363.641 29.048L363.401 29.4868L363.408 29.49L363.641 29.048ZM359.833 25.436L359.403 25.6902L359.406 25.6963L359.833 25.436ZM359.833 14.992L359.405 14.734L359.404 14.7355L359.833 14.992ZM363.641 11.38L363.877 11.8209L363.879 11.8199L363.641 11.38ZM373.693 10.96L373.492 11.4179L373.495 11.4189L373.693 10.96ZM377.165 13.536L377.504 13.9034L377.854 13.581L377.549 13.2159L377.165 13.536ZM374.253 16.224L373.875 16.5513L374.213 16.9415L374.592 16.5914L374.253 16.224ZM366.077 14.74L366.318 15.1783L366.324 15.1746L366.077 14.74ZM363.837 16.952L363.403 16.7048L363.399 16.7114L363.837 16.952ZM363.837 23.448L363.399 23.6887L363.403 23.6952L363.837 23.448ZM366.077 25.688L365.83 26.1227L365.837 26.1263L366.077 25.688ZM374.253 24.148L374.592 23.7806L374.211 23.4284L373.873 23.823L374.253 24.148ZM377.165 26.836L377.552 27.153L377.851 26.7884L377.504 26.4686L377.165 26.836ZM373.693 29.44L373.495 28.9811L373.693 29.44ZM369.073 29.836C367.15 29.836 365.421 29.4233 363.875 28.606L363.408 29.49C365.11 30.39 367.002 30.836 369.073 30.836V29.836ZM363.881 28.6092C362.351 27.7731 361.147 26.6299 360.26 25.1757L359.406 25.6963C360.386 27.3034 361.721 28.5683 363.401 29.4868L363.881 28.6092ZM360.264 25.1818C359.398 23.7155 358.961 22.0592 358.961 20.2H357.961C357.961 22.2234 358.439 24.0578 359.403 25.6902L360.264 25.1818ZM358.961 20.2C358.961 18.3407 359.398 16.6948 360.262 15.2485L359.404 14.7355C358.439 16.3505 357.961 18.1766 357.961 20.2H358.961ZM360.262 15.25C361.148 13.7784 362.351 12.6373 363.877 11.8209L363.405 10.9391C361.721 11.84 360.385 13.1069 359.405 14.734L360.262 15.25ZM363.879 11.8199C365.423 10.9856 367.16 10.564 369.101 10.564V9.564C367.01 9.564 365.107 10.0198 363.404 10.9401L363.879 11.8199ZM369.101 10.564C370.741 10.564 372.201 10.852 373.492 11.4179L373.894 10.5021C372.46 9.87332 370.859 9.564 369.101 9.564V10.564ZM373.495 11.4189C374.807 11.9862 375.9 12.7983 376.781 13.8561L377.549 13.2159C376.564 12.0337 375.343 11.1285 373.892 10.5011L373.495 11.4189ZM376.826 13.1686L373.914 15.8566L374.592 16.5914L377.504 13.9034L376.826 13.1686ZM374.631 15.8967C373.214 14.2605 371.436 13.428 369.325 13.428V14.428C371.135 14.428 372.641 15.1262 373.875 16.5513L374.631 15.8967ZM369.325 13.428C368.035 13.428 366.865 13.7167 365.83 14.3054L366.324 15.1746C367.193 14.6806 368.189 14.428 369.325 14.428V13.428ZM365.837 14.3017C364.803 14.8693 363.989 15.6731 363.403 16.7048L364.272 17.1992C364.768 16.3269 365.448 15.656 366.318 15.1783L365.837 14.3017ZM363.399 16.7114C362.831 17.7454 362.553 18.9126 362.553 20.2H363.553C363.553 19.0607 363.798 18.0626 364.276 17.1926L363.399 16.7114ZM362.553 20.2C362.553 21.4874 362.831 22.6546 363.399 23.6886L364.276 23.2074C363.798 22.3374 363.553 21.3392 363.553 20.2H362.553ZM363.403 23.6952C363.988 24.7254 364.8 25.5368 365.83 26.1226L366.324 25.2534C365.451 24.7565 364.769 24.0746 364.272 23.2008L363.403 23.6952ZM365.837 26.1263C366.871 26.694 368.038 26.972 369.325 26.972V25.972C368.186 25.972 367.188 25.7273 366.318 25.2497L365.837 26.1263ZM369.325 26.972C371.438 26.972 373.217 26.1283 374.633 24.473L373.873 23.823C372.639 25.2664 371.132 25.972 369.325 25.972V26.972ZM373.914 24.5154L376.826 27.2034L377.504 26.4686L374.592 23.7806L373.914 24.5154ZM376.779 26.519C375.897 27.5946 374.805 28.4146 373.495 28.9811L373.892 29.8989C375.344 29.2707 376.567 28.3547 377.552 27.153L376.779 26.519ZM373.495 28.9811C372.184 29.548 370.712 29.836 369.073 29.836V30.836C370.831 30.836 372.44 30.5266 373.892 29.8989L373.495 28.9811ZM399.918 30L399.418 30.0012L399.419 30.5H399.918V30ZM399.89 18.268L400.39 18.2668L400.385 16.4625L399.46 18.0117L399.89 18.268ZM394.122 27.928V28.428H394.405L394.551 28.1843L394.122 27.928ZM392.106 27.928L391.679 28.1888L391.825 28.428H392.106V27.928ZM386.338 18.492L386.764 18.2312L385.838 16.7154V18.492H386.338ZM386.338 30V30.5H386.838V30H386.338ZM382.082 30H381.582V30.5H382.082V30ZM382.082 10.4V9.9H381.582V10.4H382.082ZM385.834 10.4L386.262 10.142L386.116 9.9H385.834V10.4ZM393.17 22.58L392.741 22.838L393.173 23.5546L393.6 22.8351L393.17 22.58ZM400.394 10.4V9.9H400.109L399.964 10.1449L400.394 10.4ZM404.146 10.4L404.646 10.3993L404.645 9.9H404.146V10.4ZM404.174 30V30.5H404.674L404.674 29.9993L404.174 30ZM400.418 29.9988L400.39 18.2668L399.39 18.2692L399.418 30.0012L400.418 29.9988ZM399.46 18.0117L393.692 27.6717L394.551 28.1843L400.319 18.5243L399.46 18.0117ZM394.122 27.428H392.106V28.428H394.122V27.428ZM392.532 27.6672L386.764 18.2312L385.911 18.7528L391.679 28.1888L392.532 27.6672ZM385.838 18.492V30H386.838V18.492H385.838ZM386.338 29.5H382.082V30.5H386.338V29.5ZM382.582 30V10.4H381.582V30H382.582ZM382.082 10.9H385.834V9.9H382.082V10.9ZM385.405 10.658L392.741 22.838L393.598 22.322L386.262 10.142L385.405 10.658ZM393.6 22.8351L400.824 10.6551L399.964 10.1449L392.74 22.3249L393.6 22.8351ZM400.394 10.9H404.146V9.9H400.394V10.9ZM403.646 10.4007L403.674 30.0007L404.674 29.9993L404.646 10.3993L403.646 10.4007ZM404.174 29.5H399.918V30.5H404.174V29.5ZM426.179 26.36H426.679V25.86H426.179V26.36ZM426.179 30V30.5H426.679V30H426.179ZM411.003 30H410.503V30.5H411.003V30ZM411.003 10.4V9.9H410.503V10.4H411.003ZM425.815 10.4H426.315V9.9H425.815V10.4ZM425.815 14.04V14.54H426.315V14.04H425.815ZM415.511 14.04V13.54H415.011V14.04H415.511ZM415.511 18.296H415.011V18.796H415.511V18.296ZM424.611 18.296H425.111V17.796H424.611V18.296ZM424.611 21.824V22.324H425.111V21.824H424.611ZM415.511 21.824V21.324H415.011V21.824H415.511ZM415.511 26.36H415.011V26.86H415.511V26.36ZM425.679 26.36V30H426.679V26.36H425.679ZM426.179 29.5H411.003V30.5H426.179V29.5ZM411.503 30V10.4H410.503V30H411.503ZM411.003 10.9H425.815V9.9H411.003V10.9ZM425.315 10.4V14.04H426.315V10.4H425.315ZM425.815 13.54H415.511V14.54H425.815V13.54ZM415.011 14.04V18.296H416.011V14.04H415.011ZM415.511 18.796H424.611V17.796H415.511V18.796ZM424.111 18.296V21.824H425.111V18.296H424.111ZM424.611 21.324H415.511V22.324H424.611V21.324ZM415.011 21.824V26.36H416.011V21.824H415.011ZM415.511 26.86H426.179V25.86H415.511V26.86ZM446.782 14.096V14.596H447.282V14.096H446.782ZM440.51 14.096V13.596H440.01V14.096H440.51ZM440.51 30V30.5H441.01V30H440.51ZM436.03 30H435.53V30.5H436.03V30ZM436.03 14.096H436.53V13.596H436.03V14.096ZM429.786 14.096H429.286V14.596H429.786V14.096ZM429.786 10.4V9.9H429.286V10.4H429.786ZM446.782 10.4H447.282V9.9H446.782V10.4ZM446.782 13.596H440.51V14.596H446.782V13.596ZM440.01 14.096V30H441.01V14.096H440.01ZM440.51 29.5H436.03V30.5H440.51V29.5ZM436.53 30V14.096H435.53V30H436.53ZM436.03 13.596H429.786V14.596H436.03V13.596ZM430.286 14.096V10.4H429.286V14.096H430.286ZM429.786 10.9H446.782V9.9H429.786V10.9ZM446.282 10.4V14.096H447.282V10.4H446.282ZM455.153 29.02L454.915 29.4599L454.918 29.461L455.153 29.02ZM451.317 25.408L450.886 25.6622L450.89 25.6683L451.317 25.408ZM451.317 15.02L450.889 14.762L450.888 14.7635L451.317 15.02ZM455.153 11.38L454.918 10.939L454.915 10.9401L455.153 11.38ZM469.993 15.02L469.565 15.278L469.566 15.2803L469.993 15.02ZM469.993 25.408L470.42 25.6683L470.421 25.666L469.993 25.408ZM466.157 29.02L466.395 29.4599L466.157 29.02ZM463.805 25.688L464.049 26.1243L464.056 26.1205L463.805 25.688ZM465.989 23.448L465.554 23.2008L465.551 23.2074L465.989 23.448ZM465.989 16.952L465.551 17.1927L465.554 17.1992L465.989 16.952ZM463.805 14.74L463.554 15.1726L463.561 15.1763L463.805 14.74ZM457.533 14.74L457.777 15.1763L457.784 15.1725L457.533 14.74ZM455.321 16.952L454.886 16.7048L454.883 16.7114L455.321 16.952ZM455.321 23.448L454.883 23.6887L454.886 23.6952L455.321 23.448ZM457.533 25.688L457.282 26.1206L457.289 26.1243L457.533 25.688ZM460.669 29.836C458.709 29.836 456.952 29.4141 455.389 28.579L454.918 29.461C456.639 30.3806 458.56 30.836 460.669 30.836V29.836ZM455.391 28.5801C453.842 27.7435 452.63 26.6005 451.744 25.1477L450.89 25.6683C451.871 27.2768 453.216 28.5418 454.915 29.4599L455.391 28.5801ZM451.748 25.1538C450.882 23.6868 450.445 22.0396 450.445 20.2H449.445C449.445 22.2057 449.923 24.0306 450.887 25.6622L451.748 25.1538ZM450.445 20.2C450.445 18.3603 450.882 16.7236 451.746 15.2765L450.888 14.7635C449.923 16.3778 449.445 18.1943 449.445 20.2H450.445ZM451.745 15.278C452.632 13.8069 453.844 12.6557 455.391 11.8199L454.915 10.9401C453.214 11.859 451.869 13.1344 450.889 14.762L451.745 15.278ZM455.389 11.821C456.952 10.9859 458.709 10.564 460.669 10.564V9.564C458.56 9.564 456.639 10.0194 454.918 10.939L455.389 11.821ZM460.669 10.564C462.629 10.564 464.376 10.9859 465.919 11.8199L466.395 10.9401C464.69 10.0194 462.778 9.564 460.669 9.564V10.564ZM465.919 11.8199C467.466 12.6557 468.679 13.8069 469.565 15.278L470.421 14.762C469.441 13.1344 468.096 11.859 466.395 10.9401L465.919 11.8199ZM469.566 15.2803C470.448 16.7269 470.893 18.3623 470.893 20.2H471.893C471.893 18.1924 471.405 16.3745 470.42 14.7597L469.566 15.2803ZM470.893 20.2C470.893 22.0377 470.448 23.6835 469.565 25.15L470.421 25.666C471.405 24.0338 471.893 22.2076 471.893 20.2H470.893ZM469.566 25.1477C468.68 26.6005 467.468 27.7435 465.919 28.5801L466.395 29.4599C468.094 28.5418 469.439 27.2768 470.42 25.6683L469.566 25.1477ZM465.919 28.5801C464.376 29.4141 462.629 29.836 460.669 29.836V30.836C462.778 30.836 464.69 30.3806 466.395 29.4599L465.919 28.5801ZM460.669 26.972C461.905 26.972 463.035 26.6921 464.049 26.1243L463.561 25.2517C462.708 25.7292 461.748 25.972 460.669 25.972V26.972ZM464.056 26.1205C465.069 25.5332 465.861 24.7199 466.427 23.6886L465.551 23.2074C465.072 24.0801 464.408 24.7602 463.554 25.2555L464.056 26.1205ZM466.424 23.6952C467.012 22.6599 467.301 21.4904 467.301 20.2H466.301C466.301 21.3363 466.048 22.3321 465.554 23.2008L466.424 23.6952ZM467.301 20.2C467.301 18.9096 467.012 17.7401 466.424 16.7048L465.554 17.1992C466.048 18.0679 466.301 19.0637 466.301 20.2H467.301ZM466.427 16.7114C465.86 15.6786 465.066 14.8729 464.049 14.3037L463.561 15.1763C464.411 15.6524 465.072 16.3214 465.551 17.1926L466.427 16.7114ZM464.056 14.3075C463.041 13.7187 461.908 13.428 460.669 13.428V14.428C461.745 14.428 462.703 14.6786 463.554 15.1725L464.056 14.3075ZM460.669 13.428C459.43 13.428 458.297 13.7187 457.282 14.3075L457.784 15.1725C458.636 14.6786 459.593 14.428 460.669 14.428V13.428ZM457.289 14.3037C456.274 14.872 455.472 15.6756 454.886 16.7048L455.756 17.1992C456.253 16.3244 456.926 15.6533 457.777 15.1763L457.289 14.3037ZM454.883 16.7114C454.315 17.7454 454.037 18.9126 454.037 20.2H455.037C455.037 19.0607 455.282 18.0626 455.759 17.1926L454.883 16.7114ZM454.037 20.2C454.037 21.4874 454.315 22.6546 454.883 23.6886L455.759 23.2074C455.282 22.3374 455.037 21.3392 455.037 20.2H454.037ZM454.886 23.6952C455.471 24.7229 456.271 25.5341 457.282 26.1205L457.784 25.2555C456.928 24.7593 456.254 24.0771 455.756 23.2008L454.886 23.6952ZM457.289 26.1243C458.303 26.6921 459.433 26.972 460.669 26.972V25.972C459.59 25.972 458.63 25.7292 457.777 25.2517L457.289 26.1243ZM493.773 10.4H494.273V9.9H493.773V10.4ZM493.773 30V30.5H494.273V30H493.773ZM489.293 30H488.793V30.5H489.293V30ZM489.293 14.096H489.793V13.596H489.293V14.096ZM482.573 14.096V13.596H482.089L482.073 14.0789L482.573 14.096ZM482.433 18.184L481.933 18.1669L481.933 18.1672L482.433 18.184ZM481.761 24.96L482.25 25.0611L482.25 25.0601L481.761 24.96ZM479.969 28.936L479.597 28.6015L479.597 28.6019L479.969 28.936ZM474.257 30L473.758 29.9636L473.727 30.3895L474.143 30.4868L474.257 30ZM474.537 26.164L474.684 25.6861L474.084 25.5015L474.038 26.1276L474.537 26.164ZM477.617 24.372L478.09 24.5322L478.091 24.5301L477.617 24.372ZM478.429 18.352L478.928 18.3725L478.928 18.3696L478.429 18.352ZM478.709 10.4V9.9H478.226L478.209 10.3824L478.709 10.4ZM493.273 10.4V30H494.273V10.4H493.273ZM493.773 29.5H489.293V30.5H493.773V29.5ZM489.793 30V14.096H488.793V30H489.793ZM489.293 13.596H482.573V14.596H489.293V13.596ZM482.073 14.0789L481.933 18.1669L482.932 18.2011L483.072 14.1131L482.073 14.0789ZM481.933 18.1672C481.84 20.9344 481.617 23.1623 481.271 24.8599L482.25 25.0601C482.613 23.2857 482.838 20.9962 482.932 18.2008L481.933 18.1672ZM481.271 24.8589C480.927 26.5221 480.359 27.7552 479.597 28.6015L480.34 29.2705C481.259 28.2501 481.884 26.8325 482.25 25.0611L481.271 24.8589ZM479.597 28.6019C478.89 29.3887 477.881 29.808 476.497 29.808V30.808C478.099 30.808 479.404 30.3127 480.341 29.2701L479.597 28.6019ZM476.497 29.808C475.932 29.808 475.226 29.7134 474.37 29.5132L474.143 30.4868C475.042 30.6973 475.829 30.808 476.497 30.808V29.808ZM474.755 30.0364L475.035 26.2004L474.038 26.1276L473.758 29.9636L474.755 30.0364ZM474.389 26.6419C474.687 26.7335 475.009 26.776 475.349 26.776V25.776C475.091 25.776 474.871 25.7438 474.684 25.6861L474.389 26.6419ZM475.349 26.776C475.995 26.776 476.572 26.5834 477.049 26.1829C477.518 25.7892 477.856 25.2237 478.09 24.5322L477.143 24.2118C476.947 24.7896 476.693 25.1761 476.406 25.4171C476.127 25.6513 475.784 25.776 475.349 25.776V26.776ZM478.091 24.5301C478.543 23.1725 478.816 21.1075 478.928 18.3725L477.929 18.3315C477.817 21.0472 477.548 22.9955 477.142 24.2139L478.091 24.5301ZM478.928 18.3696L479.208 10.4176L478.209 10.3824L477.929 18.3344L478.928 18.3696ZM478.709 10.9H493.773V9.9H478.709V10.9ZM504.464 29.02L504.226 29.4599L504.228 29.461L504.464 29.02ZM500.628 25.408L500.197 25.6622L500.201 25.6683L500.628 25.408ZM500.628 15.02L500.199 14.762L500.199 14.7635L500.628 15.02ZM504.464 11.38L504.228 10.939L504.226 10.9401L504.464 11.38ZM519.304 15.02L518.875 15.278L518.877 15.2803L519.304 15.02ZM519.304 25.408L519.731 25.6683L519.732 25.666L519.304 25.408ZM515.468 29.02L515.705 29.4599L515.468 29.02ZM513.116 25.688L513.36 26.1243L513.367 26.1205L513.116 25.688ZM515.3 23.448L514.865 23.2008L514.861 23.2074L515.3 23.448ZM515.3 16.952L514.861 17.1927L514.865 17.1992L515.3 16.952ZM513.116 14.74L512.865 15.1726L512.871 15.1763L513.116 14.74ZM506.844 14.74L507.088 15.1763L507.095 15.1725L506.844 14.74ZM504.632 16.952L504.197 16.7048L504.193 16.7114L504.632 16.952ZM504.632 23.448L504.193 23.6887L504.197 23.6952L504.632 23.448ZM506.844 25.688L506.593 26.1206L506.599 26.1243L506.844 25.688ZM509.98 29.836C508.019 29.836 506.263 29.4141 504.699 28.579L504.228 29.461C505.95 30.3806 507.871 30.836 509.98 30.836V29.836ZM504.701 28.5801C503.153 27.7435 501.94 26.6005 501.055 25.1477L500.201 25.6683C501.182 27.2768 502.527 28.5418 504.226 29.4599L504.701 28.5801ZM501.058 25.1538C500.192 23.6868 499.756 22.0396 499.756 20.2H498.756C498.756 22.2057 499.234 24.0306 500.197 25.6622L501.058 25.1538ZM499.756 20.2C499.756 18.3603 500.192 16.7236 501.057 15.2765L500.199 14.7635C499.234 16.3778 498.756 18.1943 498.756 20.2H499.756ZM501.056 15.278C501.942 13.8069 503.154 12.6557 504.701 11.8199L504.226 10.9401C502.525 11.859 501.18 13.1344 500.199 14.762L501.056 15.278ZM504.699 11.821C506.263 10.9859 508.019 10.564 509.98 10.564V9.564C507.871 9.564 505.95 10.0194 504.228 10.939L504.699 11.821ZM509.98 10.564C511.94 10.564 513.686 10.9859 515.23 11.8199L515.705 10.9401C514.001 10.0194 512.089 9.564 509.98 9.564V10.564ZM515.23 11.8199C516.777 12.6557 517.989 13.8069 518.875 15.278L519.732 14.762C518.752 13.1344 517.406 11.859 515.705 10.9401L515.23 11.8199ZM518.877 15.2803C519.759 16.7269 520.204 18.3623 520.204 20.2H521.204C521.204 18.1924 520.715 16.3745 519.731 14.7597L518.877 15.2803ZM520.204 20.2C520.204 22.0377 519.759 23.6835 518.875 25.15L519.732 25.666C520.715 24.0338 521.204 22.2076 521.204 20.2H520.204ZM518.877 25.1477C517.991 26.6005 516.779 27.7435 515.23 28.5801L515.705 29.4599C517.405 28.5418 518.75 27.2768 519.731 25.6683L518.877 25.1477ZM515.23 28.5801C513.686 29.4141 511.94 29.836 509.98 29.836V30.836C512.089 30.836 514.001 30.3806 515.705 29.4599L515.23 28.5801ZM509.98 26.972C511.215 26.972 512.346 26.6921 513.36 26.1243L512.871 25.2517C512.019 25.7292 511.059 25.972 509.98 25.972V26.972ZM513.367 26.1205C514.379 25.5332 515.172 24.7199 515.738 23.6886L514.861 23.2074C514.382 24.0801 513.719 24.7602 512.865 25.2555L513.367 26.1205ZM515.734 23.6952C516.323 22.6599 516.612 21.4904 516.612 20.2H515.612C515.612 21.3363 515.359 22.3321 514.865 23.2008L515.734 23.6952ZM516.612 20.2C516.612 18.9096 516.323 17.7401 515.734 16.7048L514.865 17.1992C515.359 18.0679 515.612 19.0637 515.612 20.2H516.612ZM515.738 16.7114C515.171 15.6786 514.376 14.8729 513.36 14.3037L512.871 15.1763C513.722 15.6524 514.383 16.3214 514.861 17.1926L515.738 16.7114ZM513.367 14.3075C512.351 13.7187 511.219 13.428 509.98 13.428V14.428C511.056 14.428 512.013 14.6786 512.865 15.1725L513.367 14.3075ZM509.98 13.428C508.741 13.428 507.608 13.7187 506.593 14.3075L507.095 15.1725C507.946 14.6786 508.904 14.428 509.98 14.428V13.428ZM506.599 14.3037C505.585 14.872 504.782 15.6756 504.197 16.7048L505.066 17.1992C505.564 16.3244 506.236 15.6533 507.088 15.1763L506.599 14.3037ZM504.193 16.7114C503.626 17.7454 503.348 18.9126 503.348 20.2H504.348C504.348 19.0607 504.592 18.0626 505.07 17.1926L504.193 16.7114ZM503.348 20.2C503.348 21.4874 503.626 22.6546 504.193 23.6886L505.07 23.2074C504.592 22.3374 504.348 21.3392 504.348 20.2H503.348ZM504.197 23.6952C504.781 24.7229 505.582 25.5341 506.593 26.1205L507.095 25.2555C506.239 24.7593 505.565 24.0771 505.066 23.2008L504.197 23.6952ZM506.599 26.1243C507.613 26.6921 508.744 26.972 509.98 26.972V25.972C508.901 25.972 507.941 25.7292 507.088 25.2517L506.599 26.1243ZM539.962 14.096V14.596H540.458L540.462 14.0998L539.962 14.096ZM530.638 14.096V13.596H530.137L530.138 14.0969L530.638 14.096ZM530.666 30V30.5H531.167L531.166 29.9991L530.666 30ZM526.158 30H525.658V30.5H526.158V30ZM526.158 10.4V9.9H525.658V10.4H526.158ZM539.99 10.4L540.49 10.4038L540.494 9.9H539.99V10.4ZM539.962 13.596H530.638V14.596H539.962V13.596ZM530.138 14.0969L530.166 30.0009L531.166 29.9991L531.138 14.0951L530.138 14.0969ZM530.666 29.5H526.158V30.5H530.666V29.5ZM526.658 30V10.4H525.658V30H526.658ZM526.158 10.9H539.99V9.9H526.158V10.9ZM539.49 10.3962L539.462 14.0922L540.462 14.0998L540.49 10.4038L539.49 10.3962ZM546.556 29.02L546.318 29.4599L546.32 29.461L546.556 29.02ZM542.72 25.408L542.289 25.6622L542.293 25.6683L542.72 25.408ZM542.72 15.02L542.291 14.762L542.29 14.7635L542.72 15.02ZM546.556 11.38L546.32 10.939L546.318 10.9401L546.556 11.38ZM561.396 15.02L560.967 15.278L560.969 15.2803L561.396 15.02ZM561.396 25.408L561.823 25.6683L561.824 25.666L561.396 25.408ZM557.56 29.02L557.797 29.4599L557.56 29.02ZM555.208 25.688L555.452 26.1243L555.458 26.1205L555.208 25.688ZM557.392 23.448L556.957 23.2008L556.953 23.2074L557.392 23.448ZM557.392 16.952L556.953 17.1927L556.957 17.1992L557.392 16.952ZM555.208 14.74L554.957 15.1726L554.963 15.1763L555.208 14.74ZM548.936 14.74L549.18 15.1763L549.186 15.1725L548.936 14.74ZM546.724 16.952L546.289 16.7048L546.285 16.7114L546.724 16.952ZM546.724 23.448L546.285 23.6887L546.289 23.6952L546.724 23.448ZM548.936 25.688L548.685 26.1206L548.691 26.1243L548.936 25.688ZM552.072 29.836C550.111 29.836 548.355 29.4141 546.791 28.579L546.32 29.461C548.042 30.3806 549.963 30.836 552.072 30.836V29.836ZM546.793 28.5801C545.245 27.7435 544.032 26.6005 543.146 25.1477L542.293 25.6683C543.274 27.2768 544.618 28.5418 546.318 29.4599L546.793 28.5801ZM543.15 25.1538C542.284 23.6868 541.848 22.0396 541.848 20.2H540.848C540.848 22.2057 541.326 24.0306 542.289 25.6622L543.15 25.1538ZM541.848 20.2C541.848 18.3603 542.284 16.7236 543.149 15.2765L542.29 14.7635C541.326 16.3778 540.848 18.1943 540.848 20.2H541.848ZM543.148 15.278C544.034 13.8069 545.246 12.6557 546.793 11.8199L546.318 10.9401C544.617 11.859 543.272 13.1344 542.291 14.762L543.148 15.278ZM546.791 11.821C548.355 10.9859 550.111 10.564 552.072 10.564V9.564C549.963 9.564 548.042 10.0194 546.32 10.939L546.791 11.821ZM552.072 10.564C554.032 10.564 555.778 10.9859 557.322 11.8199L557.797 10.9401C556.093 10.0194 554.181 9.564 552.072 9.564V10.564ZM557.322 11.8199C558.869 12.6557 560.081 13.8069 560.967 15.278L561.824 14.762C560.843 13.1344 559.498 11.859 557.797 10.9401L557.322 11.8199ZM560.969 15.2803C561.851 16.7269 562.296 18.3623 562.296 20.2H563.296C563.296 18.1924 562.807 16.3745 561.822 14.7597L560.969 15.2803ZM562.296 20.2C562.296 22.0377 561.851 23.6835 560.967 25.15L561.824 25.666C562.807 24.0338 563.296 22.2076 563.296 20.2H562.296ZM560.969 25.1477C560.083 26.6005 558.87 27.7435 557.322 28.5801L557.797 29.4599C559.497 28.5418 560.842 27.2768 561.822 25.6683L560.969 25.1477ZM557.322 28.5801C555.778 29.4141 554.032 29.836 552.072 29.836V30.836C554.181 30.836 556.093 30.3806 557.797 29.4599L557.322 28.5801ZM552.072 26.972C553.307 26.972 554.438 26.6921 555.452 26.1243L554.963 25.2517C554.111 25.7292 553.151 25.972 552.072 25.972V26.972ZM555.458 26.1205C556.471 25.5332 557.264 24.7199 557.83 23.6886L556.953 23.2074C556.474 24.0801 555.811 24.7602 554.957 25.2555L555.458 26.1205ZM557.826 23.6952C558.415 22.6599 558.704 21.4904 558.704 20.2H557.704C557.704 21.3363 557.451 22.3321 556.957 23.2008L557.826 23.6952ZM558.704 20.2C558.704 18.9096 558.415 17.7401 557.826 16.7048L556.957 17.1992C557.451 18.0679 557.704 19.0637 557.704 20.2H558.704ZM557.83 16.7114C557.263 15.6786 556.468 14.8729 555.452 14.3037L554.963 15.1763C555.814 15.6524 556.475 16.3214 556.953 17.1926L557.83 16.7114ZM555.458 14.3075C554.443 13.7187 553.31 13.428 552.072 13.428V14.428C553.147 14.428 554.105 14.6786 554.957 15.1725L555.458 14.3075ZM552.072 13.428C550.833 13.428 549.7 13.7187 548.685 14.3075L549.186 15.1725C550.038 14.6786 550.996 14.428 552.072 14.428V13.428ZM548.691 14.3037C547.677 14.872 546.874 15.6756 546.289 16.7048L547.158 17.1992C547.656 16.3244 548.328 15.6533 549.18 15.1763L548.691 14.3037ZM546.285 16.7114C545.718 17.7454 545.44 18.9126 545.44 20.2H546.44C546.44 19.0607 546.684 18.0626 547.162 17.1926L546.285 16.7114ZM545.44 20.2C545.44 21.4874 545.718 22.6546 546.285 23.6886L547.162 23.2074C546.684 22.3374 546.44 21.3392 546.44 20.2H545.44ZM546.289 23.6952C546.873 24.7229 547.674 25.5341 548.685 26.1205L549.186 25.2555C548.331 24.7593 547.657 24.0771 547.158 23.2008L546.289 23.6952ZM548.691 26.1243C549.705 26.6921 550.836 26.972 552.072 26.972V25.972C550.993 25.972 550.033 25.7292 549.18 25.2517L548.691 26.1243ZM581.83 19.78L581.61 19.3309L580.459 19.8944L581.688 20.2593L581.83 19.78ZM584.574 21.516L584.182 21.8261L584.182 21.8261L584.574 21.516ZM583.538 28.544L583.242 28.1406L583.24 28.1426L583.538 28.544ZM568.25 30H567.75V30.5H568.25V30ZM568.25 10.4V9.9H567.75V10.4H568.25ZM582.698 11.716L582.982 11.3047L582.982 11.3047L582.698 11.716ZM583.874 18.044L584.29 18.3214L584.293 18.3165L583.874 18.044ZM572.758 18.52H572.258V19.02H572.758V18.52ZM579.226 17.932L579.533 18.3268L579.542 18.3196L579.226 17.932ZM579.198 14.376L578.882 14.7637L578.889 14.7692L579.198 14.376ZM572.758 13.76V13.26H572.258V13.76H572.758ZM572.758 21.684V21.184H572.258V21.684H572.758ZM572.758 26.64H572.258V27.14H572.758V26.64ZM581.688 20.2593C582.805 20.5912 583.624 21.1205 584.182 21.8261L584.966 21.2059C584.255 20.3062 583.244 19.6782 581.972 19.3007L581.688 20.2593ZM584.182 21.8261C584.736 22.5276 585.026 23.4029 585.026 24.484H586.026C586.026 23.2131 585.681 22.1097 584.966 21.2059L584.182 21.8261ZM585.026 24.484C585.026 26.0712 584.431 27.2702 583.242 28.1406L583.833 28.9474C585.296 27.8764 586.026 26.3688 586.026 24.484H585.026ZM583.24 28.1426C582.053 29.0243 580.299 29.5 577.91 29.5V30.5C580.411 30.5 582.41 30.005 583.836 28.9454L583.24 28.1426ZM577.91 29.5H568.25V30.5H577.91V29.5ZM568.75 30V10.4H567.75V30H568.75ZM568.25 10.9H577.378V9.9H568.25V10.9ZM577.378 10.9C579.599 10.9 581.259 11.3292 582.414 12.1273L582.982 11.3047C581.598 10.3481 579.711 9.9 577.378 9.9V10.9ZM582.414 12.1273C583.54 12.9056 584.102 13.998 584.102 15.468H585.102C585.102 13.69 584.395 12.2811 582.982 11.3047L582.414 12.1273ZM584.102 15.468C584.102 16.351 583.883 17.1132 583.455 17.7715L584.293 18.3165C584.836 17.4814 585.102 16.5263 585.102 15.468H584.102ZM583.458 17.7666C583.027 18.4127 582.417 18.9358 581.61 19.3309L582.05 20.2291C582.997 19.7655 583.75 19.1313 584.29 18.3213L583.458 17.7666ZM572.758 19.02H576.986V18.02H572.758V19.02ZM576.986 19.02C578.029 19.02 578.904 18.8154 579.533 18.3267L578.919 17.5373C578.539 17.8326 577.922 18.02 576.986 18.02V19.02ZM579.542 18.3196C580.186 17.7943 580.482 17.0401 580.482 16.14H579.482C579.482 16.8079 579.273 17.2484 578.91 17.5444L579.542 18.3196ZM580.482 16.14C580.482 15.2475 580.169 14.5034 579.507 13.9828L578.889 14.7692C579.272 15.0699 579.482 15.5019 579.482 16.14H580.482ZM579.514 13.9884C578.886 13.4767 578.017 13.26 576.986 13.26V14.26C577.896 14.26 578.502 14.4539 578.882 14.7636L579.514 13.9884ZM576.986 13.26H572.758V14.26H576.986V13.26ZM572.258 13.76V18.52H573.258V13.76H572.258ZM577.742 27.14C578.858 27.14 579.788 26.922 580.446 26.4024C581.126 25.8651 581.434 25.0727 581.434 24.12H580.434C580.434 24.8473 580.21 25.3149 579.826 25.6176C579.42 25.938 578.754 26.14 577.742 26.14V27.14ZM581.434 24.12C581.434 23.1892 581.122 22.4166 580.439 21.8955C579.782 21.394 578.855 21.184 577.742 21.184V22.184C578.756 22.184 579.426 22.38 579.833 22.6905C580.214 22.9814 580.434 23.4268 580.434 24.12H581.434ZM577.742 21.184H572.758V22.184H577.742V21.184ZM572.258 21.684V26.64H573.258V21.684H572.258ZM572.758 27.14H577.742V26.14H572.758V27.14Z" fill="#B9C7EB"></path> <path d="M862.272 30L861.772 30.0012L861.773 30.5H862.272V30ZM862.244 18.268L862.744 18.2668L862.74 16.4625L861.815 18.0117L862.244 18.268ZM856.476 27.928V28.428H856.76L856.905 28.1843L856.476 27.928ZM854.46 27.928L854.033 28.1888L854.18 28.428H854.46V27.928ZM848.692 18.492L849.119 18.2312L848.192 16.7154V18.492H848.692ZM848.692 30V30.5H849.192V30H848.692ZM844.436 30H843.936V30.5H844.436V30ZM844.436 10.4V9.9H843.936V10.4H844.436ZM848.188 10.4L848.616 10.142L848.471 9.9H848.188V10.4ZM855.524 22.58L855.096 22.838L855.527 23.5546L855.954 22.8351L855.524 22.58ZM862.748 10.4V9.9H862.463L862.318 10.1449L862.748 10.4ZM866.5 10.4L867 10.3993L866.999 9.9H866.5V10.4ZM866.528 30V30.5H867.029L867.028 29.9993L866.528 30ZM862.772 29.9988L862.744 18.2668L861.744 18.2692L861.772 30.0012L862.772 29.9988ZM861.815 18.0117L856.047 27.6717L856.905 28.1843L862.673 18.5243L861.815 18.0117ZM856.476 27.428H854.46V28.428H856.476V27.428ZM854.887 27.6672L849.119 18.2312L848.265 18.7528L854.033 28.1888L854.887 27.6672ZM848.192 18.492V30H849.192V18.492H848.192ZM848.692 29.5H844.436V30.5H848.692V29.5ZM844.936 30V10.4H843.936V30H844.936ZM844.436 10.9H848.188V9.9H844.436V10.9ZM847.76 10.658L855.096 22.838L855.952 22.322L848.616 10.142L847.76 10.658ZM855.954 22.8351L863.178 10.6551L862.318 10.1449L855.094 22.3249L855.954 22.8351ZM862.748 10.9H866.5V9.9H862.748V10.9ZM866 10.4007L866.028 30.0007L867.028 29.9993L867 10.3993L866 10.4007ZM866.528 29.5H862.272V30.5H866.528V29.5ZM886.629 25.8L887.091 25.609L886.963 25.3H886.629V25.8ZM877.529 25.8V25.3H877.195L877.067 25.609L877.529 25.8ZM875.793 30V30.5H876.127L876.255 30.191L875.793 30ZM871.145 30L870.688 29.7964L870.375 30.5H871.145V30ZM879.881 10.4V9.9H879.556L879.424 10.1964L879.881 10.4ZM884.361 10.4L884.817 10.1959L884.685 9.9H884.361V10.4ZM893.125 30V30.5H893.896L893.581 29.7959L893.125 30ZM888.365 30L887.903 30.191L888.031 30.5H888.365V30ZM885.201 22.356V22.856H885.949L885.663 22.1647L885.201 22.356ZM882.093 14.852L882.555 14.6607L882.093 13.5453L881.631 14.6607L882.093 14.852ZM878.985 22.356L878.523 22.1647L878.237 22.856H878.985V22.356ZM886.629 25.3H877.529V26.3H886.629V25.3ZM877.067 25.609L875.331 29.809L876.255 30.191L877.991 25.991L877.067 25.609ZM875.793 29.5H871.145V30.5H875.793V29.5ZM871.602 30.2036L880.338 10.6036L879.424 10.1964L870.688 29.7964L871.602 30.2036ZM879.881 10.9H884.361V9.9H879.881V10.9ZM883.904 10.6041L892.668 30.2041L893.581 29.7959L884.817 10.1959L883.904 10.6041ZM893.125 29.5H888.365V30.5H893.125V29.5ZM888.827 29.809L887.091 25.609L886.167 25.991L887.903 30.191L888.827 29.809ZM885.663 22.1647L882.555 14.6607L881.631 15.0433L884.739 22.5473L885.663 22.1647ZM881.631 14.6607L878.523 22.1647L879.447 22.5473L882.555 15.0433L881.631 14.6607ZM878.985 22.856H885.201V21.856H878.985V22.856ZM901.247 29.048L901.007 29.4868L901.013 29.49L901.247 29.048ZM897.439 25.436L897.008 25.6902L897.012 25.6963L897.439 25.436ZM897.439 14.992L897.01 14.734L897.009 14.7355L897.439 14.992ZM901.247 11.38L901.483 11.8209L901.484 11.8199L901.247 11.38ZM911.299 10.96L911.098 11.4179L911.1 11.4189L911.299 10.96ZM914.771 13.536L915.11 13.9034L915.459 13.581L915.155 13.2159L914.771 13.536ZM911.859 16.224L911.481 16.5513L911.819 16.9415L912.198 16.5914L911.859 16.224ZM903.683 14.74L903.923 15.1783L903.93 15.1746L903.683 14.74ZM901.443 16.952L901.008 16.7048L901.004 16.7114L901.443 16.952ZM901.443 23.448L901.004 23.6887L901.008 23.6952L901.443 23.448ZM903.683 25.688L903.436 26.1227L903.442 26.1263L903.683 25.688ZM911.859 24.148L912.198 23.7806L911.816 23.4284L911.479 23.823L911.859 24.148ZM914.771 26.836L915.157 27.153L915.456 26.7884L915.11 26.4686L914.771 26.836ZM911.299 29.44L911.1 28.9811L911.299 29.44ZM906.679 29.836C904.756 29.836 903.026 29.4233 901.48 28.606L901.013 29.49C902.715 30.39 904.607 30.836 906.679 30.836V29.836ZM901.486 28.6092C899.956 27.7731 898.752 26.6299 897.866 25.1757L897.012 25.6963C897.992 27.3034 899.326 28.5683 901.007 29.4868L901.486 28.6092ZM897.869 25.1818C897.004 23.7155 896.567 22.0592 896.567 20.2H895.567C895.567 22.2234 896.044 24.0578 897.008 25.6902L897.869 25.1818ZM896.567 20.2C896.567 18.3407 897.004 16.6948 897.868 15.2485L897.009 14.7355C896.044 16.3505 895.567 18.1766 895.567 20.2H896.567ZM897.867 15.25C898.753 13.7784 899.956 12.6373 901.483 11.8209L901.011 10.9391C899.327 11.84 897.991 13.1069 897.01 14.734L897.867 15.25ZM901.484 11.8199C903.029 10.9856 904.766 10.564 906.707 10.564V9.564C904.616 9.564 902.713 10.0198 901.009 10.9401L901.484 11.8199ZM906.707 10.564C908.346 10.564 909.807 10.852 911.098 11.4179L911.499 10.5021C910.065 9.87332 908.465 9.564 906.707 9.564V10.564ZM911.1 11.4189C912.412 11.9862 913.505 12.7983 914.387 13.8561L915.155 13.2159C914.17 12.0337 912.948 11.1285 911.497 10.5011L911.1 11.4189ZM914.432 13.1686L911.52 15.8566L912.198 16.5914L915.11 13.9034L914.432 13.1686ZM912.237 15.8967C910.82 14.2605 909.041 13.428 906.931 13.428V14.428C908.74 14.428 910.247 15.1262 911.481 16.5513L912.237 15.8967ZM906.931 13.428C905.64 13.428 904.471 13.7167 903.436 14.3054L903.93 15.1746C904.799 14.6806 905.794 14.428 906.931 14.428V13.428ZM903.442 14.3017C902.408 14.8693 901.595 15.6731 901.008 16.7048L901.877 17.1992C902.373 16.3269 903.053 15.656 903.923 15.1783L903.442 14.3017ZM901.004 16.7114C900.437 17.7454 900.159 18.9126 900.159 20.2H901.159C901.159 19.0607 901.403 18.0626 901.881 17.1926L901.004 16.7114ZM900.159 20.2C900.159 21.4874 900.437 22.6546 901.004 23.6886L901.881 23.2074C901.403 22.3374 901.159 21.3392 901.159 20.2H900.159ZM901.008 23.6952C901.594 24.7254 902.405 25.5368 903.436 26.1226L903.93 25.2534C903.056 24.7565 902.374 24.0746 901.877 23.2008L901.008 23.6952ZM903.442 26.1263C904.476 26.694 905.643 26.972 906.931 26.972V25.972C905.791 25.972 904.793 25.7273 903.923 25.2497L903.442 26.1263ZM906.931 26.972C909.043 26.972 910.823 26.1283 912.239 24.473L911.479 23.823C910.244 25.2664 908.738 25.972 906.931 25.972V26.972ZM911.52 24.5154L914.432 27.2034L915.11 26.4686L912.198 23.7806L911.52 24.5154ZM914.384 26.519C913.502 27.5946 912.41 28.4146 911.1 28.9811L911.497 29.8989C912.95 29.2707 914.172 28.3547 915.157 27.153L914.384 26.519ZM911.1 28.9811C909.789 29.548 908.318 29.836 906.679 29.836V30.836C908.437 30.836 910.046 30.5266 911.497 29.8989L911.1 28.9811ZM923.113 29.048L922.873 29.4868L922.879 29.49L923.113 29.048ZM919.305 25.436L918.874 25.6902L918.878 25.6963L919.305 25.436ZM919.305 14.992L918.877 14.734L918.876 14.7355L919.305 14.992ZM923.113 11.38L923.349 11.8209L923.351 11.8199L923.113 11.38ZM933.165 10.96L932.964 11.4179L932.966 11.4189L933.165 10.96ZM936.637 13.536L936.976 13.9034L937.325 13.581L937.021 13.2159L936.637 13.536ZM933.725 16.224L933.347 16.5513L933.685 16.9415L934.064 16.5914L933.725 16.224ZM925.549 14.74L925.79 15.1783L925.796 15.1746L925.549 14.74ZM923.309 16.952L922.874 16.7048L922.871 16.7114L923.309 16.952ZM923.309 23.448L922.871 23.6887L922.874 23.6952L923.309 23.448ZM925.549 25.688L925.302 26.1227L925.308 26.1263L925.549 25.688ZM933.725 24.148L934.064 23.7806L933.683 23.4284L933.345 23.823L933.725 24.148ZM936.637 26.836L937.024 27.153L937.322 26.7884L936.976 26.4686L936.637 26.836ZM933.165 29.44L932.966 28.9811L933.165 29.44ZM928.545 29.836C926.622 29.836 924.892 29.4233 923.347 28.606L922.879 29.49C924.581 30.39 926.473 30.836 928.545 30.836V29.836ZM923.353 28.6092C921.823 27.7731 920.619 26.6299 919.732 25.1757L918.878 25.6963C919.858 27.3034 921.193 28.5683 922.873 29.4868L923.353 28.6092ZM919.736 25.1818C918.87 23.7155 918.433 22.0592 918.433 20.2H917.433C917.433 22.2234 917.911 24.0578 918.874 25.6902L919.736 25.1818ZM918.433 20.2C918.433 18.3407 918.87 16.6948 919.734 15.2485L918.876 14.7355C917.911 16.3505 917.433 18.1766 917.433 20.2H918.433ZM919.733 15.25C920.62 13.7784 921.822 12.6373 923.349 11.8209L922.877 10.9391C921.193 11.84 919.857 13.1069 918.877 14.734L919.733 15.25ZM923.351 11.8199C924.895 10.9856 926.632 10.564 928.573 10.564V9.564C926.482 9.564 924.579 10.0198 922.875 10.9401L923.351 11.8199ZM928.573 10.564C930.212 10.564 931.673 10.852 932.964 11.4179L933.366 10.5021C931.931 9.87332 930.331 9.564 928.573 9.564V10.564ZM932.966 11.4189C934.278 11.9862 935.371 12.7983 936.253 13.8561L937.021 13.2159C936.036 12.0337 934.814 11.1285 933.363 10.5011L932.966 11.4189ZM936.298 13.1686L933.386 15.8566L934.064 16.5914L936.976 13.9034L936.298 13.1686ZM934.103 15.8967C932.686 14.2605 930.907 13.428 928.797 13.428V14.428C930.606 14.428 932.113 15.1262 933.347 16.5513L934.103 15.8967ZM928.797 13.428C927.507 13.428 926.337 13.7167 925.302 14.3054L925.796 15.1746C926.665 14.6806 927.661 14.428 928.797 14.428V13.428ZM925.308 14.3017C924.274 14.8693 923.461 15.6731 922.874 16.7048L923.744 17.1992C924.24 16.3269 924.919 15.656 925.79 15.1783L925.308 14.3017ZM922.871 16.7114C922.303 17.7454 922.025 18.9126 922.025 20.2H923.025C923.025 19.0607 923.27 18.0626 923.747 17.1926L922.871 16.7114ZM922.025 20.2C922.025 21.4874 922.303 22.6546 922.871 23.6886L923.747 23.2074C923.27 22.3374 923.025 21.3392 923.025 20.2H922.025ZM922.874 23.6952C923.46 24.7254 924.272 25.5368 925.302 26.1226L925.796 25.2534C924.922 24.7565 924.24 24.0746 923.744 23.2008L922.874 23.6952ZM925.308 26.1263C926.342 26.694 927.51 26.972 928.797 26.972V25.972C927.658 25.972 926.659 25.7273 925.79 25.2497L925.308 26.1263ZM928.797 26.972C930.91 26.972 932.689 26.1283 934.105 24.473L933.345 23.823C932.11 25.2664 930.604 25.972 928.797 25.972V26.972ZM933.386 24.5154L936.298 27.2034L936.976 26.4686L934.064 23.7806L933.386 24.5154ZM936.25 26.519C935.369 27.5946 934.276 28.4146 932.966 28.9811L933.363 29.8989C934.816 29.2707 936.039 28.3547 937.024 27.153L936.25 26.519ZM932.966 28.9811C931.655 29.548 930.184 29.836 928.545 29.836V30.836C930.303 30.836 931.912 30.5266 933.363 29.8989L932.966 28.9811ZM954.443 25.8L954.905 25.609L954.777 25.3H954.443V25.8ZM945.343 25.8V25.3H945.008L944.88 25.609L945.343 25.8ZM943.607 30V30.5H943.941L944.069 30.191L943.607 30ZM938.959 30L938.502 29.7964L938.188 30.5H938.959V30ZM947.695 10.4V9.9H947.37L947.238 10.1964L947.695 10.4ZM952.175 10.4L952.631 10.1959L952.499 9.9H952.175V10.4ZM960.939 30V30.5H961.71L961.395 29.7959L960.939 30ZM956.179 30L955.716 30.191L955.844 30.5H956.179V30ZM953.015 22.356V22.856H953.763L953.476 22.1647L953.015 22.356ZM949.907 14.852L950.368 14.6607L949.907 13.5453L949.445 14.6607L949.907 14.852ZM946.799 22.356L946.337 22.1647L946.05 22.856H946.799V22.356ZM954.443 25.3H945.343V26.3H954.443V25.3ZM944.88 25.609L943.144 29.809L944.069 30.191L945.805 25.991L944.88 25.609ZM943.607 29.5H938.959V30.5H943.607V29.5ZM939.415 30.2036L948.151 10.6036L947.238 10.1964L938.502 29.7964L939.415 30.2036ZM947.695 10.9H952.175V9.9H947.695V10.9ZM951.718 10.6041L960.482 30.2041L961.395 29.7959L952.631 10.1959L951.718 10.6041ZM960.939 29.5H956.179V30.5H960.939V29.5ZM956.641 29.809L954.905 25.609L953.98 25.991L955.716 30.191L956.641 29.809ZM953.476 22.1647L950.368 14.6607L949.445 15.0433L952.553 22.5473L953.476 22.1647ZM949.445 14.6607L946.337 22.1647L947.26 22.5473L950.368 15.0433L949.445 14.6607ZM946.799 22.856H953.015V21.856H946.799V22.856ZM982.266 22.104L982.703 21.8608L982.56 21.604H982.266V22.104ZM979.41 22.104V21.604H978.91V22.104H979.41ZM979.41 30V30.5H979.91V30H979.41ZM974.958 30H974.458V30.5H974.958V30ZM974.958 22.104H975.458V21.604H974.958V22.104ZM972.046 22.104V21.604H971.752L971.609 21.8608L972.046 22.104ZM967.65 30V30.5H967.944L968.087 30.2432L967.65 30ZM962.414 30L961.98 29.7512L961.551 30.5H962.414V30ZM968.294 19.752L968.728 20.0008L968.872 19.7485L968.725 19.498L968.294 19.752ZM962.778 10.4V9.9H961.903L962.347 10.654L962.778 10.4ZM967.566 10.4L968.003 10.1574L967.86 9.9H967.566V10.4ZM971.962 18.324L971.525 18.5666L971.668 18.824H971.962V18.324ZM974.958 18.324V18.824H975.458V18.324H974.958ZM974.958 10.4V9.9H974.458V10.4H974.958ZM979.41 10.4H979.91V9.9H979.41V10.4ZM979.41 18.324H978.91V18.824H979.41V18.324ZM982.322 18.324V18.824H982.616L982.759 18.5677L982.322 18.324ZM986.746 10.4V9.9H986.453L986.309 10.1563L986.746 10.4ZM991.534 10.4L991.965 10.6531L992.407 9.9H991.534V10.4ZM986.046 19.752L985.615 19.4989L985.468 19.7486L985.612 19.9999L986.046 19.752ZM991.898 30V30.5H992.759L992.332 29.7521L991.898 30ZM986.662 30L986.225 30.2432L986.368 30.5H986.662V30ZM982.266 21.604H979.41V22.604H982.266V21.604ZM978.91 22.104V30H979.91V22.104H978.91ZM979.41 29.5H974.958V30.5H979.41V29.5ZM975.458 30V22.104H974.458V30H975.458ZM974.958 21.604H972.046V22.604H974.958V21.604ZM971.609 21.8608L967.213 29.7568L968.087 30.2432L972.483 22.3472L971.609 21.8608ZM967.65 29.5H962.414V30.5H967.65V29.5ZM962.848 30.2488L968.728 20.0008L967.86 19.5032L961.98 29.7512L962.848 30.2488ZM968.725 19.498L963.209 10.146L962.347 10.654L967.863 20.006L968.725 19.498ZM962.778 10.9H967.566V9.9H962.778V10.9ZM967.129 10.6426L971.525 18.5666L972.399 18.0814L968.003 10.1574L967.129 10.6426ZM971.962 18.824H974.958V17.824H971.962V18.824ZM975.458 18.324V10.4H974.458V18.324H975.458ZM974.958 10.9H979.41V9.9H974.958V10.9ZM978.91 10.4V18.324H979.91V10.4H978.91ZM979.41 18.824H982.322V17.824H979.41V18.824ZM982.759 18.5677L987.183 10.6437L986.309 10.1563L981.885 18.0803L982.759 18.5677ZM986.746 10.9H991.534V9.9H986.746V10.9ZM991.103 10.1469L985.615 19.4989L986.477 20.0051L991.965 10.6531L991.103 10.1469ZM985.612 19.9999L991.464 30.2479L992.332 29.7521L986.48 19.5041L985.612 19.9999ZM991.898 29.5H986.662V30.5H991.898V29.5ZM987.099 29.7568L982.703 21.8608L981.829 22.3472L986.225 30.2432L987.099 29.7568ZM996.032 10.4V9.9H995.532V10.4H996.032ZM1000.54 10.4H1001.04V9.9H1000.54V10.4ZM1000.54 23.168H1000.04V24.6968L1000.94 23.4635L1000.54 23.168ZM1009.89 10.4V9.9H1009.64L1009.49 10.1045L1009.89 10.4ZM1014.15 10.4H1014.65V9.9H1014.15V10.4ZM1014.15 30V30.5H1014.65V30H1014.15ZM1009.67 30H1009.17V30.5H1009.67V30ZM1009.67 17.26H1010.17V15.7339L1009.26 16.9641L1009.67 17.26ZM1000.32 30V30.5H1000.57L1000.72 30.2959L1000.32 30ZM996.032 30H995.532V30.5H996.032V30ZM996.032 10.9H1000.54V9.9H996.032V10.9ZM1000.04 10.4V23.168H1001.04V10.4H1000.04ZM1000.94 23.4635L1010.3 10.6955L1009.49 10.1045L1000.14 22.8725L1000.94 23.4635ZM1009.89 10.9H1014.15V9.9H1009.89V10.9ZM1013.65 10.4V30H1014.65V10.4H1013.65ZM1014.15 29.5H1009.67V30.5H1014.15V29.5ZM1010.17 30V17.26H1009.17V30H1010.17ZM1009.26 16.9641L999.913 29.7041L1000.72 30.2959L1010.07 17.5559L1009.26 16.9641ZM1000.32 29.5H996.032V30.5H1000.32V29.5ZM996.532 30V10.4H995.532V30H996.532ZM1024.82 29.048L1024.58 29.4868L1024.59 29.49L1024.82 29.048ZM1021.02 25.436L1020.59 25.6902L1020.59 25.6963L1021.02 25.436ZM1021.02 14.992L1020.59 14.734L1020.59 14.7355L1021.02 14.992ZM1024.82 11.38L1025.06 11.8209L1025.06 11.8199L1024.82 11.38ZM1034.88 10.96L1034.68 11.4179L1034.68 11.4189L1034.88 10.96ZM1038.35 13.536L1038.69 13.9034L1039.04 13.581L1038.73 13.2159L1038.35 13.536ZM1035.44 16.224L1035.06 16.5513L1035.4 16.9415L1035.78 16.5914L1035.44 16.224ZM1027.26 14.74L1027.5 15.1783L1027.51 15.1746L1027.26 14.74ZM1025.02 16.952L1024.59 16.7048L1024.58 16.7114L1025.02 16.952ZM1025.02 23.448L1024.58 23.6887L1024.59 23.6952L1025.02 23.448ZM1027.26 25.688L1027.01 26.1227L1027.02 26.1263L1027.26 25.688ZM1035.44 24.148L1035.78 23.7806L1035.39 23.4284L1035.06 23.823L1035.44 24.148ZM1038.35 26.836L1038.73 27.153L1039.03 26.7884L1038.69 26.4686L1038.35 26.836ZM1034.88 29.44L1034.68 28.9811L1034.88 29.44ZM1030.26 29.836C1028.33 29.836 1026.6 29.4233 1025.06 28.606L1024.59 29.49C1026.29 30.39 1028.18 30.836 1030.26 30.836V29.836ZM1025.06 28.6092C1023.53 27.7731 1022.33 26.6299 1021.44 25.1757L1020.59 25.6963C1021.57 27.3034 1022.9 28.5683 1024.58 29.4868L1025.06 28.6092ZM1021.45 25.1818C1020.58 23.7155 1020.14 22.0592 1020.14 20.2H1019.14C1019.14 22.2234 1019.62 24.0578 1020.59 25.6902L1021.45 25.1818ZM1020.14 20.2C1020.14 18.3407 1020.58 16.6948 1021.45 15.2485L1020.59 14.7355C1019.62 16.3505 1019.14 18.1766 1019.14 20.2H1020.14ZM1021.44 15.25C1022.33 13.7784 1023.53 12.6373 1025.06 11.8209L1024.59 10.9391C1022.9 11.84 1021.57 13.1069 1020.59 14.734L1021.44 15.25ZM1025.06 11.8199C1026.61 10.9856 1028.34 10.564 1030.28 10.564V9.564C1028.19 9.564 1026.29 10.0198 1024.59 10.9401L1025.06 11.8199ZM1030.28 10.564C1031.92 10.564 1033.38 10.852 1034.68 11.4179L1035.08 10.5021C1033.64 9.87332 1032.04 9.564 1030.28 9.564V10.564ZM1034.68 11.4189C1035.99 11.9862 1037.08 12.7983 1037.96 13.8561L1038.73 13.2159C1037.75 12.0337 1036.53 11.1285 1035.07 10.5011L1034.68 11.4189ZM1038.01 13.1686L1035.1 15.8566L1035.78 16.5914L1038.69 13.9034L1038.01 13.1686ZM1035.81 15.8967C1034.4 14.2605 1032.62 13.428 1030.51 13.428V14.428C1032.32 14.428 1033.82 15.1262 1035.06 16.5513L1035.81 15.8967ZM1030.51 13.428C1029.22 13.428 1028.05 13.7167 1027.01 14.3054L1027.51 15.1746C1028.38 14.6806 1029.37 14.428 1030.51 14.428V13.428ZM1027.02 14.3017C1025.99 14.8693 1025.17 15.6731 1024.59 16.7048L1025.45 17.1992C1025.95 16.3269 1026.63 15.656 1027.5 15.1783L1027.02 14.3017ZM1024.58 16.7114C1024.01 17.7454 1023.74 18.9126 1023.74 20.2H1024.74C1024.74 19.0607 1024.98 18.0626 1025.46 17.1926L1024.58 16.7114ZM1023.74 20.2C1023.74 21.4874 1024.01 22.6546 1024.58 23.6886L1025.46 23.2074C1024.98 22.3374 1024.74 21.3392 1024.74 20.2H1023.74ZM1024.59 23.6952C1025.17 24.7254 1025.98 25.5368 1027.01 26.1226L1027.51 25.2534C1026.63 24.7565 1025.95 24.0746 1025.45 23.2008L1024.59 23.6952ZM1027.02 26.1263C1028.05 26.694 1029.22 26.972 1030.51 26.972V25.972C1029.37 25.972 1028.37 25.7273 1027.5 25.2497L1027.02 26.1263ZM1030.51 26.972C1032.62 26.972 1034.4 26.1283 1035.82 24.473L1035.06 23.823C1033.82 25.2664 1032.32 25.972 1030.51 25.972V26.972ZM1035.1 24.5154L1038.01 27.2034L1038.69 26.4686L1035.78 23.7806L1035.1 24.5154ZM1037.96 26.519C1037.08 27.5946 1035.99 28.4146 1034.68 28.9811L1035.07 29.8989C1036.53 29.2707 1037.75 28.3547 1038.73 27.153L1037.96 26.519ZM1034.68 28.9811C1033.37 29.548 1031.9 29.836 1030.26 29.836V30.836C1032.01 30.836 1033.62 30.5266 1035.07 29.8989L1034.68 28.9811ZM1058.05 14.096V14.596H1058.55V14.096H1058.05ZM1051.78 14.096V13.596H1051.28V14.096H1051.78ZM1051.78 30V30.5H1052.28V30H1051.78ZM1047.3 30H1046.8V30.5H1047.3V30ZM1047.3 14.096H1047.8V13.596H1047.3V14.096ZM1041.06 14.096H1040.56V14.596H1041.06V14.096ZM1041.06 10.4V9.9H1040.56V10.4H1041.06ZM1058.05 10.4H1058.55V9.9H1058.05V10.4ZM1058.05 13.596H1051.78V14.596H1058.05V13.596ZM1051.28 14.096V30H1052.28V14.096H1051.28ZM1051.78 29.5H1047.3V30.5H1051.78V29.5ZM1047.8 30V14.096H1046.8V30H1047.8ZM1047.3 13.596H1041.06V14.596H1047.3V13.596ZM1041.56 14.096V10.4H1040.56V14.096H1041.56ZM1041.06 10.9H1058.05V9.9H1041.06V10.9ZM1057.55 10.4V14.096H1058.55V10.4H1057.55ZM1066.42 29.02L1066.19 29.4599L1066.19 29.461L1066.42 29.02ZM1062.59 25.408L1062.16 25.6622L1062.16 25.6683L1062.59 25.408ZM1062.59 15.02L1062.16 14.762L1062.16 14.7635L1062.59 15.02ZM1066.42 11.38L1066.19 10.939L1066.19 10.9401L1066.42 11.38ZM1081.26 15.02L1080.84 15.278L1080.84 15.2803L1081.26 15.02ZM1081.26 25.408L1081.69 25.6683L1081.69 25.666L1081.26 25.408ZM1077.43 29.02L1077.67 29.4599L1077.43 29.02ZM1075.08 25.688L1075.32 26.1243L1075.33 26.1205L1075.08 25.688ZM1077.26 23.448L1076.83 23.2008L1076.82 23.2074L1077.26 23.448ZM1077.26 16.952L1076.82 17.1927L1076.83 17.1992L1077.26 16.952ZM1075.08 14.74L1074.82 15.1726L1074.83 15.1763L1075.08 14.74ZM1068.8 14.74L1069.05 15.1763L1069.05 15.1725L1068.8 14.74ZM1066.59 16.952L1066.16 16.7048L1066.15 16.7114L1066.59 16.952ZM1066.59 23.448L1066.15 23.6887L1066.16 23.6952L1066.59 23.448ZM1068.8 25.688L1068.55 26.1206L1068.56 26.1243L1068.8 25.688ZM1071.94 29.836C1069.98 29.836 1068.22 29.4141 1066.66 28.579L1066.19 29.461C1067.91 30.3806 1069.83 30.836 1071.94 30.836V29.836ZM1066.66 28.5801C1065.11 27.7435 1063.9 26.6005 1063.01 25.1477L1062.16 25.6683C1063.14 27.2768 1064.49 28.5418 1066.19 29.4599L1066.66 28.5801ZM1063.02 25.1538C1062.15 23.6868 1061.72 22.0396 1061.72 20.2H1060.72C1060.72 22.2057 1061.19 24.0306 1062.16 25.6622L1063.02 25.1538ZM1061.72 20.2C1061.72 18.3603 1062.15 16.7236 1063.02 15.2765L1062.16 14.7635C1061.19 16.3778 1060.72 18.1943 1060.72 20.2H1061.72ZM1063.02 15.278C1063.9 13.8069 1065.11 12.6557 1066.66 11.8199L1066.19 10.9401C1064.49 11.859 1063.14 13.1344 1062.16 14.762L1063.02 15.278ZM1066.66 11.821C1068.22 10.9859 1069.98 10.564 1071.94 10.564V9.564C1069.83 9.564 1067.91 10.0194 1066.19 10.939L1066.66 11.821ZM1071.94 10.564C1073.9 10.564 1075.65 10.9859 1077.19 11.8199L1077.67 10.9401C1075.96 10.0194 1074.05 9.564 1071.94 9.564V10.564ZM1077.19 11.8199C1078.74 12.6557 1079.95 13.8069 1080.84 15.278L1081.69 14.762C1080.71 13.1344 1079.37 11.859 1077.67 10.9401L1077.19 11.8199ZM1080.84 15.2803C1081.72 16.7269 1082.16 18.3623 1082.16 20.2H1083.16C1083.16 18.1924 1082.68 16.3745 1081.69 14.7597L1080.84 15.2803ZM1082.16 20.2C1082.16 22.0377 1081.72 23.6835 1080.84 25.15L1081.69 25.666C1082.68 24.0338 1083.16 22.2076 1083.16 20.2H1082.16ZM1080.84 25.1477C1079.95 26.6005 1078.74 27.7435 1077.19 28.5801L1077.67 29.4599C1079.36 28.5418 1080.71 27.2768 1081.69 25.6683L1080.84 25.1477ZM1077.19 28.5801C1075.65 29.4141 1073.9 29.836 1071.94 29.836V30.836C1074.05 30.836 1075.96 30.3806 1077.67 29.4599L1077.19 28.5801ZM1071.94 26.972C1073.18 26.972 1074.31 26.6921 1075.32 26.1243L1074.83 25.2517C1073.98 25.7292 1073.02 25.972 1071.94 25.972V26.972ZM1075.33 26.1205C1076.34 25.5332 1077.13 24.7199 1077.7 23.6886L1076.82 23.2074C1076.34 24.0801 1075.68 24.7602 1074.82 25.2555L1075.33 26.1205ZM1077.69 23.6952C1078.28 22.6599 1078.57 21.4904 1078.57 20.2H1077.57C1077.57 21.3363 1077.32 22.3321 1076.83 23.2008L1077.69 23.6952ZM1078.57 20.2C1078.57 18.9096 1078.28 17.7401 1077.69 16.7048L1076.83 17.1992C1077.32 18.0679 1077.57 19.0637 1077.57 20.2H1078.57ZM1077.7 16.7114C1077.13 15.6786 1076.34 14.8729 1075.32 14.3037L1074.83 15.1763C1075.68 15.6524 1076.34 16.3214 1076.82 17.1926L1077.7 16.7114ZM1075.33 14.3075C1074.31 13.7187 1073.18 13.428 1071.94 13.428V14.428C1073.02 14.428 1073.97 14.6786 1074.82 15.1725L1075.33 14.3075ZM1071.94 13.428C1070.7 13.428 1069.57 13.7187 1068.55 14.3075L1069.05 15.1725C1069.91 14.6786 1070.86 14.428 1071.94 14.428V13.428ZM1068.56 14.3037C1067.54 14.872 1066.74 15.6756 1066.16 16.7048L1067.03 17.1992C1067.52 16.3244 1068.2 15.6533 1069.05 15.1763L1068.56 14.3037ZM1066.15 16.7114C1065.59 17.7454 1065.31 18.9126 1065.31 20.2H1066.31C1066.31 19.0607 1066.55 18.0626 1067.03 17.1926L1066.15 16.7114ZM1065.31 20.2C1065.31 21.4874 1065.59 22.6546 1066.15 23.6886L1067.03 23.2074C1066.55 22.3374 1066.31 21.3392 1066.31 20.2H1065.31ZM1066.16 23.6952C1066.74 24.7229 1067.54 25.5341 1068.55 26.1205L1069.05 25.2555C1068.2 24.7593 1067.52 24.0771 1067.03 23.2008L1066.16 23.6952ZM1068.56 26.1243C1069.57 26.6921 1070.7 26.972 1071.94 26.972V25.972C1070.86 25.972 1069.9 25.7292 1069.05 25.2517L1068.56 26.1243ZM1101.7 19.78L1101.48 19.3309L1100.33 19.8944L1101.56 20.2593L1101.7 19.78ZM1104.44 21.516L1104.05 21.8261L1104.05 21.8261L1104.44 21.516ZM1103.41 28.544L1103.11 28.1406L1103.11 28.1426L1103.41 28.544ZM1088.12 30H1087.62V30.5H1088.12V30ZM1088.12 10.4V9.9H1087.62V10.4H1088.12ZM1102.57 11.716L1102.85 11.3047L1102.85 11.3047L1102.57 11.716ZM1103.74 18.044L1104.16 18.3214L1104.16 18.3165L1103.74 18.044ZM1092.63 18.52H1092.13V19.02H1092.63V18.52ZM1099.09 17.932L1099.4 18.3268L1099.41 18.3196L1099.09 17.932ZM1099.07 14.376L1098.75 14.7637L1098.76 14.7692L1099.07 14.376ZM1092.63 13.76V13.26H1092.13V13.76H1092.63ZM1092.63 21.684V21.184H1092.13V21.684H1092.63ZM1092.63 26.64H1092.13V27.14H1092.63V26.64ZM1101.56 20.2593C1102.67 20.5912 1103.49 21.1205 1104.05 21.8261L1104.83 21.2059C1104.12 20.3062 1103.11 19.6782 1101.84 19.3007L1101.56 20.2593ZM1104.05 21.8261C1104.6 22.5276 1104.89 23.4029 1104.89 24.484H1105.89C1105.89 23.2131 1105.55 22.1097 1104.83 21.2059L1104.05 21.8261ZM1104.89 24.484C1104.89 26.0712 1104.3 27.2702 1103.11 28.1406L1103.7 28.9474C1105.16 27.8764 1105.89 26.3688 1105.89 24.484H1104.89ZM1103.11 28.1426C1101.92 29.0243 1100.17 29.5 1097.78 29.5V30.5C1100.28 30.5 1102.28 30.005 1103.7 28.9454L1103.11 28.1426ZM1097.78 29.5H1088.12V30.5H1097.78V29.5ZM1088.62 30V10.4H1087.62V30H1088.62ZM1088.12 10.9H1097.25V9.9H1088.12V10.9ZM1097.25 10.9C1099.47 10.9 1101.13 11.3292 1102.28 12.1273L1102.85 11.3047C1101.47 10.3481 1099.58 9.9 1097.25 9.9V10.9ZM1102.28 12.1273C1103.41 12.9056 1103.97 13.998 1103.97 15.468H1104.97C1104.97 13.69 1104.26 12.2811 1102.85 11.3047L1102.28 12.1273ZM1103.97 15.468C1103.97 16.351 1103.75 17.1132 1103.32 17.7715L1104.16 18.3165C1104.7 17.4814 1104.97 16.5263 1104.97 15.468H1103.97ZM1103.33 17.7666C1102.9 18.4127 1102.29 18.9358 1101.48 19.3309L1101.92 20.2291C1102.87 19.7655 1103.62 19.1313 1104.16 18.3213L1103.33 17.7666ZM1092.63 19.02H1096.85V18.02H1092.63V19.02ZM1096.85 19.02C1097.9 19.02 1098.77 18.8154 1099.4 18.3267L1098.79 17.5373C1098.41 17.8326 1097.79 18.02 1096.85 18.02V19.02ZM1099.41 18.3196C1100.05 17.7943 1100.35 17.0401 1100.35 16.14H1099.35C1099.35 16.8079 1099.14 17.2484 1098.78 17.5444L1099.41 18.3196ZM1100.35 16.14C1100.35 15.2475 1100.04 14.5034 1099.37 13.9828L1098.76 14.7692C1099.14 15.0699 1099.35 15.5019 1099.35 16.14H1100.35ZM1099.38 13.9884C1098.75 13.4767 1097.89 13.26 1096.85 13.26V14.26C1097.76 14.26 1098.37 14.4539 1098.75 14.7636L1099.38 13.9884ZM1096.85 13.26H1092.63V14.26H1096.85V13.26ZM1092.13 13.76V18.52H1093.13V13.76H1092.13ZM1097.61 27.14C1098.73 27.14 1099.66 26.922 1100.31 26.4024C1100.99 25.8651 1101.3 25.0727 1101.3 24.12H1100.3C1100.3 24.8473 1100.08 25.3149 1099.69 25.6176C1099.29 25.938 1098.62 26.14 1097.61 26.14V27.14ZM1101.3 24.12C1101.3 23.1892 1100.99 22.4166 1100.31 21.8955C1099.65 21.394 1098.72 21.184 1097.61 21.184V22.184C1098.62 22.184 1099.29 22.38 1099.7 22.6905C1100.08 22.9814 1100.3 23.4268 1100.3 24.12H1101.3ZM1097.61 21.184H1092.63V22.184H1097.61V21.184ZM1092.13 21.684V26.64H1093.13V21.684H1092.13ZM1092.63 27.14H1097.61V26.14H1092.63V27.14Z" fill="#B9C7EB"></path> <path d="M613.436 10.4H629.256V14.012H617.944V18.044H623.376C625.747 18.044 627.548 18.5387 628.78 19.528C630.031 20.5173 630.656 21.9453 630.656 23.812C630.656 25.772 629.965 27.2933 628.584 28.376C627.203 29.4587 625.252 30 622.732 30H613.436V10.4ZM622.48 26.64C623.637 26.64 624.524 26.416 625.14 25.968C625.756 25.5013 626.064 24.8293 626.064 23.952C626.064 22.2347 624.869 21.376 622.48 21.376H617.944V26.64H622.48ZM644.552 10.4C646.288 10.4 647.791 10.6893 649.06 11.268C650.348 11.8467 651.337 12.668 652.028 13.732C652.719 14.796 653.064 16.056 653.064 17.512C653.064 18.9493 652.719 20.2093 652.028 21.292C651.337 22.356 650.348 23.1773 649.06 23.756C647.791 24.316 646.288 24.596 644.552 24.596H640.604V30H636.068V10.4H644.552ZM644.3 20.9C645.663 20.9 646.699 20.6107 647.408 20.032C648.117 19.4347 648.472 18.5947 648.472 17.512C648.472 16.4107 648.117 15.5707 647.408 14.992C646.699 14.3947 645.663 14.096 644.3 14.096H640.604V20.9H644.3ZM667.642 30.336C665.607 30.336 663.768 29.8973 662.126 29.02C660.502 28.1427 659.223 26.9387 658.29 25.408C657.375 23.8587 656.918 22.1227 656.918 20.2C656.918 18.2773 657.375 16.5507 658.29 15.02C659.223 13.4707 660.502 12.2573 662.126 11.38C663.768 10.5027 665.607 10.064 667.642 10.064C669.676 10.064 671.506 10.5027 673.13 11.38C674.754 12.2573 676.032 13.4707 676.966 15.02C677.899 16.5507 678.366 18.2773 678.366 20.2C678.366 22.1227 677.899 23.8587 676.966 25.408C676.032 26.9387 674.754 28.1427 673.13 29.02C671.506 29.8973 669.676 30.336 667.642 30.336ZM667.642 26.472C668.799 26.472 669.844 26.2107 670.778 25.688C671.711 25.1467 672.439 24.4 672.962 23.448C673.503 22.496 673.774 21.4133 673.774 20.2C673.774 18.9867 673.503 17.904 672.962 16.952C672.439 16 671.711 15.2627 670.778 14.74C669.844 14.1987 668.799 13.928 667.642 13.928C666.484 13.928 665.439 14.1987 664.506 14.74C663.572 15.2627 662.835 16 662.294 16.952C661.771 17.904 661.51 18.9867 661.51 20.2C661.51 21.4133 661.771 22.496 662.294 23.448C662.835 24.4 663.572 25.1467 664.506 25.688C665.439 26.2107 666.484 26.472 667.642 26.472ZM697.4 19.78C698.595 20.1347 699.509 20.7133 700.144 21.516C700.779 22.3187 701.096 23.308 701.096 24.484C701.096 26.22 700.433 27.5733 699.108 28.544C697.801 29.5147 695.925 30 693.48 30H683.82V10.4H692.948C695.225 10.4 696.999 10.8387 698.268 11.716C699.537 12.5933 700.172 13.844 700.172 15.468C700.172 16.4387 699.929 17.2973 699.444 18.044C698.959 18.772 698.277 19.3507 697.4 19.78ZM688.328 18.52H692.556C693.545 18.52 694.292 18.324 694.796 17.932C695.3 17.5213 695.552 16.924 695.552 16.14C695.552 15.3747 695.291 14.7867 694.768 14.376C694.264 13.9653 693.527 13.76 692.556 13.76H688.328V18.52ZM693.312 26.64C695.44 26.64 696.504 25.8 696.504 24.12C696.504 22.496 695.44 21.684 693.312 21.684H688.328V26.64H693.312ZM706.643 10.4H711.151V23.168L720.503 10.4H724.759V30H720.279V17.26L710.927 30H706.643V10.4ZM740.867 30.336C738.87 30.336 737.059 29.9067 735.435 29.048C733.83 28.1707 732.561 26.9667 731.627 25.436C730.713 23.8867 730.255 22.1413 730.255 20.2C730.255 18.2587 730.713 16.5227 731.627 14.992C732.561 13.4427 733.83 12.2387 735.435 11.38C737.059 10.5027 738.879 10.064 740.895 10.064C742.594 10.064 744.125 10.3627 745.487 10.96C746.869 11.5573 748.026 12.416 748.959 13.536L746.047 16.224C744.722 14.6933 743.079 13.928 741.119 13.928C739.906 13.928 738.823 14.1987 737.871 14.74C736.919 15.2627 736.173 16 735.631 16.952C735.109 17.904 734.847 18.9867 734.847 20.2C734.847 21.4133 735.109 22.496 735.631 23.448C736.173 24.4 736.919 25.1467 737.871 25.688C738.823 26.2107 739.906 26.472 741.119 26.472C743.079 26.472 744.722 25.6973 746.047 24.148L748.959 26.836C748.026 27.9747 746.869 28.8427 745.487 29.44C744.106 30.0373 742.566 30.336 740.867 30.336ZM768.664 14.096H762.392V30H757.912V14.096H751.668V10.4H768.664V14.096ZM782.551 30.336C780.516 30.336 778.678 29.8973 777.035 29.02C775.411 28.1427 774.132 26.9387 773.199 25.408C772.284 23.8587 771.827 22.1227 771.827 20.2C771.827 18.2773 772.284 16.5507 773.199 15.02C774.132 13.4707 775.411 12.2573 777.035 11.38C778.678 10.5027 780.516 10.064 782.551 10.064C784.586 10.064 786.415 10.5027 788.039 11.38C789.663 12.2573 790.942 13.4707 791.875 15.02C792.808 16.5507 793.275 18.2773 793.275 20.2C793.275 22.1227 792.808 23.8587 791.875 25.408C790.942 26.9387 789.663 28.1427 788.039 29.02C786.415 29.8973 784.586 30.336 782.551 30.336ZM782.551 26.472C783.708 26.472 784.754 26.2107 785.687 25.688C786.62 25.1467 787.348 24.4 787.871 23.448C788.412 22.496 788.683 21.4133 788.683 20.2C788.683 18.9867 788.412 17.904 787.871 16.952C787.348 16 786.62 15.2627 785.687 14.74C784.754 14.1987 783.708 13.928 782.551 13.928C781.394 13.928 780.348 14.1987 779.415 14.74C778.482 15.2627 777.744 16 777.203 16.952C776.68 17.904 776.419 18.9867 776.419 20.2C776.419 21.4133 776.68 22.496 777.203 23.448C777.744 24.4 778.482 25.1467 779.415 25.688C780.348 26.2107 781.394 26.472 782.551 26.472ZM812.309 19.78C813.504 20.1347 814.419 20.7133 815.053 21.516C815.688 22.3187 816.005 23.308 816.005 24.484C816.005 26.22 815.343 27.5733 814.017 28.544C812.711 29.5147 810.835 30 808.389 30H798.729V10.4H807.857C810.135 10.4 811.908 10.8387 813.177 11.716C814.447 12.5933 815.081 13.844 815.081 15.468C815.081 16.4387 814.839 17.2973 814.353 18.044C813.868 18.772 813.187 19.3507 812.309 19.78ZM803.237 18.52H807.465C808.455 18.52 809.201 18.324 809.705 17.932C810.209 17.5213 810.461 16.924 810.461 16.14C810.461 15.3747 810.2 14.7867 809.677 14.376C809.173 13.9653 808.436 13.76 807.465 13.76H803.237V18.52ZM808.221 26.64C810.349 26.64 811.413 25.8 811.413 24.12C811.413 22.496 810.349 21.684 808.221 21.684H803.237V26.64H808.221Z" fill="#B9C7EB"></path> </svg> 