<?xml version="1.0" encoding="UTF-8"?> <svg xmlns="http://www.w3.org/2000/svg" width="48" height="48" fill="none" viewBox="0 0 48 48"> <path fill="#363BB6" d="M0 0h48v48H0z"></path> <path fill="#8B8EDD" d="M30.725 27.655a.695.695 0 00-.982.055A7.706 7.706 0 0124 30.26a7.707 7.707 0 01-5.743-2.55.696.696 0 10-1.036.928A9.101 9.101 0 0024 31.652a9.1 9.1 0 006.78-3.014.696.696 0 00-.055-.983z"></path> <path fill="#8B8EDD" d="M24 8C15.178 8 8 15.178 8 24s7.178 16 16 16 16-7.178 16-16S32.822 8 24 8zm0 30.609c-8.056 0-14.609-6.553-14.609-14.609 0-8.056 6.553-14.609 14.609-14.609 8.056 0 14.609 6.553 14.609 14.609 0 8.056-6.553 14.609-14.609 14.609z"></path> <path fill="#8B8EDD" d="M29.565 19.13a3.482 3.482 0 00-3.478 3.479.696.696 0 001.391 0 2.09 2.09 0 012.087-2.087 2.09 2.09 0 012.087 2.087.696.696 0 001.392 0 3.482 3.482 0 00-3.479-3.479zM20.522 22.609a.696.696 0 001.391 0 3.482 3.482 0 00-3.478-3.479 3.482 3.482 0 00-3.478 3.479.696.696 0 001.39 0 2.09 2.09 0 012.088-2.087 2.09 2.09 0 012.087 2.087z"></path> </svg> 