<?xml version="1.0" encoding="UTF-8"?> <svg xmlns="http://www.w3.org/2000/svg" width="48" height="48" fill="none" viewBox="0 0 48 48"> <path fill="#363BB6" d="M0 0h48v48H0z"></path> <path fill="#8B8EDD" d="M40 17.833a.533.533 0 00-.156-.377l-7.479-7.478a.549.549 0 00-.754 0l-3.733 3.734a3.4 3.4 0 00-4.142.099 3.383 3.383 0 00-3.612.242l-3.735-3.735a.533.533 0 00-.754 0l-7.479 7.478a.533.533 0 000 .755l3.704 3.703a3.42 3.42 0 00.035 4.794l.647.647a2.453 2.453 0 001.77 4.152c.098-.003.196-.013.292-.028a2.438 2.438 0 002.427 2.746c.031 0 .061-.007.092-.009a1.962 1.962 0 003.122 1.852c.09.316.258.605.488.838.772.77 2.022.77 2.794 0l.303-.302.643.643a1.96 1.96 0 003.282-.839 1.944 1.944 0 003.122-1.85c.03.001.06.009.091.009a2.46 2.46 0 002.458-2.46 2.514 2.514 0 00-.03-.289c.097.015.194.024.292.028a2.454 2.454 0 001.736-4.192l-.302-.302.983-.983a3.42 3.42 0 00.035-4.794l3.704-3.704c.1-.1.156-.236.156-.378zm-26.67 12.54a1.391 1.391 0 010-1.965l2.04-2.04a1.39 1.39 0 111.964 1.966l-2.04 2.04a1.423 1.423 0 01-1.964 0zm4.682 2.722a1.39 1.39 0 01-1.963-1.967l2.04-2.04a1.39 1.39 0 011.965 1.965l-2.042 2.042zm2.72 1.359l-1.018 1.018a.91.91 0 01-1.286 0 .91.91 0 010-1.285l.338-.337.002-.003 2.04-2.04.34-.34a.909.909 0 011.286 1.285l-1.7 1.7-.002.002zm2.04 2.038a.91.91 0 01-1.284 0 .91.91 0 01-.001-1.284l1.7-1.7.001-.002 1.02-1.019a.909.909 0 011.285 1.286l-2.72 2.72zm3.74.34a.91.91 0 01-1.285 0l-.643-.642 1.286-1.286.642.642a.912.912 0 010 1.286zm8.158-6.118a1.391 1.391 0 01-1.965 0l-4.418-4.42a.533.533 0 00-.755.755l4.419 4.419a1.386 1.386 0 010 1.965 1.415 1.415 0 01-1.973-.008l-1.343-1.283a.533.533 0 00-.737.77l1.334 1.275.34.34a.909.909 0 11-1.285 1.285l-1.721-1.72a1.964 1.964 0 00-2.89-2.54 1.935 1.935 0 00-2.159-1.39 2.428 2.428 0 00-2.738-2.518 2.449 2.449 0 00-4.164-2.03l-1.323 1.323-.643-.643a2.354 2.354 0 010-3.324l.34-.34c.1-.1.157-.236.157-.377 0-.009-.005-.016-.005-.024a.53.53 0 00-.15-.354h-.002l-3.702-3.701 6.725-6.725 3.701 3.702a.533.533 0 00.755 0 2.332 2.332 0 012.439-.548l-4.553 4.553a2.456 2.456 0 003.474 3.474l3.362-3.363 9.48 9.481a1.386 1.386 0 010 1.966zm.34-9.178a.533.533 0 000 .754l.34.34a2.355 2.355 0 010 3.325l-.982.982-8.424-8.424.983-.982a.533.533 0 10-.755-.754l-1.358 1.358-.002.001v.002l-3.739 3.738a1.423 1.423 0 01-1.965 0 1.387 1.387 0 010-1.966l5.1-5.098a2.353 2.353 0 013.324 0l.68.68a.533.533 0 00.754-.755l-.303-.303 3.325-3.325 6.725 6.724-3.703 3.703z"></path> </svg> 