<?xml version="1.0" encoding="UTF-8"?> <svg xmlns="http://www.w3.org/2000/svg" width="156" height="68" fill="none" viewBox="0 0 156 68"> <path fill="#292929" d="M20.885 23.587h12.697v4.247H20.885V39.65h-5.13V11.684h19.846v4.248H20.885v7.655zM41.43 33.803l-2.046 5.847h-5.487L44.47 11.684h5.112L60.173 39.65h-5.488l-2.044-5.89-11.212.043zm1.362-4.247h8.494L47.04 17.103l-4.247 12.453zM82.728 30.115h5.085a17.471 17.471 0 01-.524 2.744 11.62 11.62 0 01-1.223 2.762 9.244 9.244 0 01-2.141 2.508 10.398 10.398 0 01-3.408 1.748 15.852 15.852 0 01-4.85.682H74.18c-.74-.066-1.476-.18-2.202-.341a14.864 14.864 0 01-2.7-.804 12.856 12.856 0 01-2.683-1.582 10.599 10.599 0 01-2.464-2.543 13.266 13.266 0 01-1.687-3.802 18.829 18.829 0 01-.681-5.243 21.02 21.02 0 011.118-7.227 11.36 11.36 0 013.103-4.79 12.968 12.968 0 014.308-2.525 15.468 15.468 0 015.085-.804 16.602 16.602 0 014.912.664c1.232.343 2.392.906 3.425 1.66a8.833 8.833 0 012.123 2.386 9.884 9.884 0 011.163 2.622c.215.839.35 1.696.402 2.56h-5.086a6.78 6.78 0 00-.498-1.878 7.925 7.925 0 00-1.101-1.748 4.902 4.902 0 00-2.106-1.442 8.834 8.834 0 00-3.225-.542 8.258 8.258 0 00-3.888.874 6.18 6.18 0 00-2.543 2.42 11.73 11.73 0 00-1.302 3.426 19.967 19.967 0 00-.402 4.187c0 3.233.795 5.762 2.385 7.585a7.866 7.866 0 006.266 2.744 6.44 6.44 0 004.946-1.826 6.808 6.808 0 001.879-4.475zM97.862 23.185h14.262v4.23H97.863v8.014h16.384v4.22H92.742V11.685h21.025v4.248H97.863v7.253zM116.694 30.675h5.086c.028.6.155 1.19.376 1.748a6.997 6.997 0 001.083 1.747 5.057 5.057 0 002.246 1.486c1.151.399 2.365.588 3.583.56 3.95 0 5.925-1.402 5.925-4.204a3.92 3.92 0 00-.499-2.045 3.237 3.237 0 00-1.424-1.285 13.108 13.108 0 00-1.538-.638 11.536 11.536 0 00-1.582-.358c-1.415-.239-2.51-.466-3.285-.682a32.519 32.519 0 01-3.347-.944 12.693 12.693 0 01-2.622-1.345 5.368 5.368 0 01-2.079-2.246 8.323 8.323 0 01-.665-3.496 8.49 8.49 0 01.621-3.347 5.458 5.458 0 011.748-2.299 14.148 14.148 0 012.263-1.407 8.871 8.871 0 012.543-.777c.935-.149 1.669-.245 2.202-.28a25.117 25.117 0 011.643-.061c3.495 0 6.117.78 7.864 2.342a8.44 8.44 0 012.963 5.908h-5.086c-.35-2.669-2.313-4.003-5.89-4.003-.409 0-.818.025-1.223.079-.575.096-1.144.225-1.704.384a3.378 3.378 0 00-1.8 1.145 3.263 3.263 0 00-.682 2.124 3.37 3.37 0 00.218 1.24c.153.384.411.717.743.962.31.245.637.467.979.664.417.216.861.378 1.319.48.583.146 1.058.26 1.425.342.367.081.888.174 1.564.28 1.512.244 3.009.576 4.483.996a13.99 13.99 0 013.286 1.485 5.773 5.773 0 012.28 2.526c.514 1.2.762 2.497.726 3.801.017 5.978-3.88 8.967-11.693 8.967a17.476 17.476 0 01-5.872-.874 8.355 8.355 0 01-3.722-2.403 10.485 10.485 0 01-1.844-3.129 10.663 10.663 0 01-.612-3.443zM87.577 59.706h2.71v3.54h-.875v-.874a2.107 2.107 0 01-2.062 1.101 3.852 3.852 0 01-1.162-.175 3.215 3.215 0 01-1.031-.542 2.534 2.534 0 01-.77-1.057 4.248 4.248 0 01-.288-1.626 4.931 4.931 0 01.227-1.573c.116-.387.31-.747.568-1.057.227-.255.5-.466.804-.62a3.32 3.32 0 01.874-.315c.265-.052.534-.078.804-.079.39-.006.778.044 1.154.149.288.077.56.204.804.375.2.149.372.332.507.542.12.184.215.384.28.595.056.194.094.393.113.594h-1.206a1.547 1.547 0 00-.455-.874 1.643 1.643 0 00-1.197-.376c-.3-.01-.6.05-.874.175-.223.1-.42.249-.576.437a2.07 2.07 0 00-.341.62c-.081.22-.137.45-.166.682a5.637 5.637 0 000 .673c-.01.411.058.82.2 1.206.107.297.29.56.534.76.197.157.419.28.655.367a1.993 1.993 0 001.18.044 2.23 2.23 0 00.56-.245c.208-.13.374-.319.48-.541.131-.273.2-.572.2-.874h-1.625l-.026-1.032zM92.865 59.357h3.381v1.005h-3.381v1.896h3.906v.988h-5.086v-6.642h4.98v1.005H92.9l-.034 1.748zM99.104 57.627h-2.088v-1.005h5.391v1.005h-2.088v5.619h-1.215v-5.62zM106.951 57.627h-2.089v-1.005h5.392v1.005h-2.123v5.619h-1.215l.035-5.62zM113.478 56.438h.734c.177.018.352.048.525.087a2.62 2.62 0 011.258.603c.223.173.415.383.568.62.174.288.304.6.385.927.21.838.21 1.715 0 2.552a3.35 3.35 0 01-.385.927 2.497 2.497 0 01-.568.62 2.62 2.62 0 01-1.258.594 4.946 4.946 0 01-.525.088h-.734a5.023 5.023 0 01-.524-.088 2.62 2.62 0 01-1.258-.594 2.5 2.5 0 01-.568-.62 3.352 3.352 0 01-.385-.927 5.247 5.247 0 010-2.552 3.35 3.35 0 01.385-.926c.152-.238.345-.448.568-.62a2.62 2.62 0 011.258-.595c.173-.042.348-.075.524-.096zm1.355 1.232a2.15 2.15 0 00-1.975 0c-.258.15-.468.372-.603.638a3.2 3.2 0 00-.28.795 4.38 4.38 0 000 1.67c.058.276.152.543.28.795.135.267.344.488.603.638a2.142 2.142 0 001.975 0c.262-.148.474-.37.612-.638.127-.252.221-.52.279-.795a4.38 4.38 0 000-1.67 3.245 3.245 0 00-.279-.795 1.555 1.555 0 00-.612-.638zM121.439 59.706h2.718v3.54h-.874v-.874a2.11 2.11 0 01-2.063 1.101 3.85 3.85 0 01-1.162-.175 3.221 3.221 0 01-1.031-.542 2.523 2.523 0 01-.769-1.057 4.22 4.22 0 01-.288-1.626 4.935 4.935 0 01.227-1.573c.116-.387.309-.746.568-1.057.227-.255.5-.465.804-.62.275-.146.569-.252.874-.315.265-.052.534-.078.804-.079a4.08 4.08 0 011.153.149c.288.077.56.204.804.375.197.15.366.333.498.542.121.184.215.384.28.595.057.194.095.393.113.594h-1.205a1.55 1.55 0 00-.455-.874 1.643 1.643 0 00-1.197-.376c-.301-.01-.6.05-.874.175-.223.1-.42.25-.577.437a2.076 2.076 0 00-.34.62 3.08 3.08 0 00-.166.682 5.396 5.396 0 000 .673c-.011.411.057.82.2 1.206.106.297.291.56.534.76.197.157.418.28.655.367.211.074.432.112.655.114.177 0 .354-.024.525-.07.193-.056.379-.139.55-.245.209-.13.375-.319.481-.541.131-.273.2-.572.201-.874h-1.626l-.017-1.032zM126.717 59.357h3.382v1.005h-3.382v1.896h3.871v.988h-5.085v-6.642h4.98v1.005h-3.766v1.748zM132.965 57.627h-2.115v-1.005h5.392v1.005h-2.089v5.619h-1.214l.026-5.62zM138.409 60.283v2.963h-1.215v-6.642h1.215v2.622h2.928v-2.622h1.214v6.642h-1.214v-2.98l-2.928.017zM145.409 59.357h3.382v1.005h-3.382v1.896h3.871v.988h-5.085v-6.642h5.007v1.005h-3.766l-.027 1.748zM150.25 63.246v-6.642h2.971c1.602 0 2.403.618 2.403 1.853.021.387-.093.77-.323 1.083-.2.256-.475.443-.787.534.199.06.384.16.542.297.139.124.241.285.297.463.053.153.091.311.114.472.009.163.009.326 0 .49a7.611 7.611 0 000 .978.95.95 0 00.209.454h-1.232a1.08 1.08 0 01-.175-.454 8.946 8.946 0 010-.927c.014-.154.014-.309 0-.463a1.218 1.218 0 00-.157-.384.741.741 0 00-.428-.306 2.624 2.624 0 00-.786-.096h-1.407v2.622l-1.241.026zm1.214-5.637v1.993h1.521c.16.012.321.012.481 0 .147-.024.29-.066.428-.123a.683.683 0 00.349-.306c.087-.164.129-.347.123-.533a1.012 1.012 0 00-.097-.472.878.878 0 00-.235-.288 1.036 1.036 0 00-.341-.157 1.929 1.929 0 00-.35-.07h-1.879v-.044z"></path> <path fill="#292929" d="M26.486 68l-3.285-1.328 7.716-19.087H152.46V3.548H3.548v44.116h9.105v3.54H0V0h156v51.124H33.303L26.486 68z"></path> </svg> 