<?xml version="1.0" encoding="UTF-8"?> <svg xmlns="http://www.w3.org/2000/svg" width="464" height="543" fill="none" viewBox="0 0 464 543"> <g opacity=".4"> <path stroke="#B9C7EB" d="M446.208 543V151M353.984 543V151M261.761 543V151M138.822 543V151M415.467 543V151M323.243 543V151M231.02 543V151M108.081 543V151M46.599 543V151M384.726 543V151M292.502 543V151M169.564 543V151M200.279 543V151M77.34 543V151M15.5 543V0"></path> <g> <path stroke="#B9C7EB" d="M464 179.227H0M464 271.012H0M464 362.798H0M464 209.821H0M464 301.609H0M464 393.391H0M464 240.416H0M464 332.204H0M464 423.988H0M464 485.177H0M464 454.584H0M464 515.773H0"></path> </g> </g> <path stroke="#B9C7EB" d="M464 29.227H0" opacity=".4"></path> </svg> 