<?xml version="1.0" encoding="UTF-8"?> <svg xmlns="http://www.w3.org/2000/svg" width="56" height="56" viewBox="0 0 56 56" fill="none"> <rect width="56" height="56" fill="#363BB6"></rect> <g clip-path="url(#clip0)"> <path d="M28.6667 30.6674V24.001H27.3334V15.3347H27.3074C27.3481 13.9347 26.4868 12.1115 24.8948 10.4796C23.4002 8.95162 21.6103 8.00166 20.2184 8.00166C19.6101 7.97816 19.0188 8.20515 18.5824 8.62963C18.082 9.19503 17.8676 9.95824 18.0005 10.7015V24.001H16.6672V30.6674H15.3339V48H30V30.6674H28.6667ZM19.5337 9.56093C19.7214 9.39552 19.9685 9.31385 20.2177 9.33494C21.2483 9.33494 22.7089 10.1502 23.9402 11.4115C25.7308 13.2448 26.3708 15.3294 25.7468 15.968C25.5599 16.1328 25.3139 16.2147 25.0655 16.1947C24.0355 16.1947 22.5736 15.3794 21.343 14.1181C19.5524 12.2841 18.9124 10.2016 19.5337 9.56093ZM25.9988 17.3593V24.001H19.3337V13.7948C19.6534 14.2387 20.006 14.6581 20.3884 15.0494C21.881 16.578 23.6729 17.5279 25.0655 17.5279C25.3844 17.5307 25.7011 17.4735 25.9988 17.3593ZM18.0005 25.3343H27.3334V30.6674H18.0005V25.3343ZM28.6667 46.6667H16.6672V32.0007H28.6667V46.6667Z" fill="#8B8EDD"></path> <path d="M37.3334 30.6674V21.3345H39.3333V20.0012H37.3334V18.6679H39.3333V17.3347H37.3334V16.0014H39.3333V14.6681H37.3334V13.3348H39.3333V12.0015H37.3334V10.6683H38.6667V9.33499H37.3334V8.00171H36.0001V9.33499H34.6668V10.6683H36.0001V12.0015H34.0002V13.3348H36.0001V14.6681H34.0002V16.0014H36.0001V17.3347H34.0002V18.6679H36.0001V20.0012H34.0002V21.3345H36.0001V30.6674H32.6669V48H40.6666V30.6674H37.3334ZM39.3333 46.6668H34.0002V32.0007H39.3333V46.6668Z" fill="#8B8EDD"></path> </g> <defs> <clipPath id="clip0"> <rect x="8" y="8" width="40" height="40" fill="white"></rect> </clipPath> </defs> </svg> 