<?xml version="1.0" encoding="UTF-8"?> <svg xmlns="http://www.w3.org/2000/svg" width="128" height="56" fill="none" viewBox="0 0 128 56"> <path fill="#292929" d="M17.137 19.425h10.418v3.498H17.137v9.73h-4.21V9.623h16.284v3.497H17.137v6.305zM33.993 27.838l-1.678 4.815h-4.502l8.675-23.03h4.195l8.69 23.03H44.87l-1.678-4.85-9.199.035zm1.119-3.498h6.969l-3.485-10.255-3.484 10.255zM67.88 24.801h4.172a14.45 14.45 0 01-.43 2.26 9.593 9.593 0 01-1.004 2.274 7.61 7.61 0 01-1.757 2.066 8.523 8.523 0 01-2.796 1.44 12.96 12.96 0 01-3.98.56h-1.218a14.138 14.138 0 01-1.807-.28c-.758-.15-1.5-.372-2.216-.662a10.535 10.535 0 01-2.2-1.303 8.714 8.714 0 01-2.023-2.094 10.944 10.944 0 01-1.384-3.131 15.557 15.557 0 01-.559-4.318 17.37 17.37 0 01.918-5.952 9.358 9.358 0 012.545-3.944 10.632 10.632 0 013.535-2.08 12.648 12.648 0 014.173-.662 13.574 13.574 0 014.03.547 8.727 8.727 0 012.81 1.367 7.265 7.265 0 011.743 1.965c.42.67.742 1.397.953 2.16.177.69.287 1.396.33 2.108h-4.173a5.6 5.6 0 00-.409-1.548 6.532 6.532 0 00-.903-1.439 4.023 4.023 0 00-1.728-1.188 7.224 7.224 0 00-2.646-.446 6.754 6.754 0 00-3.19.72 5.077 5.077 0 00-2.087 1.994 9.683 9.683 0 00-1.068 2.82 16.51 16.51 0 00-.33 3.448c0 2.663.652 4.745 1.957 6.247a6.433 6.433 0 005.141 2.26 5.266 5.266 0 004.059-1.504 5.617 5.617 0 001.541-3.685zM80.297 19.094H92v3.483H80.297v6.6h13.444v3.476H76.096V9.623h17.25v3.497H80.298v5.974zM95.749 25.262h4.173c.023.493.127.98.308 1.439a5.77 5.77 0 00.889 1.44c.493.567 1.13.99 1.843 1.223.945.328 1.94.484 2.94.46 3.241 0 4.861-1.154 4.861-3.461a3.237 3.237 0 00-.409-1.684 2.66 2.66 0 00-1.168-1.058 10.745 10.745 0 00-1.262-.526 9.449 9.449 0 00-1.298-.295c-1.162-.197-2.06-.384-2.696-.561-.928-.21-1.845-.47-2.746-.777a10.372 10.372 0 01-2.151-1.109 4.42 4.42 0 01-1.707-1.85 6.881 6.881 0 01-.544-2.878 7.01 7.01 0 01.509-2.757c.3-.748.795-1.402 1.434-1.893a11.624 11.624 0 011.857-1.158 7.256 7.256 0 012.086-.64c.767-.123 1.37-.202 1.807-.231a20.5 20.5 0 011.348-.05c2.868 0 5.019.642 6.453 1.928a6.98 6.98 0 012.431 4.865h-4.173c-.287-2.197-1.898-3.296-4.833-3.296-.336 0-.671.021-1.004.065-.471.08-.938.185-1.398.317a2.772 2.772 0 00-1.477.942 2.696 2.696 0 00-.559 1.75c-.005.348.056.695.179 1.021.126.316.337.59.609.792.255.202.523.385.804.547.342.178.706.311 1.082.396.478.12.868.213 1.169.28.301.068.729.145 1.283.23 1.241.202 2.469.476 3.679.821.947.29 1.853.7 2.696 1.224a4.742 4.742 0 011.871 2.08c.422.988.625 2.056.595 3.13.014 4.923-3.183 7.385-9.593 7.385a14.295 14.295 0 01-4.819-.72 6.853 6.853 0 01-3.054-1.98 8.645 8.645 0 01-1.513-2.576 8.826 8.826 0 01-.502-2.835zM71.858 49.17h2.223v2.915h-.717v-.72a1.732 1.732 0 01-1.692.907 3.15 3.15 0 01-.954-.144 2.635 2.635 0 01-.846-.446c-.282-.23-.5-.53-.63-.871a3.51 3.51 0 01-.238-1.339 4.07 4.07 0 01.187-1.295 2.45 2.45 0 01.466-.871c.186-.21.41-.383.66-.511.225-.12.467-.207.717-.26.217-.042.438-.063.66-.064.319-.005.638.037.946.122.236.064.46.168.66.31.164.122.305.273.415.446.1.151.177.316.23.49.046.16.077.323.093.489h-.99a1.276 1.276 0 00-.372-.72 1.345 1.345 0 00-.983-.31 1.58 1.58 0 00-.717.145 1.298 1.298 0 00-.473.36 1.708 1.708 0 00-.28.51c-.066.182-.112.37-.136.562-.01.184-.01.37 0 .554-.008.339.047.676.165.993.087.245.238.461.438.626.162.13.343.231.537.303a1.633 1.633 0 00.968.036c.162-.046.316-.114.459-.202.171-.108.308-.263.394-.446.108-.225.165-.47.165-.72H71.88l-.022-.849zM76.197 48.882h2.774v.828h-2.775v1.562h3.206v.813h-4.174v-5.47h4.088v.828h-3.09l-.03 1.44zM81.316 47.457h-1.714v-.828h4.424v.828h-1.713v4.628h-.997v-4.628zM87.755 47.457H86.04v-.828h4.424v.828h-1.742v4.628h-.997l.029-4.628zM93.11 46.478h.602c.145.016.29.04.431.072.382.07.74.241 1.032.497.184.143.341.315.466.511.143.237.25.494.316.763.172.69.172 1.412 0 2.102a2.757 2.757 0 01-.316.762 2.051 2.051 0 01-.466.511c-.293.254-.65.423-1.032.49a4.072 4.072 0 01-.43.072h-.603a4.115 4.115 0 01-.43-.072 2.148 2.148 0 01-1.032-.49 2.057 2.057 0 01-.466-.51 2.771 2.771 0 01-.316-.764 4.334 4.334 0 010-2.101c.067-.269.173-.526.316-.763.125-.196.283-.368.466-.51.294-.254.65-.424 1.032-.49.142-.035.286-.062.43-.08zm1.112 1.015a1.758 1.758 0 00-1.62 0 1.272 1.272 0 00-.495.526 2.604 2.604 0 00-.23.655c-.088.454-.088.92 0 1.374.047.228.124.448.23.655.11.22.282.402.494.525a1.751 1.751 0 001.62 0c.216-.122.39-.304.503-.525.104-.207.182-.427.23-.655.087-.454.087-.92 0-1.374a2.648 2.648 0 00-.23-.655 1.271 1.271 0 00-.502-.526zM99.642 49.17h2.23v2.915h-.717v-.72a1.73 1.73 0 01-1.692.907 3.15 3.15 0 01-.954-.144 2.641 2.641 0 01-.846-.446c-.283-.23-.5-.53-.63-.871a3.495 3.495 0 01-.237-1.339 4.094 4.094 0 01.186-1.295c.095-.32.254-.615.466-.871.187-.21.41-.383.66-.511.226-.12.467-.207.717-.26.217-.042.438-.063.66-.064.32-.005.638.037.946.122.236.064.46.168.66.31.161.123.3.274.408.446.1.151.177.316.23.49.046.16.077.323.093.489h-.99a1.27 1.27 0 00-.372-.72 1.346 1.346 0 00-.983-.31 1.58 1.58 0 00-.717.145 1.312 1.312 0 00-.473.36 1.716 1.716 0 00-.28.51c-.066.182-.111.37-.136.562-.01.184-.01.37 0 .554-.008.339.048.676.165.993.087.245.238.461.438.626.162.13.343.231.537.303.173.06.355.092.538.093.145 0 .29-.02.43-.057.159-.047.311-.115.452-.202a1.06 1.06 0 00.394-.446c.108-.225.164-.47.165-.72h-1.334l-.014-.849zM103.973 48.882h2.775v.828h-2.775v1.562h3.176v.813h-4.173v-5.47h4.087v.828h-3.09v1.44zM109.1 47.457h-1.736v-.828h4.424v.828h-1.713v4.628h-.997l.022-4.628zM113.566 49.645v2.44h-.996v-5.47h.996v2.16h2.402v-2.16h.997v5.47h-.997v-2.454l-2.402.014zM119.31 48.882h2.775v.828h-2.775v1.562h3.177v.813h-4.173v-5.47h4.108v.828h-3.09l-.022 1.44zM123.282 52.085v-5.47h2.438c1.314 0 1.971.509 1.971 1.526.018.32-.076.635-.265.892a1.27 1.27 0 01-.645.44c.163.049.315.132.444.244a.85.85 0 01.244.382 2 2 0 01.093.388c.008.134.008.269 0 .403a6.773 6.773 0 000 .806.79.79 0 00.172.375h-1.011a.886.886 0 01-.143-.375 6.934 6.934 0 010-.763 2.025 2.025 0 000-.381 1.009 1.009 0 00-.129-.317.61.61 0 00-.351-.252 2.149 2.149 0 00-.646-.079H124.3v2.16l-1.018.021zm.996-4.642v1.64h1.248c.131.011.263.011.394 0 .121-.019.239-.053.352-.1a.564.564 0 00.287-.252.892.892 0 00.1-.439.84.84 0 00-.079-.389.721.721 0 00-.194-.237.838.838 0 00-.279-.13 1.595 1.595 0 00-.287-.057h-1.542v-.036z"></path> <path fill="#292929" d="M21.733 56l-2.697-1.094 6.332-15.718h99.728V2.922H2.911v36.33h7.471v2.915H0V0h128v42.103H27.325L21.733 56z"></path> </svg> 